<svg width="24" height="24" viewBox="0 0 24 24" fill="none" xmlns="http://www.w3.org/2000/svg">
<path d="M18.8278 12.6975L18.0198 16.954C17.9375 17.3909 17.9501 17.8404 18.0568 18.272L18.7468 21.0515C18.7674 21.1344 18.7688 21.2209 18.751 21.3045C18.7331 21.388 18.6965 21.4664 18.6439 21.5337C18.5913 21.601 18.5241 21.6555 18.4473 21.693C18.3705 21.7304 18.2862 21.7499 18.2008 21.75H5.7988C5.71337 21.7499 5.62908 21.7304 5.55231 21.693C5.47554 21.6555 5.4083 21.601 5.35569 21.5337C5.30307 21.4664 5.26647 21.388 5.24864 21.3045C5.23082 21.2209 5.23224 21.1344 5.2528 21.0515L5.9428 18.272C6.04934 17.8404 6.06179 17.3909 5.9793 16.954L5.1718 12.6975C5.16048 12.6379 5.16244 12.5765 5.17755 12.5178C5.19266 12.459 5.22055 12.4043 5.25923 12.3576C5.29791 12.3108 5.34642 12.2732 5.40132 12.2473C5.45621 12.2215 5.51613 12.208 5.5768 12.208H18.4218C18.4826 12.2079 18.5427 12.2212 18.5978 12.247C18.6528 12.2728 18.7015 12.3105 18.7403 12.3573C18.7791 12.4042 18.807 12.459 18.8222 12.5179C18.8373 12.5768 18.8392 12.6378 18.8278 12.6975Z" stroke="#666666" stroke-width="1.2" stroke-linecap="round" stroke-linejoin="round"/>
<path d="M7.18763 7.964L9.07362 6.494M7.18763 11.0255L9.07362 9.555M8.13062 2.25C8.67498 2.25 9.19704 2.46624 9.58196 2.85116C9.96688 3.23608 10.1831 3.75814 10.1831 4.3025V12.208H6.07813V4.303C6.07806 4.03346 6.13108 3.76655 6.23417 3.5175C6.33726 3.26846 6.48839 3.04216 6.67893 2.85152C6.86948 2.66088 7.09571 2.50964 7.34471 2.40643C7.5937 2.30322 7.86109 2.25007 8.13062 2.25ZM12.3471 6.272H15.6201V7.52H12.3471V6.272Z" stroke="#666666" stroke-width="1.2" stroke-linecap="round" stroke-linejoin="round"/>
<path d="M12.7262 7.52002C12.7262 11.015 11.1632 10.516 11.1632 12.208M15.2272 7.52002C15.2272 11.015 16.7897 10.516 16.7897 12.208M6.03174 17.6265H7.05824M17.9687 17.6265H16.9887" stroke="#666666" stroke-width="1.2" stroke-linecap="round" stroke-linejoin="round"/>
</svg>
