<svg width="990" height="1060" viewBox="0 0 990 1060" fill="none" xmlns="http://www.w3.org/2000/svg">
<path d="M916.349 706.255C919.42 658.093 895.915 559.22 827.217 535.312C758.52 511.404 659.991 556.275 627.345 588.868C594.7 621.461 455.358 668.955 456.782 591.701C458.722 486.475 461.089 444.753 397.076 487.433C333.062 530.114 346.684 458.256 270.715 490.091C209.939 515.558 171.199 626.81 87.7119 531.184" stroke="#3DA0A7"/>
<path d="M236.187 225.233C259.853 244.888 244.971 271.301 230.058 276.119C176.27 292.853 183.633 268.468 179.356 233.045C175.078 197.621 212.521 205.577 236.187 225.233Z" stroke="#3DA0A7"/>
<path d="M671.292 346.854C662.551 344.859 643.231 331.205 635.875 292.552C626.68 244.236 606.883 145.165 545.95 170.595C485.016 196.025 450.962 238.437 470.593 255.54C490.225 272.643 528.477 231.87 481.897 180.764C435.316 129.657 341.054 141.017 305.381 214.425" stroke="#CFE9BC"/>
<path d="M371.108 648.539C368.638 652.827 362.917 654.152 362.917 654.152C362.917 654.152 361.201 648.523 363.671 644.235C366.141 639.946 371.862 638.622 371.862 638.622C371.862 638.622 373.577 644.25 371.108 648.539Z" fill="#FFF1CE"/>
<ellipse cx="4.48637" cy="4.49584" rx="4.48637" ry="4.49584" transform="matrix(0.965768 -0.259408 0.258231 0.966083 386.397 501.375)" fill="#FFF1CE"/>
<ellipse cx="4.48637" cy="4.49584" rx="4.48637" ry="4.49584" transform="matrix(0.965768 -0.259408 0.258231 0.966083 560.445 466.263)" fill="#FFF1CE"/>
<ellipse cx="4.48637" cy="4.49584" rx="4.48637" ry="4.49584" transform="matrix(0.965768 -0.259408 0.258231 0.966083 644.815 404.032)" fill="#FFF1CE"/>
<ellipse cx="3.92557" cy="3.93386" rx="3.92557" ry="3.93386" transform="matrix(0.965768 -0.259408 0.258231 0.966083 520.967 253.418)" fill="#FFF1CE"/>
<ellipse cx="3.92557" cy="3.93386" rx="3.92557" ry="3.93386" transform="matrix(0.965768 -0.259408 0.258231 0.966083 358.555 414.586)" fill="#FFF1CE"/>
<ellipse cx="3.36478" cy="3.37188" rx="3.36478" ry="3.37188" transform="matrix(0.965768 -0.259408 0.258231 0.966083 451.917 320.844)" fill="#FFF1CE"/>
<path d="M610.743 444.09C613.24 447.873 617.402 450.311 621.752 450.951C625.894 451.571 629.637 450.425 633.332 448.655C633.503 448.583 633.675 448.511 633.76 448.475C633.687 448.291 633.614 448.106 633.541 447.922C631.084 442.725 627.293 438.197 622.803 434.93C618.385 431.847 613.317 429.898 608.408 428.097C607.344 433.487 607.856 439.825 610.743 444.09Z" fill="#AEDC90"/>
<path d="M610.743 444.089C613.24 447.873 617.402 450.311 621.752 450.951C625.894 451.571 629.637 450.425 633.332 448.655C633.504 448.583 633.675 448.511 633.76 448.475C613.416 445.543 608.322 428.133 608.322 428.133C607.345 433.487 607.856 439.825 610.743 444.089Z" fill="#7CA661"/>
<path d="M612.257 436.9C614.693 440.69 618.642 443.739 622.395 445.802C625.742 447.607 629.496 448.921 633.262 449.267C633.434 449.195 633.606 449.123 633.693 449.087C633.619 448.904 633.545 448.721 633.471 448.538C629.631 448.008 626.026 447.06 622.519 445.109C620.562 444.004 618.741 442.736 617.018 441.212C615.456 439.836 614.078 438.168 612.737 436.592C612.467 436.171 612.023 436.57 612.257 436.9Z" fill="#39700B"/>
<path d="M402.437 375.056C406.562 370.918 409.614 365.391 411.153 360.558C414.241 350.73 410.615 339.588 404.487 331.05C401.288 326.558 397.314 322.461 392.55 319.638C380.364 312.217 364.587 311.812 351.338 316.172C343.128 318.877 335.376 324.651 330.537 331.699C322.699 343.301 324.389 360.549 335.592 370.989C345.86 380.54 353.441 374.916 365.069 376.295C374.612 377.411 382.966 384.17 392.997 381.12C396.532 379.999 399.765 377.811 402.437 375.056Z" fill="#F4F4F4"/>
<path d="M334.768 370.563C344.919 380.24 352.435 374.577 363.945 376.002C373.393 377.154 381.653 384.005 391.591 380.949C395.027 379.853 398.165 377.678 400.882 374.875C402.53 373.235 403.93 371.375 405.206 369.407C382.468 377.419 349.153 370.482 338.575 357.937C331.077 349.01 330.459 337.166 331.277 328.737C330.718 329.447 330.226 330.131 329.735 330.814C322.049 342.556 323.693 359.986 334.768 370.563Z" fill="#E3E3E3"/>
<path d="M393.484 363.617C401.195 359.71 404.267 350.258 400.346 342.504C396.425 334.75 386.995 331.631 379.284 335.537C371.574 339.444 368.502 348.896 372.423 356.65C376.344 364.404 385.774 367.523 393.484 363.617Z" fill="#EBB64A"/>
<path d="M395.023 358.956C387.368 362.86 378.033 359.643 374.186 351.774C372.356 348.033 372.128 343.879 373.188 340.115C370.026 344.709 369.316 350.954 371.997 356.436C375.844 364.305 385.179 367.522 392.834 363.618C396.85 361.57 399.575 358.004 400.729 353.951C399.32 356.039 397.345 357.772 395.023 358.956Z" fill="#E3A63B"/>
<path d="M399.254 345.589C398.095 348.048 396.202 343.418 392.215 341.401C388.227 339.384 383.578 340.708 384.737 338.249C385.896 335.789 390.044 335.37 394.032 337.387C398.113 339.437 400.382 343.064 399.254 345.589Z" fill="white"/>
<path d="M520.582 278.984C516.926 279.123 513.441 280.696 510.974 283.43C505.772 289.308 497.28 299.985 498.552 306.753C500.436 316.502 527.866 318.607 558.066 328.371C588.266 338.136 593.908 344.699 595.119 336.617C596.329 328.536 604.859 305.148 583.803 290.376C567.186 278.675 533.901 278.508 520.582 278.984Z" fill="#ECB579"/>
<path d="M594.813 336.897C595.49 332.477 598.491 323.276 597.262 313.544C595.222 318.286 592.034 322.82 586.207 323.445C572.473 324.934 536.093 305.618 513.624 301.856C506.272 300.572 501.068 301.244 497.484 302.677C496.946 304.522 496.728 306.239 497.023 307.751C498.947 317.354 526.741 319.358 557.353 328.903C587.81 338.437 593.601 344.864 594.813 336.897Z" fill="#DFA164"/>
<path d="M539.656 317.449C541.59 315.804 544.128 314.651 546.566 313.474C547.185 313.193 547.804 312.912 548.423 312.631C558.298 307.866 564.532 301.481 566.005 294.543C566.298 293.017 566.429 291.495 566.56 289.972C566.59 289.332 566.62 288.691 566.711 288.023C566.819 286.581 567.088 285.135 567.357 283.69C566.733 283.624 566.11 283.559 565.487 283.494C565.218 284.94 565.011 286.357 564.842 287.827C564.812 288.468 564.721 289.136 564.691 289.777C564.584 291.218 564.453 292.741 564.184 294.186C562.831 300.722 556.854 306.781 547.474 311.32C546.855 311.601 546.298 311.855 545.679 312.136C543.079 313.317 540.517 314.55 538.373 316.36C537.216 317.373 536.257 318.436 535.475 319.627C536.16 319.664 536.821 319.782 537.506 319.819C538.069 319.006 538.794 318.189 539.656 317.449Z" fill="#F2D0A4"/>
<path d="M519.357 304.051C520.725 303.841 522.054 303.582 523.358 303.397C529.887 302.275 537.24 300.574 542.26 296.551C546.025 293.533 548.037 289.583 549.58 285.687C550.595 283.288 551.401 280.842 552.247 278.445C551.57 278.45 550.919 278.38 550.242 278.386C549.488 280.682 548.63 282.955 547.734 285.178C546.205 288.875 544.35 292.7 540.768 295.517C536.088 299.214 529.035 300.863 522.74 301.958C521.41 302.217 520.107 302.402 518.739 302.612C513.239 303.526 507.505 304.468 502.482 306.424C502.156 306.552 501.83 306.679 501.503 306.806C502.14 307.075 502.816 307.393 503.518 307.637C508.423 305.855 513.987 304.915 519.357 304.051Z" fill="#F2D0A4"/>
<path d="M527.953 313.312C531.429 310.272 536.038 308.308 539.722 306.889C540.035 306.751 540.386 306.664 540.762 306.499C543.218 305.553 545.736 304.579 547.871 303.089C550.517 301.169 552.073 298.565 553.48 296.095C555.651 292.193 557.755 287.977 558.206 283.327C558.295 282.328 558.297 281.437 558.223 280.442C557.593 280.378 557.002 280.365 556.347 280.379C556.446 281.295 556.443 282.186 556.316 283.133C555.938 287.546 553.921 291.655 551.736 295.426C550.416 297.789 548.908 300.235 546.474 301.993C544.59 303.372 542.134 304.318 539.804 305.209C539.49 305.347 539.139 305.434 538.763 305.599C534.955 307.074 530.095 309.148 526.469 312.323C525.36 313.291 524.453 314.308 523.647 315.348C524.315 315.465 525.008 315.502 525.739 315.59C526.371 314.763 527.143 314.012 527.953 313.312Z" fill="#F2D0A4"/>
<path d="M533.105 283.799C530.849 286.028 526.995 287.522 521.345 288.357C515.761 289.167 509.934 289.233 504.203 288.552C503.874 289.002 503.611 289.427 503.282 289.877C509.43 290.654 515.805 290.634 521.858 289.771C527.977 288.883 532.223 287.237 534.755 284.708C537.47 281.978 537.986 278.618 538.02 275.186C537.342 275.191 536.703 275.245 536.064 275.3C535.901 278.459 535.518 281.445 533.105 283.799Z" fill="#F2D0A4"/>
<path d="M507.869 283.57C513.105 283.717 518.65 283.495 523.61 282.091C525.84 281.451 527.546 280.687 528.718 279.677C530.501 278.248 531.414 276.253 531.451 274.011C530.807 274.061 530.124 274.061 529.48 274.11C529.371 275.933 528.662 277.534 527.225 278.643C526.24 279.455 524.798 280.121 522.767 280.687C518.506 281.894 513.682 282.165 509.035 282.116C508.672 282.634 508.27 283.102 507.869 283.57Z" fill="#F2D0A4"/>
<path d="M539.594 286.857C535.619 292.861 527.016 296.861 517.782 297.01C515.59 297.034 513.282 296.908 511.104 296.731C507.161 296.473 503.077 296.141 499.211 296.959C499.029 297.487 498.886 298.065 498.807 298.617C499.17 298.538 499.43 298.435 499.793 298.356C503.296 297.617 507.069 297.877 511.011 298.135C513.255 298.286 515.667 298.435 517.962 298.436C527.87 298.279 537.083 293.973 541.318 287.54C543.539 284.185 544.425 280.319 543.898 276.492C543.223 276.499 542.653 276.531 541.978 276.538C542.48 280.114 541.698 283.679 539.594 286.857Z" fill="#F2D0A4"/>
<path d="M589.353 341.581C588.232 334.48 587.178 327.825 588.761 321.397C589.196 319.649 589.855 317.945 590.46 316.269C590.696 315.586 590.931 314.903 591.223 314.191C592.114 311.645 592.836 309.028 593.473 306.375C593.093 305.692 592.658 305.039 592.192 304.32C591.622 307.419 590.771 310.504 589.721 313.452C589.485 314.135 589.249 314.819 588.984 315.437C588.324 317.141 587.639 318.939 587.178 320.78C585.491 327.582 586.642 334.748 587.733 341.784C587.896 342.74 588.059 343.696 588.166 344.681C588.76 344.932 589.325 345.118 589.889 345.304C589.719 344.032 589.523 342.853 589.353 341.581Z" fill="#F2D0A4"/>
<path d="M597.474 341.104C597.573 340.333 597.729 339.536 597.858 338.671C597.015 337.149 596.258 335.505 595.859 333.77C595.005 330.326 595.227 326.606 595.608 323.131C595.992 319.493 596.569 315.844 597.334 312.344C597.027 311.367 596.721 310.391 596.333 309.373C595.327 313.791 594.54 318.264 594.026 322.767C593.612 326.499 593.331 330.408 594.314 334.192C595.023 336.741 596.151 339.01 597.474 341.104Z" fill="#F2D0A4"/>
<path d="M580.671 333.012C581.17 328.69 582.298 324.516 583.401 320.435C584.173 317.403 585.055 314.313 585.624 311.149C586.551 306.125 586.83 301.203 586.405 296.412C585.821 295.923 585.267 295.497 584.627 295.038C585.199 299.99 584.993 305.352 583.99 310.654C583.391 313.754 582.594 316.879 581.792 319.847C580.72 323.992 579.567 328.259 579.043 332.673C578.781 334.88 578.717 337.063 578.845 339.065C579.418 339.242 579.966 339.511 580.54 339.687C580.351 337.558 580.384 335.311 580.671 333.012Z" fill="#F2D0A4"/>
<path d="M563.437 317.233C563.927 316.528 564.476 315.793 564.932 315.03C567.768 311.006 570.687 306.864 572.349 302.153C573.964 297.618 574.474 292.511 573.82 287.242C573.261 287.073 572.644 286.934 572.027 286.795C572.74 292.034 572.311 297.024 570.696 301.559C569.081 306.095 566.186 310.149 563.466 314.113C562.976 314.818 562.427 315.553 561.972 316.316C559.578 319.81 557.266 323.567 555.92 327.662C556.502 327.743 557.06 327.912 557.642 327.993C558.977 324.131 561.184 320.58 563.437 317.233Z" fill="#F2D0A4"/>
<path d="M568.469 332.962C569.616 329.184 571.363 325.558 573.063 322.111C574.81 318.485 576.638 314.739 577.833 310.781C579.738 304.514 579.991 297.792 580.229 291.31C579.711 291.038 579.135 290.796 578.559 290.554C578.353 297.097 578.11 303.969 576.262 310.206C575.091 314.074 573.32 317.79 571.597 321.326C569.873 324.863 568.069 328.519 566.931 332.447C566.907 332.537 566.884 332.627 566.86 332.717C567.336 332.779 567.935 332.93 568.469 332.962C568.445 333.052 568.445 333.052 568.469 332.962Z" fill="#F2D0A4"/>
<path d="M637.083 550.439C635.821 551.083 634.839 552.769 634.193 553.653C632.979 555.299 631.586 556.689 629.963 558.039C630.808 558.726 632.375 558.813 633.454 558.727C634.636 558.612 635.615 558.146 636.695 557.653C637.184 557.42 637.648 557.092 638.112 556.765C639.427 555.497 641.164 551.273 638.83 550.376C638.214 550.135 637.572 550.206 637.083 550.439Z" fill="#7CA661"/>
<path d="M426.887 281.813C425.58 281.199 424.662 279.707 423.817 278.487C423.234 279.415 422.385 280.126 421.247 280.528C422.261 282.38 424.002 283.843 426.181 284.223C426.109 283.567 426.426 282.42 426.887 281.813Z" fill="#AEDC90"/>
<path d="M478.07 449.515L474.736 447.462C474.736 447.462 476.106 454.191 470.862 458.219L473.751 459.408C473.751 459.408 478.204 456.029 478.07 449.515Z" fill="#AEDC90"/>
<path d="M346.874 562.513C345.453 563.9 344.105 565.167 342.684 566.554C341.851 567.381 340.993 568.114 340.531 569.143C339.969 570.198 339.584 571.91 341.063 572.317C342.542 572.724 344.576 570.87 345.482 569.923C346.388 568.976 347.27 567.936 347.657 566.625C348.482 564.192 346.703 562.66 346.874 562.513Z" fill="#7CA661"/>
<path d="M314.208 406.094C315.548 408.216 317.819 409.409 320.177 409.813C322.413 410.161 324.455 409.516 326.474 408.559C326.56 408.523 326.646 408.487 326.731 408.451C326.695 408.358 326.658 408.266 326.622 408.174C325.284 405.3 323.248 402.933 320.722 401.096C318.354 399.407 315.655 398.394 312.956 397.381C312.412 400.296 312.673 403.732 314.208 406.094Z" fill="#AEDC90"/>
<path d="M314.208 406.094C315.548 408.216 317.819 409.409 320.177 409.813C322.413 410.161 324.455 409.516 326.474 408.559C326.56 408.523 326.646 408.487 326.731 408.451C315.71 406.859 312.956 397.381 312.956 397.381C312.412 400.296 312.673 403.732 314.208 406.094Z" fill="#7CA661"/>
<path d="M315.014 402.174C316.331 404.188 318.423 405.876 320.467 406.944C322.264 407.901 324.283 408.659 326.376 408.851C326.462 408.815 326.548 408.779 326.634 408.743C326.597 408.651 326.561 408.56 326.524 408.469C324.48 408.149 322.486 407.702 320.614 406.562C319.556 405.936 318.583 405.275 317.66 404.486C316.737 403.697 316.072 402.8 315.322 401.938C315.162 401.792 314.94 401.991 315.014 402.174Z" fill="#39700B"/>
<path d="M624.217 282.928C624.7 285.41 623.888 287.901 622.478 289.891C621.117 291.754 619.22 292.767 617.128 293.54C617.043 293.576 616.957 293.612 616.871 293.648C616.835 293.556 616.798 293.464 616.762 293.372C615.767 290.353 615.615 287.194 616.172 284.058C616.716 281.143 617.957 278.472 619.197 275.801C621.565 277.491 623.71 280.133 624.217 282.928Z" fill="#AEDC90"/>
<path d="M624.217 282.928C624.7 285.41 623.888 287.901 622.478 289.891C621.117 291.754 619.22 292.767 617.128 293.54C617.043 293.576 616.957 293.612 616.871 293.648C623.663 284.558 619.197 275.801 619.197 275.801C621.565 277.491 623.71 280.133 624.217 282.928Z" fill="#7CA661"/>
<path d="M620.265 280.626C620.719 283 620.399 285.7 619.684 287.923C619.068 289.891 618.156 291.875 616.801 293.512C616.715 293.548 616.629 293.584 616.543 293.62C616.506 293.528 616.469 293.437 616.432 293.346C617.663 291.654 618.772 289.908 619.314 287.757C619.635 286.554 619.869 285.387 619.98 284.165C620.091 282.943 619.944 281.829 619.883 280.679C619.895 280.46 620.191 280.443 620.265 280.626Z" fill="#39700B"/>
<path d="M440.473 611.32C441.527 607.227 445.658 604.897 449.704 606.081C453.254 607.114 455.555 610.537 455.323 614.112L470.077 613.375L462.621 567.107C461.219 567.686 459.552 567.839 457.883 567.368C454.016 566.199 451.713 562.153 452.651 558.196C453.527 554.711 456.856 552.534 460.298 552.897L456.34 528.387L434.508 524.016L427.189 536.496C428.778 538.428 429.536 541.06 428.857 543.571C427.846 547.558 423.821 549.933 419.838 548.901L400.474 581.792C401.16 581.776 401.878 581.837 402.554 582.004C405.713 582.93 407.655 586.322 406.863 589.594C406.038 592.79 402.761 594.678 399.529 593.782C397.648 593.22 396.209 591.852 395.507 590.178L389.143 601.015L421.445 615.697L440.178 614.744C440.164 613.679 440.192 612.507 440.473 611.32Z" fill="#EBB64A"/>
<path d="M435.665 524.008L428.264 536.315C429.883 538.209 430.659 540.795 429.976 543.268C428.959 547.195 424.877 549.548 420.829 548.548L401.247 580.982C401.943 580.964 402.673 581.021 403.36 581.182C406.571 582.081 408.552 585.411 407.756 588.633C406.927 591.78 403.603 593.651 400.318 592.782C398.406 592.236 396.94 590.896 396.223 589.252L389.788 599.939L422.634 614.254L457.817 528.147L435.665 524.008Z" fill="#EEC94D"/>
<path d="M428.995 571.559C428.306 574.245 425.622 575.705 422.983 575.011C420.312 574.241 418.799 571.483 419.414 568.827C420.103 566.141 422.787 564.681 425.426 565.375C428.097 566.145 429.716 568.949 428.995 571.559Z" fill="#EBB64A"/>
<path d="M455.366 535.897C454.949 537.582 453.195 538.57 451.521 538.102C449.847 537.634 448.825 535.83 449.242 534.145C449.659 532.46 451.413 531.471 453.087 531.94C454.761 532.408 455.784 534.212 455.366 535.897Z" fill="#EBB64A"/>
<path d="M421.141 598.127C420.368 601.025 417.42 602.683 414.569 601.898C411.685 601.038 409.969 598.007 410.668 595.14C411.441 592.242 414.389 590.584 417.241 591.369C420.198 592.199 421.914 595.229 421.141 598.127Z" fill="#EBB64A"/>
<path d="M458.436 595.23C457.831 597.704 455.295 599.104 452.837 598.424C450.379 597.745 448.93 595.137 449.535 592.663C450.14 590.189 452.676 588.789 455.134 589.469C457.592 590.148 459.041 592.756 458.436 595.23Z" fill="#CC9431"/>
<path d="M575.822 527.278C575.822 527.278 560.55 556.533 555.253 558.656C549.957 560.779 542.628 554.052 539.87 563.259C537.028 572.501 552.064 572.039 552.064 572.039C552.064 572.039 552.986 582.407 560.937 582.93C568.888 583.453 565.894 574.891 564.386 567.003C562.794 559.148 588.833 533.875 588.833 533.875L575.822 527.278Z" fill="#F2D0A4"/>
<path d="M655.866 476.538C656.694 452.953 627.098 439.375 608.861 454.974C608.585 455.207 608.388 455.401 608.112 455.635C594.391 468.231 584.617 529.235 587.694 532.688C592.617 538.25 595.625 527.81 595.914 534.485C596.204 541.159 595.381 546.336 608.151 536.447C621 526.52 654.844 492.137 655.802 477.349C655.836 477.04 655.87 476.731 655.866 476.538Z" fill="#C89059"/>
<path d="M607.319 480.829C615.067 459.402 624.989 450.468 630.791 446.967C623.189 445.62 614.993 447.345 608.233 453.208C607.959 453.445 607.764 453.641 607.49 453.878C593.903 466.63 583.907 528.837 586.915 532.387C591.729 538.105 594.755 527.47 594.999 534.287C595.244 541.104 594.402 546.383 607.036 536.388C608.913 534.853 611.297 532.767 613.992 530.327C608.158 522.046 598.884 504.187 607.319 480.829Z" fill="#BA7F4A"/>
<path d="M620.757 481.47C620.216 482.34 619 482.652 618.128 482.094C617.257 481.536 616.929 480.307 617.471 479.437C618.012 478.567 619.228 478.255 620.1 478.813C620.971 479.371 621.299 480.6 620.757 481.47Z" fill="#BA7F4A"/>
<path d="M615.343 494.401C614.685 495.428 613.389 495.78 612.28 495.143C611.248 494.468 610.879 493.161 611.497 492.054C612.155 491.027 613.451 490.675 614.56 491.312C615.67 491.948 615.961 493.295 615.343 494.401Z" fill="#BA7F4A"/>
<path d="M612.454 508.323C611.796 509.35 610.501 509.702 609.392 509.065C608.361 508.388 607.993 507.08 608.61 505.974C609.268 504.946 610.563 504.594 611.672 505.232C612.781 505.869 612.993 507.256 612.454 508.323Z" fill="#BA7F4A"/>
<path d="M622.018 501.658C621.555 502.488 620.495 502.722 619.742 502.204C618.911 501.726 618.663 500.655 619.167 499.904C619.63 499.074 620.69 498.84 621.443 499.358C622.274 499.836 622.481 500.827 622.018 501.658Z" fill="#BA7F4A"/>
<path d="M630.518 472.779C630.055 473.609 628.995 473.843 628.242 473.325C627.411 472.847 627.163 471.776 627.667 471.025C628.13 470.195 629.19 469.961 629.943 470.479C630.774 470.957 631.021 472.028 630.518 472.779Z" fill="#BA7F4A"/>
<path d="M542.367 450.592C555.019 445.386 560.836 430.654 555.359 417.687C549.882 404.72 535.185 398.43 522.533 403.636C509.881 408.843 504.065 423.575 509.542 436.541C515.019 449.508 529.715 455.799 542.367 450.592Z" fill="#EBB64A"/>
<path d="M541.399 448.301C552.817 443.603 558.066 430.308 553.123 418.607C548.181 406.905 534.918 401.228 523.501 405.926C512.083 410.625 506.834 423.92 511.776 435.621C516.719 447.323 529.982 453 541.399 448.301Z" fill="white"/>
<path d="M513.865 431.815L527.405 425.305C528.428 424.813 528.297 423.357 527.19 423.021L512.494 418.512C511.756 418.288 510.945 418.75 510.781 419.408C509.94 423.212 510.326 427.295 512.017 431.112C512.341 431.824 513.203 432.133 513.865 431.815Z" fill="#EEC94D"/>
<path d="M525.189 429.278L511.59 435.818C510.868 436.165 510.647 436.995 511.152 437.62C513.564 441.091 517.019 443.698 520.812 445.274C521.522 445.584 522.396 445.236 522.589 444.492L527.061 430.838C527.427 429.722 526.212 428.787 525.189 429.278Z" fill="#EEC94D"/>
<path d="M521.991 405.706C518.492 407.939 515.85 411.28 514.236 415.025C513.92 415.725 514.261 416.632 515.004 416.872L528.642 422.229C529.671 422.633 530.648 421.523 530.136 420.394L523.735 406.288C523.479 405.57 522.65 405.296 521.991 405.706Z" fill="#EEC94D"/>
<path d="M536.453 421.992L541.043 407.414C541.274 406.681 540.819 405.832 540.161 405.626C536.356 404.544 532.262 404.689 528.422 406.169C527.706 406.455 527.389 407.309 527.702 407.998L534.105 422.1C534.589 423.166 536.049 423.121 536.453 421.992Z" fill="#EEC94D"/>
<path d="M539.616 424.895L553.152 418.383C553.874 418.036 554.095 417.206 553.59 416.58C551.179 413.108 547.725 410.5 543.933 408.922C543.224 408.612 542.349 408.96 542.156 409.704L537.684 423.363C537.379 424.451 538.593 425.387 539.616 424.895Z" fill="#EEC94D"/>
<path d="M550.953 422.361L537.407 428.869C536.383 429.36 536.515 430.815 537.622 431.151L552.296 435.597C553.034 435.82 553.845 435.358 554.009 434.701C554.85 430.9 554.463 426.82 552.771 423.006C552.478 422.352 551.616 422.043 550.953 422.361Z" fill="#EEC94D"/>
<path d="M528.429 432.166L523.838 446.743C523.607 447.477 524.063 448.325 524.721 448.532C528.525 449.613 532.619 449.469 536.459 447.988C537.176 447.703 537.493 446.849 537.18 446.159L530.776 432.057C530.235 431.021 528.775 431.066 528.429 432.166Z" fill="#EEC94D"/>
<path d="M536.152 431.888C535.122 431.484 534.146 432.595 534.658 433.723L541.065 447.82C541.407 448.572 542.237 448.846 542.868 448.373C546.367 446.14 549.009 442.799 550.622 439.055C550.939 438.355 550.598 437.449 549.854 437.209L536.152 431.888Z" fill="#EEC94D"/>
<path d="M404.466 469.676C404.466 469.676 407.926 469.578 408.725 466.805C409.524 464.033 409.519 457.097 414.421 452.823C415.699 451.733 416.795 450.798 417.78 449.991C419.931 448.22 421.104 445.54 420.902 442.766C420.74 439.893 421.342 435.895 424.825 432.196C431.192 425.531 429.786 422.674 429.625 419.801C429.464 416.929 438.943 422.059 441.959 432.67C444.974 443.28 438.036 454.013 438.036 454.013C438.036 454.013 436.139 460.985 428.033 467.294C419.999 473.575 413.498 469.928 411.506 469.757C409.585 469.558 407.73 473.167 405.77 472.493C403.982 471.831 404.466 469.676 404.466 469.676Z" fill="#D4E86D"/>
<path d="M441.98 432.746C438.965 422.135 429.456 416.934 429.648 419.877C429.772 421.703 430.383 423.496 429.169 426.274C431.116 427.688 433.544 430.212 435.388 434.851C439.076 444.128 429.913 446.459 428.472 450.636C427.03 454.812 430.686 461.899 421.556 466.42C416.134 469.11 411.699 467.727 408.944 465.989C408.852 466.353 408.8 466.618 408.749 466.884C407.95 469.657 404.49 469.755 404.49 469.755C404.49 469.755 403.977 471.841 405.865 472.544C407.754 473.246 409.608 469.637 411.6 469.808C413.521 470.008 420.022 473.654 428.127 467.345C436.161 461.064 438.129 454.062 438.129 454.062C438.129 454.062 444.925 443.387 441.98 432.746Z" fill="#B5CD5A"/>
<path d="M529.378 368.007C526.742 368.715 527.802 372.678 530.437 371.97C533.051 371.178 532.014 367.299 529.378 368.007Z" fill="#FFF1CE"/>
<path d="M518.333 544.083L518.231 544.111C517.648 544.379 517.334 545.246 517.603 545.844C517.771 546.469 518.373 547.09 519.012 547.03L519.113 547.003C520.085 546.965 520.834 546.093 520.556 545.051C520.277 544.008 519.221 543.733 518.333 544.083Z" fill="#FFF1CE"/>
<path d="M444.093 373.924C441.457 374.632 442.516 378.595 445.152 377.887C447.788 377.179 446.728 373.216 444.093 373.924Z" fill="#FFF1CE"/>
<path d="M405.102 500.153C405.102 500.153 408.486 499.752 409.011 496.904C409.537 494.055 408.959 487.053 413.408 482.348C414.548 481.14 415.576 480.059 416.454 479.206C418.4 477.173 419.367 474.39 418.959 471.678C418.492 468.826 418.752 464.77 421.852 460.783C427.598 453.489 425.885 450.819 425.488 447.938C425.091 445.057 434.883 449.43 438.806 459.832C442.728 470.233 436.822 481.624 436.822 481.624C436.822 481.624 435.573 488.801 428.133 495.803C420.693 502.805 414.005 499.708 412.088 499.672C410.172 499.636 408.628 503.396 406.674 502.881C404.86 502.309 405.102 500.153 405.102 500.153Z" fill="#D4E86D"/>
<path d="M438.875 459.816C434.955 449.409 425.068 444.991 425.565 447.915C425.856 449.771 426.6 451.523 425.692 454.447C427.773 455.65 430.359 458.045 432.603 462.556C437.021 471.606 428.259 474.71 427.195 479.016C426.13 483.321 430.349 490.149 421.787 495.475C416.615 498.669 412.197 497.602 409.316 496.069C409.295 496.407 409.273 496.745 409.221 497.013C408.696 499.863 405.314 500.264 405.314 500.264C405.314 500.264 405.072 502.421 406.955 502.965C408.908 503.48 410.452 499.718 412.367 499.755C414.283 499.791 421.038 502.861 428.404 495.886C435.841 488.881 437.091 481.701 437.091 481.701C437.091 481.701 442.795 470.223 438.875 459.816Z" fill="#B5CD5A"/>
</svg>
