<svg width="40" height="40" viewBox="0 0 40 40" fill="none" xmlns="http://www.w3.org/2000/svg">
<path d="M6.66683 25.8334C5.78277 25.8334 4.93493 25.4822 4.30981 24.857C3.68469 24.2319 3.3335 23.3841 3.3335 22.5C3.3335 21.616 3.68469 20.7681 4.30981 20.143C4.93493 19.5179 5.78277 19.1667 6.66683 19.1667M33.3335 25.8334C34.2176 25.8334 35.0654 25.4822 35.6905 24.857C36.3156 24.2319 36.6668 23.3841 36.6668 22.5C36.6668 21.616 36.3156 20.7681 35.6905 20.143C35.0654 19.5179 34.2176 19.1667 33.3335 19.1667" stroke="#3E9300" stroke-width="1.5" stroke-linecap="round" stroke-linejoin="round"/>
<path d="M11.667 11.6667V6.66669M28.3337 11.6667V6.66669" stroke="#3E9300" stroke-width="1.5" stroke-linejoin="round"/>
<path d="M11.6667 6.66668C12.5871 6.66668 13.3333 5.92049 13.3333 5.00001C13.3333 4.07954 12.5871 3.33334 11.6667 3.33334C10.7462 3.33334 10 4.07954 10 5.00001C10 5.92049 10.7462 6.66668 11.6667 6.66668Z" stroke="#3E9300" stroke-width="1.5" stroke-linejoin="round"/>
<path d="M28.3337 6.66668C29.2541 6.66668 30.0003 5.92049 30.0003 5.00001C30.0003 4.07954 29.2541 3.33334 28.3337 3.33334C27.4132 3.33334 26.667 4.07954 26.667 5.00001C26.667 5.92049 27.4132 6.66668 28.3337 6.66668Z" stroke="#3E9300" stroke-width="1.5" stroke-linejoin="round"/>
<path d="M22.5 11.6667H17.5C12.7867 11.6667 10.4283 11.6667 8.965 13.1817C7.50167 14.6967 7.5 17.135 7.5 22.0117C7.5 26.8884 7.5 29.3267 8.965 30.8417C10.4283 32.3567 12.7867 32.3567 17.5 32.3567H19.2083C20.5283 32.3567 20.9933 32.6284 21.9033 33.6184C22.9083 34.7134 24.465 36.175 25.8733 36.515C27.875 36.9984 28.1 36.33 27.6533 34.4217C27.5267 33.8784 27.2083 33.01 27.5433 32.5034C27.7317 32.22 28.0433 32.15 28.6683 32.01C29.6533 31.79 30.4667 31.43 31.035 30.8417C32.5 29.325 32.5 26.8884 32.5 22.0117C32.5 17.135 32.5 14.6967 31.035 13.1817C29.5717 11.6667 27.2133 11.6667 22.5 11.6667Z" stroke="#3E9300" stroke-width="1.5" stroke-linejoin="round"/>
<path d="M15.8335 25C16.7835 26.0117 18.2968 26.6667 20.0002 26.6667C21.7035 26.6667 23.2168 26.0117 24.1668 25" stroke="#3E9300" stroke-width="1.5" stroke-linecap="round" stroke-linejoin="round"/>
<path d="M15.015 18.3333H15M25.015 18.3333H25" stroke="#3E9300" stroke-width="2" stroke-linecap="round" stroke-linejoin="round"/>
</svg>
