<svg width="171" height="56" viewBox="0 0 171 56" fill="none" xmlns="http://www.w3.org/2000/svg">
<path fill-rule="evenodd" clip-rule="evenodd" d="M31.2419 55.971L31.1991 49.5955C31.1991 47.3679 32.3403 46.4586 33.5566 45.4894C35.1418 44.2262 36.8547 42.8613 36.335 38.3439L34.6262 8.5258C34.57 7.18978 32.9737 7.16496 33.0227 8.50152L32.7627 34.034C32.6307 36.1146 30.177 35.7702 30.255 33.5829L29.9397 8.47286C29.9397 6.97443 28.3889 7.27707 28.3745 8.58355L27.9513 34.1957C27.9019 35.8273 25.5021 35.6686 25.5524 34.1191L25.1929 8.43196C25.1929 7.27258 23.715 7.15829 23.684 8.29414L23.252 34.231C23.1367 36.0025 20.7667 35.7642 20.8894 33.851L20.5927 8.50502C20.6117 7.07396 19.1523 7.14888 19.085 8.50502L17.1508 39.5948C17.1271 43.092 18.527 44.1853 19.8866 45.2471C21.1301 46.2183 22.3399 47.1631 22.396 49.8967L22.3895 56C14.1098 54.7131 7.37361 49.7995 3.27441 43.2184C3.67968 43.0756 4.14808 42.9933 4.66495 42.9853C6.48365 42.9599 8.56216 41.9545 8.56577 39.9638C8.56577 37.8588 6.79398 36.6992 4.29688 36.6466C2.13176 36.5976 0.580096 35.2729 0.423125 33.8247C0.266154 32.324 1.56883 30.943 3.95407 30.787C6.379 30.6218 8.4954 29.3897 8.4954 26.1269C8.4954 22.5937 5.8305 21.6682 3.28288 21.7335C1.93436 21.7685 0.806353 21.231 0 20.3657C0.513906 18.5793 1.21604 16.808 2.11878 15.0738C2.60779 15.1935 3.13662 15.2382 3.69967 15.197C6.6767 14.9792 8.53329 12.5294 8.53329 9.5116C8.53329 8.68085 8.39385 7.89542 8.12966 7.19347C18.621 -2.41948 35.0121 -2.38177 45.4456 7.21038C45.1855 7.90802 45.0483 8.68751 45.0483 9.5116C45.0483 12.5294 46.9049 14.9792 49.882 15.197C50.4293 15.237 50.9442 15.1959 51.4217 15.0836C52.3255 16.8322 53.0258 18.6164 53.5357 20.4143C52.7326 21.2511 51.6218 21.7678 50.2987 21.7335C47.7511 21.6682 45.0862 22.5937 45.0862 26.1269C45.0862 29.3897 47.2026 30.6218 49.6276 30.787C52.0128 30.943 53.3155 32.324 53.1585 33.8247C53.0015 35.2729 51.4499 36.5976 49.2847 36.6466C46.7876 36.6992 45.0159 37.8588 45.0159 39.9638C45.0195 41.9545 47.098 42.9599 48.9167 42.9853C49.3937 42.9927 49.8294 43.0633 50.2123 43.1864C46.1226 49.7395 39.4281 54.6388 31.2419 55.971Z" fill="white"/>
<mask id="path-2-outside-1_2721_1844" maskUnits="userSpaceOnUse" x="68" y="12" width="103" height="21" fill="black">
<rect fill="white" x="68" y="12" width="103" height="21"/>
<path d="M72.096 31.216C71.376 31.216 70.864 31.112 70.56 30.904C70.256 30.68 70.072 30.4 70.008 30.064C69.944 29.712 69.912 29.36 69.912 29.008V16.6C69.912 15.768 70.072 15.2 70.392 14.896C70.728 14.576 71.32 14.416 72.168 14.416H80.952C81.32 14.416 81.664 14.448 81.984 14.512C82.32 14.576 82.592 14.76 82.8 15.064C83.024 15.368 83.136 15.888 83.136 16.624C83.136 17.344 83.024 17.856 82.8 18.16C82.592 18.464 82.32 18.648 81.984 18.712C81.648 18.776 81.296 18.808 80.928 18.808H74.304V20.944H78.744C79.112 20.944 79.44 20.976 79.728 21.04C80.016 21.088 80.248 21.24 80.424 21.496C80.6 21.752 80.688 22.2 80.688 22.84C80.688 23.448 80.6 23.888 80.424 24.16C80.248 24.416 80.008 24.568 79.704 24.616C79.4 24.664 79.064 24.688 78.696 24.688H74.304V26.824H80.952C81.32 26.824 81.664 26.856 81.984 26.92C82.32 26.984 82.592 27.168 82.8 27.472C83.024 27.776 83.136 28.296 83.136 29.032C83.136 29.752 83.024 30.264 82.8 30.568C82.592 30.872 82.32 31.056 81.984 31.12C81.648 31.184 81.296 31.216 80.928 31.216H72.096ZM95.9249 31.168C95.2049 31.168 94.6689 31.048 94.3169 30.808C93.9809 30.568 93.8209 30.296 93.8369 29.992H94.1729C94.0929 30.104 93.9329 30.256 93.6929 30.448C93.4689 30.624 93.1649 30.792 92.7809 30.952C92.3969 31.096 91.9249 31.168 91.3649 31.168C90.6449 31.168 89.9489 31.008 89.2769 30.688C88.6209 30.352 88.0289 29.896 87.5009 29.32C86.9889 28.744 86.5809 28.096 86.2769 27.376C85.9729 26.64 85.8209 25.872 85.8209 25.072C85.8209 24.288 85.9729 23.536 86.2769 22.816C86.5809 22.096 86.9969 21.456 87.5249 20.896C88.0529 20.32 88.6449 19.872 89.3009 19.552C89.9569 19.216 90.6449 19.048 91.3649 19.048C91.9089 19.048 92.3649 19.128 92.7329 19.288C93.1169 19.448 93.4209 19.624 93.6449 19.816C93.8849 20.008 94.0449 20.168 94.1249 20.296H93.8609C93.8449 19.896 94.0049 19.584 94.3409 19.36C94.6929 19.136 95.2289 19.024 95.9489 19.024C96.6689 19.024 97.1729 19.136 97.4609 19.36C97.7649 19.568 97.9489 19.84 98.0129 20.176C98.0769 20.512 98.1089 20.856 98.1089 21.208V29.008C98.1089 29.36 98.0769 29.704 98.0129 30.04C97.9489 30.376 97.7649 30.648 97.4609 30.856C97.1729 31.064 96.6609 31.168 95.9249 31.168ZM91.9649 26.824C92.2689 26.824 92.5409 26.744 92.7809 26.584C93.0369 26.424 93.2369 26.216 93.3809 25.96C93.5409 25.688 93.6209 25.4 93.6209 25.096C93.6209 24.776 93.5409 24.488 93.3809 24.232C93.2369 23.976 93.0369 23.768 92.7809 23.608C92.5249 23.448 92.2369 23.368 91.9169 23.368C91.5969 23.368 91.3009 23.448 91.0289 23.608C90.7729 23.768 90.5649 23.984 90.4049 24.256C90.2449 24.512 90.1649 24.8 90.1649 25.12C90.1649 25.424 90.2449 25.704 90.4049 25.96C90.5809 26.216 90.8049 26.424 91.0769 26.584C91.3489 26.744 91.6449 26.824 91.9649 26.824ZM108.068 31.216C107.22 31.216 106.484 31.12 105.86 30.928C105.236 30.736 104.716 30.44 104.3 30.04C103.9 29.64 103.596 29.136 103.388 28.528C103.196 27.92 103.1 27.208 103.1 26.392V17.08C103.1 16.712 103.132 16.376 103.196 16.072C103.26 15.752 103.444 15.496 103.748 15.304C104.052 15.096 104.564 14.992 105.284 14.992C105.988 14.992 106.492 15.104 106.796 15.328C107.1 15.536 107.284 15.808 107.348 16.144C107.412 16.48 107.444 16.824 107.444 17.176V26.176C107.444 26.352 107.452 26.504 107.468 26.632C107.5 26.744 107.54 26.832 107.588 26.896C107.636 26.96 107.7 27.008 107.78 27.04C107.86 27.072 107.964 27.088 108.092 27.088C108.508 27.088 108.876 27.12 109.196 27.184C109.532 27.248 109.788 27.416 109.964 27.688C110.156 27.96 110.252 28.416 110.252 29.056C110.252 29.776 110.14 30.288 109.916 30.592C109.692 30.896 109.412 31.072 109.076 31.12C108.74 31.184 108.404 31.216 108.068 31.216ZM102.596 19.168H105.404L108.716 19.048C109.068 19.048 109.404 19.08 109.724 19.144C110.06 19.208 110.332 19.392 110.54 19.696C110.764 20 110.876 20.52 110.876 21.256C110.876 21.928 110.764 22.416 110.54 22.72C110.332 23.024 110.06 23.216 109.724 23.296C109.404 23.376 109.06 23.416 108.692 23.416L105.644 23.344H102.5C101.956 23.312 101.58 23.136 101.372 22.816C101.164 22.496 101.06 21.968 101.06 21.232C101.06 20.544 101.188 20.032 101.444 19.696C101.7 19.344 102.084 19.168 102.596 19.168ZM119.413 31.192C118.901 31.192 118.501 31.088 118.213 30.88C117.925 30.672 117.717 30.448 117.589 30.208C117.461 29.952 117.381 29.784 117.349 29.704L113.029 17.32C112.789 16.52 112.749 15.928 112.909 15.544C113.085 15.144 113.589 14.808 114.421 14.536C114.965 14.36 115.405 14.28 115.741 14.296C116.077 14.312 116.357 14.448 116.581 14.704C116.805 14.96 117.005 15.36 117.181 15.904L119.677 23.2L121.645 16.024C121.693 15.864 121.773 15.656 121.885 15.4C122.013 15.144 122.221 14.92 122.509 14.728C122.797 14.52 123.213 14.416 123.757 14.416C124.365 14.416 124.813 14.528 125.101 14.752C125.405 14.976 125.613 15.216 125.725 15.472C125.837 15.728 125.917 15.92 125.965 16.048L127.933 23.248L130.429 15.904C130.605 15.376 130.797 14.984 131.005 14.728C131.229 14.456 131.517 14.304 131.869 14.272C132.221 14.24 132.669 14.32 133.213 14.512C133.789 14.72 134.197 14.944 134.437 15.184C134.677 15.408 134.797 15.688 134.797 16.024C134.813 16.36 134.741 16.792 134.581 17.32L130.285 29.704C130.253 29.8 130.173 29.968 130.045 30.208C129.933 30.448 129.733 30.672 129.445 30.88C129.157 31.088 128.741 31.192 128.197 31.192C127.653 31.192 127.229 31.072 126.925 30.832C126.621 30.576 126.405 30.32 126.277 30.064C126.149 29.792 126.077 29.632 126.061 29.584L123.805 22.192L121.549 29.56C121.533 29.64 121.461 29.816 121.333 30.088C121.205 30.344 120.989 30.592 120.685 30.832C120.397 31.072 119.973 31.192 119.413 31.192ZM139.461 31.216C138.741 31.216 138.229 31.112 137.925 30.904C137.621 30.68 137.437 30.4 137.373 30.064C137.325 29.728 137.301 29.384 137.301 29.032V21.208C137.301 20.856 137.333 20.52 137.397 20.2C137.461 19.864 137.645 19.592 137.949 19.384C138.253 19.16 138.765 19.048 139.485 19.048C140.205 19.048 140.709 19.16 140.997 19.384C141.301 19.592 141.485 19.864 141.549 20.2C141.613 20.536 141.645 20.888 141.645 21.256V29.056C141.645 29.408 141.613 29.752 141.549 30.088C141.485 30.424 141.301 30.696 140.997 30.904C140.709 31.112 140.197 31.216 139.461 31.216ZM139.461 17.872C138.741 17.872 138.229 17.768 137.925 17.56C137.621 17.336 137.437 17.056 137.373 16.72C137.325 16.384 137.301 16.04 137.301 15.688C137.301 15.32 137.333 14.976 137.397 14.656C137.461 14.32 137.645 14.048 137.949 13.84C138.253 13.632 138.765 13.528 139.485 13.528C140.205 13.528 140.709 13.64 140.997 13.864C141.301 14.072 141.485 14.344 141.549 14.68C141.613 15.016 141.645 15.36 141.645 15.712C141.645 16.064 141.613 16.408 141.549 16.744C141.485 17.08 141.301 17.352 140.997 17.56C140.709 17.768 140.197 17.872 139.461 17.872ZM149.74 31.432C149.292 31.432 148.788 31.376 148.228 31.264C147.684 31.168 147.148 31.024 146.62 30.832C146.108 30.624 145.684 30.384 145.348 30.112C145.012 29.84 144.844 29.528 144.844 29.176C144.844 29.016 144.876 28.84 144.94 28.648C145.02 28.44 145.124 28.216 145.252 27.976C145.38 27.736 145.54 27.48 145.732 27.208C145.844 27.048 145.972 26.928 146.116 26.848C146.276 26.768 146.46 26.728 146.668 26.728C146.956 26.728 147.236 26.792 147.508 26.92C147.78 27.032 148.052 27.168 148.324 27.328C148.596 27.472 148.876 27.608 149.164 27.736C149.468 27.848 149.788 27.904 150.124 27.904C150.428 27.904 150.652 27.872 150.796 27.808C150.956 27.744 151.036 27.648 151.036 27.52C151.036 27.392 150.98 27.288 150.868 27.208C150.772 27.128 150.628 27.064 150.436 27.016C150.26 26.952 150.052 26.896 149.812 26.848C149.572 26.8 149.316 26.744 149.044 26.68C148.772 26.616 148.492 26.536 148.204 26.44C147.836 26.328 147.476 26.184 147.124 26.008C146.772 25.816 146.452 25.568 146.164 25.264C145.892 24.96 145.668 24.592 145.492 24.16C145.332 23.728 145.252 23.2 145.252 22.576C145.252 21.744 145.444 21.048 145.828 20.488C146.212 19.928 146.78 19.504 147.532 19.216C148.284 18.928 149.212 18.784 150.316 18.784C150.588 18.784 150.86 18.8 151.132 18.832C151.404 18.864 151.676 18.912 151.948 18.976C152.236 19.04 152.516 19.128 152.788 19.24C153.076 19.336 153.364 19.448 153.652 19.576C154.244 19.832 154.548 20.192 154.564 20.656C154.58 21.104 154.412 21.576 154.06 22.072C153.868 22.376 153.668 22.608 153.46 22.768C153.268 22.912 153.068 22.984 152.86 22.984C152.604 22.984 152.324 22.912 152.02 22.768C151.716 22.624 151.396 22.48 151.06 22.336C150.724 22.192 150.388 22.12 150.052 22.12C149.86 22.12 149.692 22.144 149.548 22.192C149.42 22.224 149.324 22.28 149.26 22.36C149.196 22.424 149.164 22.504 149.164 22.6C149.164 22.776 149.22 22.92 149.332 23.032C149.46 23.128 149.62 23.208 149.812 23.272C150.02 23.336 150.252 23.392 150.508 23.44C150.78 23.488 151.068 23.536 151.372 23.584C151.788 23.648 152.212 23.752 152.644 23.896C153.092 24.024 153.5 24.216 153.868 24.472C154.236 24.728 154.532 25.08 154.756 25.528C154.98 25.976 155.092 26.56 155.092 27.28C155.092 28.64 154.636 29.672 153.724 30.376C152.828 31.08 151.5 31.432 149.74 31.432ZM164.365 31.48C163.165 31.48 162.149 31.288 161.317 30.904C160.485 30.504 159.813 29.992 159.301 29.368C158.789 28.728 158.413 28.04 158.173 27.304C157.933 26.568 157.813 25.856 157.813 25.168C157.813 23.904 158.093 22.792 158.653 21.832C159.213 20.872 159.989 20.12 160.981 19.576C161.973 19.032 163.109 18.76 164.389 18.76C165.381 18.76 166.229 18.92 166.933 19.24C167.637 19.56 168.205 19.968 168.637 20.464C169.085 20.96 169.413 21.488 169.621 22.048C169.829 22.608 169.933 23.128 169.933 23.608C169.933 24.52 169.709 25.216 169.261 25.696C168.813 26.176 168.237 26.416 167.533 26.416H162.421C162.485 26.672 162.613 26.896 162.805 27.088C163.013 27.264 163.269 27.408 163.573 27.52C163.877 27.616 164.205 27.664 164.557 27.664C164.909 27.664 165.221 27.648 165.493 27.616C165.765 27.568 165.997 27.512 166.189 27.448C166.397 27.384 166.581 27.32 166.741 27.256C166.917 27.192 167.069 27.144 167.197 27.112C167.341 27.064 167.477 27.04 167.605 27.04C167.893 27.04 168.157 27.136 168.397 27.328C168.637 27.52 168.853 27.808 169.045 28.192C169.157 28.4 169.237 28.6 169.285 28.792C169.333 28.968 169.357 29.136 169.357 29.296C169.357 29.776 169.157 30.176 168.757 30.496C168.373 30.816 167.813 31.056 167.077 31.216C166.341 31.392 165.437 31.48 164.365 31.48ZM162.421 24.16H165.109C165.333 24.16 165.493 24.112 165.589 24.016C165.701 23.92 165.757 23.776 165.757 23.584C165.757 23.376 165.693 23.2 165.565 23.056C165.453 22.912 165.293 22.808 165.085 22.744C164.877 22.664 164.629 22.624 164.341 22.624C163.957 22.624 163.621 22.704 163.333 22.864C163.045 23.008 162.821 23.2 162.661 23.44C162.517 23.664 162.437 23.904 162.421 24.16Z"/>
</mask>
<path d="M70.56 30.904L69.9668 31.7091L69.9809 31.7194L69.9953 31.7293L70.56 30.904ZM70.008 30.064L69.0241 30.2429L69.0257 30.2511L70.008 30.064ZM70.392 14.896L71.0807 15.621L71.0817 15.6201L70.392 14.896ZM81.984 14.512L81.7879 15.4926L81.7969 15.4943L81.984 14.512ZM82.8 15.064L81.9747 15.6287L81.9846 15.6431L81.9949 15.6572L82.8 15.064ZM82.8 18.16L81.9949 17.5668L81.9846 17.5809L81.9747 17.5953L82.8 18.16ZM81.984 18.712L81.7969 17.7297H81.7969L81.984 18.712ZM74.304 18.808V17.808H73.304V18.808H74.304ZM74.304 20.944H73.304V21.944H74.304V20.944ZM79.728 21.04L79.5111 22.0162L79.5372 22.022L79.5636 22.0264L79.728 21.04ZM80.424 21.496L79.6 22.0625L79.6 22.0625L80.424 21.496ZM80.424 24.16L81.248 24.7265L81.256 24.715L81.2636 24.7033L80.424 24.16ZM79.704 24.616L79.86 25.6038H79.86L79.704 24.616ZM74.304 24.688V23.688H73.304V24.688H74.304ZM74.304 26.824H73.304V27.824H74.304V26.824ZM81.984 26.92L81.7879 27.9006L81.7969 27.9023L81.984 26.92ZM82.8 27.472L81.9747 28.0367L81.9846 28.0511L81.9949 28.0652L82.8 27.472ZM82.8 30.568L81.9949 29.9748L81.9846 29.9889L81.9747 30.0033L82.8 30.568ZM81.984 31.12L81.7969 30.1377H81.7969L81.984 31.12ZM72.096 31.216V30.216C71.4163 30.216 71.1663 30.1071 71.1247 30.0787L70.56 30.904L69.9953 31.7293C70.5617 32.1169 71.3357 32.216 72.096 32.216V31.216ZM70.56 30.904L71.1532 30.0989C71.0293 30.0076 71.0021 29.9386 70.9903 29.8769L70.008 30.064L69.0257 30.2511C69.1419 30.8614 69.4827 31.3524 69.9668 31.7091L70.56 30.904ZM70.008 30.064L70.9919 29.8851C70.9384 29.5912 70.912 29.299 70.912 29.008H69.912H68.912C68.912 29.421 68.9496 29.8328 69.0241 30.2429L70.008 30.064ZM69.912 29.008H70.912V16.6H69.912H68.912V29.008H69.912ZM69.912 16.6H70.912C70.912 16.2414 70.9472 15.9891 70.9945 15.8211C71.0417 15.6538 71.088 15.6141 71.0807 15.621L70.392 14.896L69.7033 14.171C69.0681 14.7744 68.912 15.7123 68.912 16.6H69.912ZM70.392 14.896L71.0817 15.6201C71.1284 15.5756 71.3854 15.416 72.168 15.416V14.416V13.416C71.2546 13.416 70.3276 13.5764 69.7023 14.1719L70.392 14.896ZM72.168 14.416V15.416H80.952V14.416V13.416H72.168V14.416ZM80.952 14.416V15.416C81.2623 15.416 81.54 15.443 81.7879 15.4926L81.984 14.512L82.1801 13.5314C81.788 13.453 81.3777 13.416 80.952 13.416V14.416ZM81.984 14.512L81.7969 15.4943C81.8521 15.5049 81.9032 15.5242 81.9747 15.6287L82.8 15.064L83.6253 14.4993C83.2808 13.9958 82.7879 13.6471 82.1711 13.5297L81.984 14.512ZM82.8 15.064L81.9949 15.6572C81.9941 15.656 82.0049 15.6705 82.021 15.7101C82.0372 15.7498 82.0564 15.809 82.0744 15.8926C82.1111 16.0627 82.136 16.302 82.136 16.624H83.136H84.136C84.136 15.8458 84.0292 15.0464 83.6051 14.4708L82.8 15.064ZM83.136 16.624H82.136C82.136 17.2959 82.0206 17.532 81.9949 17.5668L82.8 18.16L83.6051 18.7532C84.0274 18.18 84.136 17.3921 84.136 16.624H83.136ZM82.8 18.16L81.9747 17.5953C81.9032 17.6998 81.8521 17.7191 81.7969 17.7297L81.984 18.712L82.1711 19.6943C82.7879 19.5769 83.2808 19.2282 83.6253 18.7247L82.8 18.16ZM81.984 18.712L81.7969 17.7297C81.527 17.7811 81.2379 17.808 80.928 17.808V18.808V19.808C81.3541 19.808 81.769 19.7709 82.1711 19.6943L81.984 18.712ZM80.928 18.808V17.808H74.304V18.808V19.808H80.928V18.808ZM74.304 18.808H73.304V20.944H74.304H75.304V18.808H74.304ZM74.304 20.944V21.944H78.744V20.944V19.944H74.304V20.944ZM78.744 20.944V21.944C79.0561 21.944 79.3092 21.9713 79.5111 22.0162L79.728 21.04L79.9449 20.0638C79.5708 19.9807 79.1679 19.944 78.744 19.944V20.944ZM79.728 21.04L79.5636 22.0264C79.5723 22.0278 79.5754 22.0292 79.5745 22.0288C79.5735 22.0285 79.5716 22.0275 79.57 22.0265C79.5684 22.0254 79.5699 22.0261 79.5744 22.0306C79.579 22.0353 79.5879 22.045 79.6 22.0625L80.424 21.496L81.248 20.9295C80.9292 20.4658 80.4667 20.1493 79.8924 20.0536L79.728 21.04ZM80.424 21.496L79.6 22.0625C79.5831 22.038 79.6118 22.0692 79.6408 22.2167C79.6684 22.3577 79.688 22.5611 79.688 22.84H80.688H81.688C81.688 22.1729 81.6087 21.454 81.248 20.9295L80.424 21.496ZM80.688 22.84H79.688C79.688 23.0997 79.6689 23.2926 79.6414 23.4299C79.6133 23.5706 79.5831 23.6188 79.5844 23.6167L80.424 24.16L81.2636 24.7033C81.6017 24.1807 81.688 23.4972 81.688 22.84H80.688ZM80.424 24.16L79.6 23.5935C79.59 23.6079 79.5829 23.6155 79.5798 23.6186C79.5768 23.6215 79.5759 23.6218 79.5769 23.6212C79.578 23.6205 79.5778 23.6209 79.5749 23.6219C79.5719 23.623 79.5635 23.6258 79.548 23.6282L79.704 24.616L79.86 25.6038C80.4379 25.5125 80.9182 25.2062 81.248 24.7265L80.424 24.16ZM79.704 24.616L79.548 23.6282C79.3045 23.6667 79.0215 23.688 78.696 23.688V24.688V25.688C79.1065 25.688 79.4955 25.6613 79.86 25.6038L79.704 24.616ZM78.696 24.688V23.688H74.304V24.688V25.688H78.696V24.688ZM74.304 24.688H73.304V26.824H74.304H75.304V24.688H74.304ZM74.304 26.824V27.824H80.952V26.824V25.824H74.304V26.824ZM80.952 26.824V27.824C81.2623 27.824 81.54 27.851 81.7879 27.9006L81.984 26.92L82.1801 25.9394C81.788 25.861 81.3777 25.824 80.952 25.824V26.824ZM81.984 26.92L81.7969 27.9023C81.8521 27.9129 81.9032 27.9322 81.9747 28.0367L82.8 27.472L83.6253 26.9073C83.2808 26.4038 82.7879 26.0551 82.1711 25.9377L81.984 26.92ZM82.8 27.472L81.9949 28.0652C81.9941 28.064 82.0049 28.0785 82.021 28.1181C82.0372 28.1578 82.0564 28.217 82.0744 28.3006C82.1111 28.4707 82.136 28.71 82.136 29.032H83.136H84.136C84.136 28.2538 84.0292 27.4544 83.6051 26.8788L82.8 27.472ZM83.136 29.032H82.136C82.136 29.7039 82.0206 29.94 81.9949 29.9748L82.8 30.568L83.6051 31.1612C84.0274 30.588 84.136 29.8001 84.136 29.032H83.136ZM82.8 30.568L81.9747 30.0033C81.9032 30.1078 81.8521 30.1271 81.7969 30.1377L81.984 31.12L82.1711 32.1023C82.7879 31.9849 83.2808 31.6362 83.6253 31.1327L82.8 30.568ZM81.984 31.12L81.7969 30.1377C81.527 30.1891 81.2379 30.216 80.928 30.216V31.216V32.216C81.3541 32.216 81.769 32.1789 82.1711 32.1023L81.984 31.12ZM80.928 31.216V30.216H72.096V31.216V32.216H80.928V31.216ZM94.3169 30.808L93.7357 31.6217L93.7446 31.6281L93.7536 31.6342L94.3169 30.808ZM93.8369 29.992V28.992H92.8882L92.8383 29.9394L93.8369 29.992ZM94.1729 29.992L94.9867 30.5732L96.1161 28.992H94.1729V29.992ZM93.6929 30.448L94.3108 31.2343L94.3176 31.2289L93.6929 30.448ZM92.7809 30.952L93.1321 31.8883L93.1489 31.882L93.1656 31.8751L92.7809 30.952ZM89.2769 30.688L88.8211 31.578L88.8339 31.5846L88.847 31.5909L89.2769 30.688ZM87.5009 29.32L86.7535 29.9844L86.7586 29.9901L86.7638 29.9957L87.5009 29.32ZM86.2769 27.376L85.3526 27.7578L85.3557 27.765L86.2769 27.376ZM86.2769 22.816L85.3557 22.427V22.427L86.2769 22.816ZM87.5249 20.896L88.2526 21.5821L88.2621 21.5717L87.5249 20.896ZM89.3009 19.552L89.7394 20.4508L89.7481 20.4465L89.7568 20.442L89.3009 19.552ZM92.7329 19.288L92.3342 20.2051L92.3412 20.2081L92.3483 20.2111L92.7329 19.288ZM93.6449 19.816L92.9941 20.5753L93.007 20.5863L93.0202 20.5969L93.6449 19.816ZM94.1249 20.296V21.296H95.9292L94.9729 19.766L94.1249 20.296ZM93.8609 20.296L92.8617 20.336L92.9001 21.296H93.8609V20.296ZM94.3409 19.36L93.8041 18.5163L93.7951 18.522L93.7862 18.5279L94.3409 19.36ZM97.4609 19.36L96.847 20.1494L96.8711 20.1681L96.8963 20.1853L97.4609 19.36ZM98.0129 20.176L97.0306 20.3631V20.3631L98.0129 20.176ZM98.0129 30.04L97.0306 29.8529V29.8529L98.0129 30.04ZM97.4609 30.856L96.8963 30.0307L96.8858 30.0379L96.8754 30.0453L97.4609 30.856ZM92.7809 26.584L92.2509 25.736L92.2385 25.7438L92.2262 25.7519L92.7809 26.584ZM93.3809 25.96L92.519 25.453L92.5141 25.4613L92.5094 25.4697L93.3809 25.96ZM93.3809 24.232L92.5094 24.7223L92.5207 24.7424L92.5329 24.762L93.3809 24.232ZM92.7809 23.608L93.3109 22.76H93.3109L92.7809 23.608ZM91.0289 23.608L90.5219 22.7461L90.5103 22.7529L90.4989 22.76L91.0289 23.608ZM90.4049 24.256L91.2529 24.786L91.2601 24.7746L91.2669 24.763L90.4049 24.256ZM90.4049 25.96L89.5569 26.49L89.5685 26.5085L89.5809 26.5265L90.4049 25.96ZM91.0769 26.584L91.584 25.7221V25.7221L91.0769 26.584ZM95.9249 31.168V30.168C95.2818 30.168 94.9869 30.0545 94.8803 29.9818L94.3169 30.808L93.7536 31.6342C94.3509 32.0415 95.1281 32.168 95.9249 32.168V31.168ZM94.3169 30.808L94.8982 29.9943C94.8558 29.964 94.8302 29.9407 94.8162 29.9262C94.8024 29.912 94.8018 29.9084 94.8069 29.917C94.8124 29.9263 94.8214 29.9449 94.8281 29.9715C94.8348 29.9983 94.8366 30.0239 94.8356 30.0446L93.8369 29.992L92.8383 29.9394C92.7983 30.7006 93.2317 31.2618 93.7357 31.6217L94.3169 30.808ZM93.8369 29.992V30.992H94.1729V29.992V28.992H93.8369V29.992ZM94.1729 29.992L93.3592 29.4108C93.3715 29.3936 93.3621 29.41 93.3042 29.465C93.2509 29.5156 93.174 29.5825 93.0682 29.6671L93.6929 30.448L94.3176 31.2289C94.5634 31.0323 94.8197 30.807 94.9867 30.5732L94.1729 29.992ZM93.6929 30.448L93.0751 29.6617C92.9468 29.7625 92.7314 29.8893 92.3963 30.0289L92.7809 30.952L93.1656 31.8751C93.5985 31.6947 93.9911 31.4855 94.3108 31.2343L93.6929 30.448ZM92.7809 30.952L92.4298 30.0157C92.1909 30.1053 91.8459 30.168 91.3649 30.168V31.168V32.168C92.004 32.168 92.603 32.0867 93.1321 31.8883L92.7809 30.952ZM91.3649 31.168V30.168C90.7988 30.168 90.2492 30.0434 89.7069 29.7851L89.2769 30.688L88.847 31.5909C89.6486 31.9726 90.4911 32.168 91.3649 32.168V31.168ZM89.2769 30.688L89.7328 29.798C89.1888 29.5193 88.6907 29.138 88.2381 28.6443L87.5009 29.32L86.7638 29.9957C87.3672 30.654 88.0531 31.1847 88.8211 31.578L89.2769 30.688ZM87.5009 29.32L88.2483 28.6556C87.81 28.1625 87.4603 27.6078 87.1982 26.987L86.2769 27.376L85.3557 27.765C85.7016 28.5842 86.1679 29.3255 86.7535 29.9844L87.5009 29.32ZM86.2769 27.376L87.2012 26.9942C86.9474 26.3799 86.8209 25.7416 86.8209 25.072H85.8209H84.8209C84.8209 26.0024 84.9984 26.9001 85.3527 27.7578L86.2769 27.376ZM85.8209 25.072H86.8209C86.8209 24.4212 86.9463 23.8015 87.1982 23.205L86.2769 22.816L85.3557 22.427C84.9995 23.2705 84.8209 24.1548 84.8209 25.072H85.8209ZM86.2769 22.816L87.1982 23.205C87.4566 22.593 87.8075 22.054 88.2525 21.582L87.5249 20.896L86.7973 20.21C86.1863 20.858 85.7053 21.599 85.3557 22.427L86.2769 22.816ZM87.5249 20.896L88.2621 21.5717C88.7114 21.0816 89.2038 20.712 89.7394 20.4508L89.3009 19.552L88.8625 18.6532C88.0861 19.032 87.3945 19.5584 86.7878 20.2203L87.5249 20.896ZM89.3009 19.552L89.7568 20.442C90.2752 20.1765 90.8073 20.048 91.3649 20.048V19.048V18.048C90.4826 18.048 89.6387 18.2555 88.8451 18.662L89.3009 19.552ZM91.3649 19.048V20.048C91.8177 20.048 92.1283 20.1155 92.3342 20.2051L92.7329 19.288L93.1317 18.3709C92.6016 18.1405 92.0002 18.048 91.3649 18.048V19.048ZM92.7329 19.288L92.3483 20.2111C92.6719 20.3459 92.875 20.4731 92.9941 20.5753L93.6449 19.816L94.2957 19.0567C93.9669 18.7749 93.5619 18.5501 93.1176 18.3649L92.7329 19.288ZM93.6449 19.816L93.0202 20.5969C93.1209 20.6774 93.1913 20.7405 93.2378 20.7871C93.288 20.8373 93.2916 20.8495 93.2769 20.826L94.1249 20.296L94.9729 19.766C94.7987 19.4872 94.5259 19.2402 94.2696 19.0351L93.6449 19.816ZM94.1249 20.296V19.296H93.8609V20.296V21.296H94.1249V20.296ZM93.8609 20.296L94.8601 20.256C94.859 20.2279 94.8615 20.2139 94.8621 20.2107C94.8626 20.2083 94.862 20.2119 94.8588 20.2183C94.8555 20.2247 94.8532 20.2266 94.8559 20.2237C94.8591 20.2203 94.8704 20.2089 94.8956 20.192L94.3409 19.36L93.7862 18.5279C93.1633 18.9432 92.8317 19.584 92.8617 20.336L93.8609 20.296ZM94.3409 19.36L94.8778 20.2037C94.9908 20.1317 95.2975 20.024 95.9489 20.024V19.024V18.024C95.1604 18.024 94.395 18.1403 93.8041 18.5163L94.3409 19.36ZM95.9489 19.024V20.024C96.2622 20.024 96.491 20.0488 96.65 20.0842C96.8134 20.1205 96.858 20.1579 96.847 20.1494L97.4609 19.36L98.0749 18.5706C97.5074 18.1293 96.7083 18.024 95.9489 18.024V19.024ZM97.4609 19.36L96.8963 20.1853C97.0007 20.2568 97.0201 20.3079 97.0306 20.3631L98.0129 20.176L98.9953 19.9889C98.8778 19.3721 98.5292 18.8792 98.0256 18.5347L97.4609 19.36ZM98.0129 20.176L97.0306 20.3631C97.0825 20.6357 97.1089 20.917 97.1089 21.208H98.1089H99.1089C99.1089 20.795 99.0714 20.3883 98.9953 19.9889L98.0129 20.176ZM98.1089 21.208H97.1089V29.008H98.1089H99.1089V21.208H98.1089ZM98.1089 29.008H97.1089C97.1089 29.299 97.0825 29.5803 97.0306 29.8529L98.0129 30.04L98.9953 30.2271C99.0714 29.8277 99.1089 29.421 99.1089 29.008H98.1089ZM98.0129 30.04L97.0306 29.8529C97.0201 29.9081 97.0007 29.9592 96.8963 30.0307L97.4609 30.856L98.0256 31.6813C98.5292 31.3368 98.8778 30.8439 98.9953 30.2271L98.0129 30.04ZM97.4609 30.856L96.8754 30.0453C96.8878 30.0364 96.8386 30.0741 96.6619 30.11C96.4919 30.1445 96.2509 30.168 95.9249 30.168V31.168V32.168C96.6867 32.168 97.4828 32.0737 98.0464 31.6667L97.4609 30.856ZM91.9649 26.824V27.824C92.4551 27.824 92.9223 27.6916 93.3356 27.416L92.7809 26.584L92.2262 25.7519C92.1596 25.7964 92.0827 25.824 91.9649 25.824V26.824ZM92.7809 26.584L93.3109 27.432C93.7048 27.1858 94.0241 26.8564 94.2525 26.4503L93.3809 25.96L92.5094 25.4697C92.4498 25.5756 92.369 25.6622 92.2509 25.736L92.7809 26.584ZM93.3809 25.96L94.2429 26.467C94.4897 26.0475 94.6209 25.5853 94.6209 25.096H93.6209H92.6209C92.6209 25.2147 92.5922 25.3285 92.519 25.453L93.3809 25.96ZM93.6209 25.096H94.6209C94.6209 24.6003 94.4943 24.1266 94.2289 23.702L93.3809 24.232L92.5329 24.762C92.5876 24.8494 92.6209 24.9517 92.6209 25.096H93.6209ZM93.3809 24.232L94.2525 23.7417C94.0241 23.3356 93.7048 23.0062 93.3109 22.76L92.7809 23.608L92.2509 24.456C92.369 24.5298 92.4498 24.6164 92.5094 24.7223L93.3809 24.232ZM92.7809 23.608L93.3109 22.76C92.8863 22.4946 92.4126 22.368 91.9169 22.368V23.368V24.368C92.0613 24.368 92.1636 24.4014 92.2509 24.456L92.7809 23.608ZM91.9169 23.368V22.368C91.4213 22.368 90.9498 22.4943 90.5219 22.7461L91.0289 23.608L91.536 24.4699C91.652 24.4017 91.7726 24.368 91.9169 24.368V23.368ZM91.0289 23.608L90.4989 22.76C90.1002 23.0092 89.7808 23.3448 89.543 23.749L90.4049 24.256L91.2669 24.763C91.3491 24.6232 91.4457 24.5268 91.5589 24.456L91.0289 23.608ZM90.4049 24.256L89.5569 23.726C89.2916 24.1506 89.1649 24.6243 89.1649 25.12H90.1649H91.1649C91.1649 24.9757 91.1983 24.8734 91.2529 24.786L90.4049 24.256ZM90.1649 25.12H89.1649C89.1649 25.61 89.2969 26.0739 89.5569 26.49L90.4049 25.96L91.2529 25.43C91.193 25.3341 91.1649 25.238 91.1649 25.12H90.1649ZM90.4049 25.96L89.5809 26.5265C89.841 26.9049 90.174 27.213 90.5699 27.4459L91.0769 26.584L91.584 25.7221C91.4359 25.635 91.3208 25.5271 91.229 25.3935L90.4049 25.96ZM91.0769 26.584L90.5699 27.4459C90.9978 27.6977 91.4693 27.824 91.9649 27.824V26.824V25.824C91.8206 25.824 91.7 25.7903 91.584 25.7221L91.0769 26.584ZM104.3 30.04L103.593 30.7471L103.6 30.754L103.607 30.7608L104.3 30.04ZM103.388 28.528L102.435 28.8291L102.438 28.8405L102.442 28.8517L103.388 28.528ZM103.196 16.072L104.175 16.278L104.177 16.2681L103.196 16.072ZM103.748 15.304L104.282 16.1495L104.298 16.1397L104.313 16.1293L103.748 15.304ZM106.796 15.328L106.203 16.1331L106.217 16.1434L106.232 16.1533L106.796 15.328ZM107.348 16.144L106.366 16.3311V16.3311L107.348 16.144ZM107.468 26.632L106.476 26.756L106.486 26.8326L106.507 26.9067L107.468 26.632ZM107.588 26.896L106.788 27.496L106.788 27.496L107.588 26.896ZM109.196 27.184L109 28.1646L109.009 28.1663L109.196 27.184ZM109.964 27.688L109.125 28.2313L109.136 28.2482L109.147 28.2647L109.964 27.688ZM109.916 30.592L110.721 31.1852L109.916 30.592ZM109.076 31.12L108.935 30.1301L108.912 30.1333L108.889 30.1377L109.076 31.12ZM105.404 19.168V20.168H105.422L105.441 20.1673L105.404 19.168ZM108.716 19.048V18.048H108.698L108.68 18.0487L108.716 19.048ZM109.724 19.144L109.528 20.1246L109.537 20.1263L109.724 19.144ZM110.54 19.696L109.715 20.2607L109.725 20.2751L109.735 20.2892L110.54 19.696ZM110.54 22.72L109.735 22.1268L109.725 22.1409L109.715 22.1553L110.54 22.72ZM109.724 23.296L109.493 22.3231L109.482 22.3259L109.724 23.296ZM108.692 23.416L108.669 24.4157L108.681 24.416H108.692V23.416ZM105.644 23.344L105.668 22.3443L105.656 22.344H105.644V23.344ZM102.5 23.344L102.442 24.3423L102.471 24.344H102.5V23.344ZM101.372 22.816L102.211 22.271V22.271L101.372 22.816ZM101.444 19.696L102.24 20.302L102.246 20.2932L102.253 20.2842L101.444 19.696ZM108.068 31.216V30.216C107.292 30.216 106.66 30.1277 106.154 29.9722L105.86 30.928L105.566 31.8838C106.309 32.1123 107.149 32.216 108.068 32.216V31.216ZM105.86 30.928L106.154 29.9722C105.66 29.8201 105.283 29.5972 104.993 29.3192L104.3 30.04L103.607 30.7608C104.15 31.2828 104.812 31.6519 105.566 31.8838L105.86 30.928ZM104.3 30.04L105.007 29.3329C104.729 29.0546 104.5 28.6877 104.334 28.2043L103.388 28.528L102.442 28.8517C102.693 29.5843 103.071 30.2254 103.593 30.7471L104.3 30.04ZM103.388 28.528L104.342 28.2269C104.188 27.7391 104.1 27.1329 104.1 26.392H103.1H102.1C102.1 27.2831 102.205 28.1009 102.435 28.8291L103.388 28.528ZM103.1 26.392H104.1V17.08H103.1H102.1V26.392H103.1ZM103.1 17.08H104.1C104.1 16.7689 104.127 16.5032 104.175 16.278L103.196 16.072L102.218 15.866C102.137 16.2488 102.1 16.6551 102.1 17.08H103.1ZM103.196 16.072L104.177 16.2681C104.181 16.2454 104.184 16.2118 104.282 16.1495L103.748 15.304L103.214 14.4585C102.705 14.7802 102.339 15.2586 102.216 15.8759L103.196 16.072ZM103.748 15.304L104.313 16.1293C104.355 16.1009 104.605 15.992 105.284 15.992V14.992V13.992C104.524 13.992 103.75 14.0911 103.184 14.4787L103.748 15.304ZM105.284 14.992V15.992C105.934 15.992 106.166 16.1055 106.203 16.1331L106.796 15.328L107.39 14.5229C106.819 14.1025 106.042 13.992 105.284 13.992V14.992ZM106.796 15.328L106.232 16.1533C106.336 16.2248 106.355 16.2759 106.366 16.3311L107.348 16.144L108.331 15.9569C108.213 15.3401 107.865 14.8472 107.361 14.5027L106.796 15.328ZM107.348 16.144L106.366 16.3311C106.418 16.6037 106.444 16.885 106.444 17.176H107.444H108.444C108.444 16.763 108.407 16.3563 108.331 15.9569L107.348 16.144ZM107.444 17.176H106.444V26.176H107.444H108.444V17.176H107.444ZM107.444 26.176H106.444C106.444 26.3797 106.453 26.5751 106.476 26.756L107.468 26.632L108.461 26.508C108.451 26.4328 108.444 26.3243 108.444 26.176H107.444ZM107.468 26.632L106.507 26.9067C106.558 27.0873 106.642 27.3006 106.788 27.496L107.588 26.896L108.388 26.296C108.416 26.3324 108.429 26.3595 108.433 26.3682C108.437 26.3772 108.435 26.375 108.43 26.3573L107.468 26.632ZM107.588 26.896L106.788 27.496C106.955 27.718 107.172 27.8738 107.409 27.9685L107.78 27.04L108.152 26.1115C108.228 26.1422 108.318 26.202 108.388 26.296L107.588 26.896ZM107.78 27.04L107.409 27.9685C107.65 28.0648 107.893 28.088 108.092 28.088V27.088V26.088C108.069 26.088 108.063 26.0864 108.07 26.0876C108.078 26.0887 108.108 26.0939 108.152 26.1115L107.78 27.04ZM108.092 27.088V28.088C108.459 28.088 108.76 28.1164 109 28.1646L109.196 27.184L109.392 26.2034C108.993 26.1236 108.557 26.088 108.092 26.088V27.088ZM109.196 27.184L109.009 28.1663C109.063 28.1766 109.086 28.19 109.092 28.194C109.097 28.1974 109.108 28.2051 109.125 28.2313L109.964 27.688L110.804 27.1447C110.47 26.6295 109.971 26.3136 109.383 26.2017L109.196 27.184ZM109.964 27.688L109.147 28.2647C109.14 28.2544 109.171 28.2957 109.202 28.44C109.231 28.5805 109.252 28.7815 109.252 29.056H110.252H111.252C111.252 28.3709 111.16 27.648 110.781 27.1113L109.964 27.688ZM110.252 29.056H109.252C109.252 29.7279 109.137 29.964 109.111 29.9988L109.916 30.592L110.721 31.1852C111.144 30.612 111.252 29.8241 111.252 29.056H110.252ZM109.916 30.592L109.111 29.9988C109.027 30.1136 108.974 30.1244 108.935 30.1301L109.076 31.12L109.218 32.1099C109.85 32.0196 110.358 31.6784 110.721 31.1852L109.916 30.592ZM109.076 31.12L108.889 30.1377C108.614 30.1901 108.34 30.216 108.068 30.216V31.216V32.216C108.468 32.216 108.867 32.1779 109.263 32.1023L109.076 31.12ZM102.596 19.168V20.168H105.404V19.168V18.168H102.596V19.168ZM105.404 19.168L105.441 20.1673L108.753 20.0473L108.716 19.048L108.68 18.0487L105.368 18.1687L105.404 19.168ZM108.716 19.048V20.048C109.008 20.048 109.278 20.0745 109.528 20.1246L109.724 19.144L109.92 18.1634C109.531 18.0855 109.129 18.048 108.716 18.048V19.048ZM109.724 19.144L109.537 20.1263C109.592 20.1369 109.644 20.1562 109.715 20.2607L110.54 19.696L111.366 19.1313C111.021 18.6278 110.528 18.2791 109.911 18.1617L109.724 19.144ZM110.54 19.696L109.735 20.2892C109.734 20.288 109.745 20.3025 109.761 20.3421C109.778 20.3818 109.797 20.441 109.815 20.5246C109.851 20.6947 109.876 20.934 109.876 21.256H110.876H111.876C111.876 20.4778 111.77 19.6784 111.345 19.1028L110.54 19.696ZM110.876 21.256H109.876C109.876 21.8614 109.767 22.0838 109.735 22.1268L110.54 22.72L111.345 23.3132C111.762 22.7481 111.876 21.9946 111.876 21.256H110.876ZM110.54 22.72L109.715 22.1553C109.637 22.2691 109.57 22.3048 109.493 22.3232L109.724 23.296L109.956 24.2688C110.551 24.1272 111.027 23.7789 111.366 23.2847L110.54 22.72ZM109.724 23.296L109.482 22.3259C109.25 22.3839 108.988 22.416 108.692 22.416V23.416V24.416C109.133 24.416 109.559 24.3681 109.967 24.2661L109.724 23.296ZM108.692 23.416L108.716 22.4163L105.668 22.3443L105.644 23.344L105.621 24.3437L108.669 24.4157L108.692 23.416ZM105.644 23.344V22.344H102.5V23.344V24.344H105.644V23.344ZM102.5 23.344L102.559 22.3457C102.376 22.335 102.278 22.3027 102.234 22.2823C102.2 22.2663 102.204 22.2608 102.211 22.271L101.372 22.816L100.534 23.361C100.981 24.0487 101.724 24.3001 102.442 24.3423L102.5 23.344ZM101.372 22.816L102.211 22.271C102.168 22.2051 102.06 21.9252 102.06 21.232H101.06H100.06C100.06 22.0108 100.161 22.7869 100.534 23.361L101.372 22.816ZM101.06 21.232H102.06C102.06 20.6362 102.177 20.3845 102.24 20.302L101.444 19.696L100.649 19.09C100.2 19.6795 100.06 20.4518 100.06 21.232H101.06ZM101.444 19.696L102.253 20.2842C102.286 20.2388 102.34 20.168 102.596 20.168V19.168V18.168C101.829 18.168 101.115 18.4492 100.636 19.1078L101.444 19.696ZM118.213 30.88L117.628 31.6907V31.6907L118.213 30.88ZM117.589 30.208L116.695 30.6552L116.701 30.667L116.707 30.6786L117.589 30.208ZM117.349 29.704L116.405 30.0334L116.412 30.0546L116.421 30.0754L117.349 29.704ZM113.029 17.32L112.071 17.6073L112.078 17.6285L112.085 17.6494L113.029 17.32ZM112.909 15.544L111.994 15.1413L111.99 15.1503L111.986 15.1594L112.909 15.544ZM114.421 14.536L114.113 13.5845L114.11 13.5855L114.421 14.536ZM115.741 14.296L115.789 13.2971L115.741 14.296ZM116.581 14.704L115.829 15.3625V15.3625L116.581 14.704ZM117.181 15.904L116.23 16.2118L116.232 16.2198L116.235 16.2277L117.181 15.904ZM119.677 23.2L118.731 23.5237L119.782 26.5971L120.642 23.4645L119.677 23.2ZM121.645 16.024L120.687 15.7367L120.684 15.748L120.681 15.7595L121.645 16.024ZM121.885 15.4L120.991 14.9528L120.979 14.9757L120.969 14.9992L121.885 15.4ZM122.509 14.728L123.064 15.56L123.079 15.5497L123.095 15.5387L122.509 14.728ZM125.101 14.752L124.487 15.5414L124.497 15.5493L124.508 15.5571L125.101 14.752ZM125.725 15.472L126.641 15.0712L126.641 15.0712L125.725 15.472ZM125.965 16.048L126.93 15.7843L126.918 15.74L126.901 15.6969L125.965 16.048ZM127.933 23.248L126.969 23.5117L127.829 26.661L128.88 23.5698L127.933 23.248ZM130.429 15.904L131.376 16.2258L131.378 16.2202L130.429 15.904ZM131.005 14.728L130.233 14.0923L130.229 14.0974L131.005 14.728ZM131.869 14.272L131.96 15.2679H131.96L131.869 14.272ZM133.213 14.512L133.553 13.5714L133.546 13.569L133.213 14.512ZM134.437 15.184L133.73 15.8911L133.742 15.9033L133.755 15.9151L134.437 15.184ZM134.797 16.024H133.797V16.0478L133.798 16.0716L134.797 16.024ZM134.581 17.32L135.526 17.6477L135.532 17.629L135.538 17.61L134.581 17.32ZM130.285 29.704L129.34 29.3762L129.336 29.3878L130.285 29.704ZM130.045 30.208L129.163 29.7374L129.15 29.7609L129.139 29.7851L130.045 30.208ZM129.445 30.88L128.86 30.0693V30.0693L129.445 30.88ZM126.925 30.832L126.281 31.5969L126.293 31.6071L126.305 31.6169L126.925 30.832ZM126.277 30.064L125.372 30.4898L125.377 30.5006L125.383 30.5112L126.277 30.064ZM126.061 29.584L125.105 29.8759L125.108 29.8881L125.112 29.9002L126.061 29.584ZM123.805 22.192L124.762 21.9001L123.807 18.7713L122.849 21.8992L123.805 22.192ZM121.549 29.56L120.593 29.2672L120.578 29.3149L120.569 29.3639L121.549 29.56ZM121.333 30.088L122.228 30.5352L122.233 30.5246L122.238 30.5138L121.333 30.088ZM120.685 30.832L120.065 30.0471L120.055 30.0553L120.045 30.0638L120.685 30.832ZM119.413 31.192V30.192C119.022 30.192 118.856 30.1107 118.799 30.0693L118.213 30.88L117.628 31.6907C118.146 32.0653 118.78 32.192 119.413 32.192V31.192ZM118.213 30.88L118.799 30.0693C118.598 29.9243 118.509 29.8082 118.471 29.7374L117.589 30.208L116.707 30.6786C116.925 31.0878 117.252 31.4197 117.628 31.6907L118.213 30.88ZM117.589 30.208L118.484 29.7608C118.421 29.6358 118.372 29.5361 118.336 29.4601C118.318 29.4221 118.304 29.392 118.293 29.3689C118.288 29.3575 118.284 29.3486 118.282 29.342C118.279 29.3353 118.278 29.3324 118.278 29.3326L117.349 29.704L116.421 30.0754C116.471 30.2014 116.571 30.4082 116.695 30.6552L117.589 30.208ZM117.349 29.704L118.293 29.3746L113.973 16.9906L113.029 17.32L112.085 17.6494L116.405 30.0334L117.349 29.704ZM113.029 17.32L113.987 17.0327C113.88 16.6777 113.83 16.4067 113.817 16.2086C113.81 16.1113 113.813 16.0409 113.819 15.993C113.825 15.9454 113.833 15.927 113.832 15.9286L112.909 15.544L111.986 15.1594C111.683 15.886 111.821 16.7742 112.071 17.6073L113.029 17.32ZM112.909 15.544L113.824 15.9467C113.811 15.9765 113.822 15.9256 113.974 15.824C114.125 15.7233 114.367 15.6056 114.732 15.4865L114.421 14.536L114.11 13.5855C113.247 13.8678 112.357 14.3165 111.994 15.1413L112.909 15.544ZM114.421 14.536L114.729 15.4874C115.227 15.3263 115.534 15.2872 115.694 15.2949L115.741 14.296L115.789 13.2971C115.277 13.2728 114.703 13.3937 114.113 13.5846L114.421 14.536ZM115.741 14.296L115.694 15.2949C115.737 15.297 115.757 15.3053 115.766 15.3095C115.775 15.3139 115.796 15.3257 115.829 15.3625L116.581 14.704L117.334 14.0455C116.933 13.5875 116.4 13.3262 115.789 13.2971L115.741 14.296ZM116.581 14.704L115.829 15.3625C115.922 15.4696 116.071 15.7208 116.23 16.2118L117.181 15.904L118.133 15.5962C117.939 14.9992 117.688 14.4504 117.334 14.0455L116.581 14.704ZM117.181 15.904L116.235 16.2277L118.731 23.5237L119.677 23.2L120.623 22.8763L118.127 15.5803L117.181 15.904ZM119.677 23.2L120.642 23.4645L122.61 16.2885L121.645 16.024L120.681 15.7595L118.713 22.9355L119.677 23.2ZM121.645 16.024L122.603 16.3113C122.634 16.207 122.696 16.0409 122.801 15.8008L121.885 15.4L120.969 14.9992C120.85 15.2711 120.752 15.521 120.687 15.7367L121.645 16.024ZM121.885 15.4L122.78 15.8472C122.815 15.7764 122.89 15.6757 123.064 15.56L122.509 14.728L121.954 13.8959C121.552 14.1643 121.211 14.5116 120.991 14.9528L121.885 15.4ZM122.509 14.728L123.095 15.5387C123.143 15.5035 123.319 15.416 123.757 15.416V14.416V13.416C123.108 13.416 122.451 13.5365 121.924 13.9173L122.509 14.728ZM123.757 14.416V15.416C124.278 15.416 124.458 15.5186 124.487 15.5414L125.101 14.752L125.715 13.9626C125.168 13.5374 124.452 13.416 123.757 13.416V14.416ZM125.101 14.752L124.508 15.5571C124.718 15.7122 124.788 15.8244 124.809 15.8728L125.725 15.472L126.641 15.0712C126.438 14.6076 126.092 14.2398 125.694 13.9469L125.101 14.752ZM125.725 15.472L124.809 15.8728C124.92 16.1256 124.991 16.2974 125.029 16.3991L125.965 16.048L126.901 15.6969C126.844 15.5426 126.755 15.3304 126.641 15.0712L125.725 15.472ZM125.965 16.048L125.001 16.3117L126.969 23.5117L127.933 23.248L128.898 22.9843L126.93 15.7843L125.965 16.048ZM127.933 23.248L128.88 23.5698L131.376 16.2258L130.429 15.904L129.482 15.5822L126.986 22.9262L127.933 23.248ZM130.429 15.904L131.378 16.2202C131.538 15.739 131.684 15.4783 131.781 15.3586L131.005 14.728L130.229 14.0974C129.91 14.4897 129.672 15.013 129.48 15.5878L130.429 15.904ZM131.005 14.728L131.777 15.3637C131.831 15.2987 131.873 15.2758 131.96 15.2679L131.869 14.272L131.779 13.2761C131.161 13.3322 130.628 13.6133 130.233 14.0923L131.005 14.728ZM131.869 14.272L131.96 15.2679C132.106 15.2546 132.396 15.2842 132.88 15.455L133.213 14.512L133.546 13.569C132.942 13.3558 132.337 13.2254 131.779 13.2761L131.869 14.272ZM133.213 14.512L132.873 15.4526C133.405 15.6445 133.647 15.8078 133.73 15.8911L134.437 15.184L135.144 14.4769C134.748 14.0802 134.173 13.7955 133.553 13.5714L133.213 14.512ZM134.437 15.184L133.755 15.9151C133.781 15.9398 133.787 15.9532 133.788 15.9559C133.789 15.9592 133.797 15.9774 133.797 16.024H134.797H135.797C135.797 15.4182 135.567 14.871 135.119 14.4529L134.437 15.184ZM134.797 16.024L133.798 16.0716C133.806 16.2438 133.769 16.5506 133.624 17.03L134.581 17.32L135.538 17.61C135.713 17.0334 135.82 16.4762 135.796 15.9764L134.797 16.024ZM134.581 17.32L133.636 16.9923L129.34 29.3763L130.285 29.704L131.23 30.0317L135.526 17.6477L134.581 17.32ZM130.285 29.704L129.336 29.3878C129.34 29.3774 129.333 29.3999 129.298 29.4721C129.267 29.5377 129.223 29.6253 129.163 29.7374L130.045 30.208L130.927 30.6786C131.052 30.445 131.171 30.2072 131.234 30.0202L130.285 29.704ZM130.045 30.208L129.139 29.7851C129.119 29.8268 129.055 29.9284 128.86 30.0693L129.445 30.88L130.031 31.6907C130.411 31.4156 130.747 31.0692 130.951 30.6309L130.045 30.208ZM129.445 30.88L128.86 30.0693C128.811 30.1045 128.636 30.192 128.197 30.192V31.192V32.192C128.847 32.192 129.503 32.0715 130.031 31.6907L129.445 30.88ZM128.197 31.192V30.192C127.789 30.192 127.613 30.1011 127.545 30.0471L126.925 30.832L126.305 31.6169C126.845 32.0429 127.517 32.192 128.197 32.192V31.192ZM126.925 30.832L127.569 30.0671C127.332 29.867 127.22 29.7134 127.172 29.6168L126.277 30.064L125.383 30.5112C125.59 30.9266 125.911 31.285 126.281 31.5969L126.925 30.832ZM126.277 30.064L127.182 29.6382C127.119 29.5043 127.072 29.4021 127.039 29.3296C127.023 29.2932 127.012 29.2677 127.005 29.2514C126.995 29.2276 127 29.2396 127.01 29.2678L126.061 29.584L125.112 29.9002C125.152 30.0199 125.26 30.2511 125.372 30.4898L126.277 30.064ZM126.061 29.584L127.018 29.2921L124.762 21.9001L123.805 22.192L122.849 22.4839L125.105 29.8759L126.061 29.584ZM123.805 22.192L122.849 21.8992L120.593 29.2672L121.549 29.56L122.505 29.8528L124.761 22.4848L123.805 22.192ZM121.549 29.56L120.569 29.3639C120.577 29.3211 120.586 29.2995 120.581 29.3129C120.578 29.3213 120.571 29.3406 120.558 29.3734C120.531 29.4391 120.489 29.534 120.428 29.6622L121.333 30.088L122.238 30.5138C122.306 30.37 122.364 30.2409 122.409 30.1306C122.446 30.0405 122.501 29.8988 122.53 29.7561L121.549 29.56ZM121.333 30.088L120.439 29.6408C120.395 29.7276 120.293 29.8677 120.065 30.0471L120.685 30.832L121.305 31.6169C121.685 31.3163 122.015 30.9604 122.228 30.5352L121.333 30.088ZM120.685 30.832L120.045 30.0638C120.007 30.0955 119.851 30.192 119.413 30.192V31.192V32.192C120.096 32.192 120.787 32.0485 121.325 31.6002L120.685 30.832ZM137.925 30.904L137.332 31.7091L137.346 31.7194L137.36 31.7293L137.925 30.904ZM137.373 30.064L136.383 30.2054L136.386 30.2284L136.391 30.2511L137.373 30.064ZM137.397 20.2L138.378 20.3961L138.379 20.3871L137.397 20.2ZM137.949 19.384L138.514 20.2093L138.528 20.1994L138.542 20.1891L137.949 19.384ZM140.997 19.384L140.383 20.1734L140.407 20.1921L140.432 20.2093L140.997 19.384ZM141.549 20.2L142.531 20.0129V20.0129L141.549 20.2ZM141.549 30.088L142.531 30.2751V30.2751L141.549 30.088ZM140.997 30.904L140.432 30.0787L140.422 30.0859L140.411 30.0933L140.997 30.904ZM137.925 17.56L137.332 18.3651L137.346 18.3754L137.36 18.3853L137.925 17.56ZM137.373 16.72L136.383 16.8614L136.386 16.8844L136.391 16.9071L137.373 16.72ZM137.397 14.656L138.378 14.8521L138.379 14.8431L137.397 14.656ZM137.949 13.84L138.514 14.6653V14.6653L137.949 13.84ZM140.997 13.864L140.383 14.6534L140.407 14.6721L140.432 14.6893L140.997 13.864ZM141.549 14.68L142.531 14.4929V14.4929L141.549 14.68ZM141.549 16.744L142.531 16.9311V16.9311L141.549 16.744ZM140.997 17.56L140.432 16.7347L140.422 16.7419L140.411 16.7493L140.997 17.56ZM139.461 31.216V30.216C138.781 30.216 138.531 30.1071 138.49 30.0787L137.925 30.904L137.36 31.7293C137.927 32.1169 138.701 32.216 139.461 32.216V31.216ZM137.925 30.904L138.518 30.0989C138.394 30.0076 138.367 29.9386 138.355 29.8769L137.373 30.064L136.391 30.2511C136.507 30.8614 136.848 31.3524 137.332 31.7091L137.925 30.904ZM137.373 30.064L138.363 29.9226C138.322 29.6351 138.301 29.3384 138.301 29.032H137.301H136.301C136.301 29.4296 136.328 29.8209 136.383 30.2054L137.373 30.064ZM137.301 29.032H138.301V21.208H137.301H136.301V29.032H137.301ZM137.301 21.208H138.301C138.301 20.9167 138.327 20.6467 138.378 20.3961L137.397 20.2L136.416 20.0039C136.338 20.3933 136.301 20.7953 136.301 21.208H137.301ZM137.397 20.2L138.379 20.3871C138.39 20.3319 138.409 20.2808 138.514 20.2093L137.949 19.384L137.384 18.5587C136.881 18.9032 136.532 19.3961 136.415 20.0129L137.397 20.2ZM137.949 19.384L138.542 20.1891C138.577 20.1634 138.813 20.048 139.485 20.048V19.048V18.048C138.717 18.048 137.929 18.1566 137.356 18.5789L137.949 19.384ZM139.485 19.048V20.048C139.798 20.048 140.027 20.0728 140.186 20.1082C140.349 20.1445 140.394 20.1819 140.383 20.1734L140.997 19.384L141.611 18.5946C141.043 18.1533 140.244 18.048 139.485 18.048V19.048ZM140.997 19.384L140.432 20.2093C140.537 20.2808 140.556 20.3319 140.567 20.3871L141.549 20.2L142.531 20.0129C142.414 19.3961 142.065 18.9032 141.562 18.5587L140.997 19.384ZM141.549 20.2L140.567 20.3871C140.618 20.657 140.645 20.9461 140.645 21.256H141.645H142.645C142.645 20.8299 142.608 20.415 142.531 20.0129L141.549 20.2ZM141.645 21.256H140.645V29.056H141.645H142.645V21.256H141.645ZM141.645 29.056H140.645C140.645 29.347 140.619 29.6283 140.567 29.9009L141.549 30.088L142.531 30.2751C142.607 29.8757 142.645 29.469 142.645 29.056H141.645ZM141.549 30.088L140.567 29.9009C140.556 29.9561 140.537 30.0072 140.432 30.0787L140.997 30.904L141.562 31.7293C142.065 31.3848 142.414 30.8919 142.531 30.2751L141.549 30.088ZM140.997 30.904L140.411 30.0933C140.424 30.0844 140.375 30.1221 140.198 30.158C140.028 30.1925 139.787 30.216 139.461 30.216V31.216V32.216C140.223 32.216 141.019 32.1217 141.582 31.7147L140.997 30.904ZM139.461 17.872V16.872C138.781 16.872 138.531 16.7631 138.49 16.7347L137.925 17.56L137.36 18.3853C137.927 18.7729 138.701 18.872 139.461 18.872V17.872ZM137.925 17.56L138.518 16.7549C138.394 16.6636 138.367 16.5946 138.355 16.5329L137.373 16.72L136.391 16.9071C136.507 17.5174 136.848 18.0084 137.332 18.3651L137.925 17.56ZM137.373 16.72L138.363 16.5786C138.322 16.2911 138.301 15.9944 138.301 15.688H137.301H136.301C136.301 16.0856 136.328 16.4769 136.383 16.8614L137.373 16.72ZM137.301 15.688H138.301C138.301 15.3777 138.328 15.1 138.378 14.8521L137.397 14.656L136.416 14.4599C136.338 14.852 136.301 15.2623 136.301 15.688H137.301ZM137.397 14.656L138.379 14.8431C138.39 14.7879 138.409 14.7368 138.514 14.6653L137.949 13.84L137.384 13.0147C136.881 13.3592 136.532 13.8521 136.415 14.4689L137.397 14.656ZM137.949 13.84L138.514 14.6653C138.555 14.6369 138.805 14.528 139.485 14.528V13.528V12.528C138.725 12.528 137.951 12.6271 137.384 13.0147L137.949 13.84ZM139.485 13.528V14.528C139.798 14.528 140.027 14.5528 140.186 14.5882C140.349 14.6245 140.394 14.6619 140.383 14.6534L140.997 13.864L141.611 13.0746C141.043 12.6333 140.244 12.528 139.485 12.528V13.528ZM140.997 13.864L140.432 14.6893C140.537 14.7608 140.556 14.8119 140.567 14.8671L141.549 14.68L142.531 14.4929C142.414 13.8761 142.065 13.3832 141.562 13.0387L140.997 13.864ZM141.549 14.68L140.567 14.8671C140.619 15.1397 140.645 15.421 140.645 15.712H141.645H142.645C142.645 15.299 142.607 14.8923 142.531 14.4929L141.549 14.68ZM141.645 15.712H140.645C140.645 16.003 140.619 16.2843 140.567 16.5569L141.549 16.744L142.531 16.9311C142.607 16.5317 142.645 16.125 142.645 15.712H141.645ZM141.549 16.744L140.567 16.5569C140.556 16.6121 140.537 16.6632 140.432 16.7347L140.997 17.56L141.562 18.3853C142.065 18.0408 142.414 17.5479 142.531 16.9311L141.549 16.744ZM140.997 17.56L140.411 16.7493C140.424 16.7404 140.375 16.7781 140.198 16.814C140.028 16.8485 139.787 16.872 139.461 16.872V17.872V18.872C140.223 18.872 141.019 18.7777 141.582 18.3707L140.997 17.56ZM148.228 31.264L148.424 30.2834L148.413 30.2812L148.402 30.2792L148.228 31.264ZM146.62 30.832L146.244 31.7585L146.261 31.7655L146.279 31.7718L146.62 30.832ZM145.348 30.112L144.719 30.8892V30.8892L145.348 30.112ZM144.94 28.648L144.007 28.289L143.999 28.3102L143.992 28.3318L144.94 28.648ZM145.252 27.976L146.135 28.4466V28.4466L145.252 27.976ZM145.732 27.208L146.549 27.7847L146.552 27.7815L145.732 27.208ZM146.116 26.848L145.669 25.9536L145.65 25.9633L145.631 25.9738L146.116 26.848ZM147.508 26.92L147.083 27.8248L147.105 27.8353L147.128 27.8447L147.508 26.92ZM148.324 27.328L147.817 28.1899L147.837 28.2013L147.856 28.2118L148.324 27.328ZM149.164 27.736L148.758 28.6498L148.788 28.6631L148.819 28.6743L149.164 27.736ZM150.796 27.808L150.425 26.8795L150.407 26.8865L150.39 26.8942L150.796 27.808ZM150.868 27.208L150.228 27.9762L150.257 28.0001L150.287 28.0217L150.868 27.208ZM150.436 27.016L150.095 27.9558L150.143 27.9735L150.194 27.9861L150.436 27.016ZM149.044 26.68L148.815 27.6534V27.6534L149.044 26.68ZM148.204 26.44L148.521 25.4913L148.508 25.4872L148.496 25.4833L148.204 26.44ZM147.124 26.008L146.646 26.8859L146.661 26.8944L146.677 26.9024L147.124 26.008ZM146.164 25.264L145.419 25.9308L145.429 25.9414L145.438 25.9517L146.164 25.264ZM145.492 24.16L144.555 24.5073L144.56 24.5224L144.566 24.5373L145.492 24.16ZM145.828 20.488L145.004 19.9225V19.9225L145.828 20.488ZM147.532 19.216L147.175 18.2821V18.2821L147.532 19.216ZM151.132 18.832L151.249 17.8388L151.249 17.8388L151.132 18.832ZM151.948 18.976L151.719 19.9495L151.731 19.9522L151.948 18.976ZM152.788 19.24L152.408 20.1647L152.439 20.1778L152.472 20.1887L152.788 19.24ZM153.652 19.576L153.246 20.4899L153.255 20.4939L153.652 19.576ZM154.564 20.656L153.565 20.6905L153.565 20.6917L154.564 20.656ZM154.06 22.072L153.245 21.4933L153.229 21.5152L153.215 21.538L154.06 22.072ZM153.46 22.768L154.06 23.5681L154.07 23.5606L153.46 22.768ZM151.06 22.336L151.454 21.4169V21.4169L151.06 22.336ZM149.548 22.192L149.791 23.1621L149.828 23.1528L149.865 23.1407L149.548 22.192ZM149.26 22.36L149.967 23.0671L150.007 23.0279L150.041 22.9847L149.26 22.36ZM149.332 23.032L148.625 23.7391L148.676 23.7894L148.732 23.832L149.332 23.032ZM149.812 23.272L149.496 24.2207L149.507 24.2244L149.518 24.2278L149.812 23.272ZM150.508 23.44L150.324 24.4229L150.335 24.4248L150.508 23.44ZM151.372 23.584L151.216 24.5718L151.22 24.5724L151.372 23.584ZM152.644 23.896L152.328 24.8447L152.349 24.8516L152.37 24.8575L152.644 23.896ZM154.756 25.528L155.651 25.0808V25.0808L154.756 25.528ZM153.724 30.376L153.113 29.5844L153.107 29.5897L153.724 30.376ZM149.74 31.432V30.432C149.373 30.432 148.937 30.3858 148.424 30.2834L148.228 31.264L148.032 32.2446C148.64 32.3662 149.211 32.432 149.74 32.432V31.432ZM148.228 31.264L148.402 30.2792C147.916 30.1935 147.436 30.0647 146.962 29.8922L146.62 30.832L146.279 31.7718C146.86 31.9833 147.452 32.1425 148.055 32.2488L148.228 31.264ZM146.62 30.832L146.997 29.9055C146.552 29.7248 146.219 29.5304 145.978 29.3348L145.348 30.112L144.719 30.8892C145.149 31.2376 145.665 31.5232 146.244 31.7585L146.62 30.832ZM145.348 30.112L145.978 29.3348C145.891 29.2643 145.86 29.2166 145.851 29.1999C145.845 29.1886 145.844 29.1854 145.844 29.176H144.844H143.844C143.844 29.8981 144.208 30.475 144.719 30.8892L145.348 30.112ZM144.844 29.176H145.844C145.844 29.1476 145.85 29.08 145.889 28.9642L144.94 28.648L143.992 28.3318C143.902 28.6 143.844 28.8844 143.844 29.176H144.844ZM144.94 28.648L145.874 29.007C145.936 28.8444 146.022 28.658 146.135 28.4466L145.252 27.976L144.37 27.5054C144.227 27.774 144.105 28.0356 144.007 28.289L144.94 28.648ZM145.252 27.976L146.135 28.4466C146.239 28.2503 146.376 28.0299 146.549 27.7847L145.732 27.208L144.915 26.6313C144.705 26.9301 144.521 27.2217 144.37 27.5054L145.252 27.976ZM145.732 27.208L146.552 27.7815C146.593 27.7228 146.613 27.7161 146.602 27.7222L146.116 26.848L145.631 25.9738C145.332 26.1399 145.096 26.3732 144.913 26.6345L145.732 27.208ZM146.116 26.848L146.564 27.7424C146.564 27.7423 146.59 27.728 146.668 27.728V26.728V25.728C146.33 25.728 145.989 25.7937 145.669 25.9536L146.116 26.848ZM146.668 26.728V27.728C146.803 27.728 146.938 27.7567 147.083 27.8248L147.508 26.92L147.934 26.0152C147.535 25.8273 147.11 25.728 146.668 25.728V26.728ZM147.508 26.92L147.128 27.8447C147.353 27.9375 147.583 28.0521 147.817 28.1899L148.324 27.328L148.831 26.4661C148.522 26.2839 148.208 26.1265 147.889 25.9953L147.508 26.92ZM148.324 27.328L147.856 28.2118C148.149 28.3668 148.45 28.5127 148.758 28.6498L149.164 27.736L149.571 26.8222C149.303 26.7033 149.044 26.5772 148.792 26.4442L148.324 27.328ZM149.164 27.736L148.819 28.6743C149.237 28.8286 149.675 28.904 150.124 28.904V27.904V26.904C149.902 26.904 149.699 26.8674 149.51 26.7977L149.164 27.736ZM150.124 27.904V28.904C150.462 28.904 150.86 28.8739 151.203 28.7218L150.796 27.808L150.39 26.8942C150.43 26.8763 150.436 26.8819 150.379 26.8901C150.327 26.8975 150.244 26.904 150.124 26.904V27.904ZM150.796 27.808L151.168 28.7365C151.346 28.665 151.566 28.5429 151.745 28.3282C151.938 28.0958 152.036 27.8117 152.036 27.52H151.036H150.036C150.036 27.3563 150.094 27.1842 150.208 27.0478C150.307 26.9291 150.406 26.887 150.425 26.8795L150.796 27.808ZM151.036 27.52H152.036C152.036 27.0416 151.801 26.6454 151.45 26.3943L150.868 27.208L150.287 28.0217C150.239 27.9875 150.169 27.9232 150.114 27.8201C150.057 27.7144 150.036 27.6073 150.036 27.52H151.036ZM150.868 27.208L151.509 26.4398C151.249 26.2233 150.941 26.1113 150.679 26.0459L150.436 27.016L150.194 27.9861C150.22 27.9926 150.24 27.9987 150.255 28.0037C150.27 28.0087 150.279 28.0124 150.282 28.0138C150.286 28.0153 150.282 28.0139 150.273 28.0085C150.264 28.0031 150.248 27.9928 150.228 27.9762L150.868 27.208ZM150.436 27.016L150.778 26.0762C150.543 25.9907 150.284 25.9225 150.008 25.8674L149.812 26.848L149.616 27.8286C149.821 27.8695 149.978 27.9133 150.095 27.9558L150.436 27.016ZM149.812 26.848L150.008 25.8674C149.781 25.8219 149.536 25.7684 149.273 25.7066L149.044 26.68L148.815 27.6534C149.097 27.7196 149.364 27.7781 149.616 27.8286L149.812 26.848ZM149.044 26.68L149.273 25.7066C149.033 25.6501 148.782 25.5786 148.521 25.4913L148.204 26.44L147.888 27.3887C148.202 27.4934 148.512 27.5819 148.815 27.6534L149.044 26.68ZM148.204 26.44L148.496 25.4833C148.182 25.388 147.875 25.2651 147.572 25.1136L147.124 26.008L146.677 26.9024C147.078 27.1029 147.49 27.268 147.913 27.3967L148.204 26.44ZM147.124 26.008L147.603 25.1301C147.347 24.9904 147.11 24.8077 146.89 24.5763L146.164 25.264L145.438 25.9517C145.795 26.3283 146.198 26.6416 146.646 26.8859L147.124 26.008ZM146.164 25.264L146.91 24.5972C146.724 24.3899 146.557 24.1236 146.418 23.7827L145.492 24.16L144.566 24.5373C144.779 25.0604 145.061 25.5301 145.419 25.9308L146.164 25.264ZM145.492 24.16L146.43 23.8127C146.323 23.5235 146.252 23.1207 146.252 22.576H145.252H144.252C144.252 23.2793 144.342 23.9325 144.555 24.5073L145.492 24.16ZM145.252 22.576H146.252C146.252 21.8999 146.407 21.4128 146.653 21.0535L145.828 20.488L145.004 19.9225C144.482 20.6832 144.252 21.5881 144.252 22.576H145.252ZM145.828 20.488L146.653 21.0535C146.902 20.6901 147.291 20.3791 147.89 20.1499L147.532 19.216L147.175 18.2821C146.269 18.6289 145.522 19.1659 145.004 19.9225L145.828 20.488ZM147.532 19.216L147.89 20.1499C148.494 19.9185 149.292 19.784 150.316 19.784V18.784V17.784C149.132 17.784 148.075 17.9375 147.175 18.2821L147.532 19.216ZM150.316 18.784V19.784C150.549 19.784 150.782 19.7977 151.016 19.8252L151.132 18.832L151.249 17.8388C150.939 17.8023 150.628 17.784 150.316 17.784V18.784ZM151.132 18.832L151.016 19.8251C151.249 19.8526 151.484 19.8939 151.719 19.9494L151.948 18.976L152.177 18.0026C151.869 17.9301 151.56 17.8754 151.249 17.8388L151.132 18.832ZM151.948 18.976L151.731 19.9522C151.964 20.0038 152.189 20.0746 152.408 20.1647L152.788 19.24L153.169 18.3153C152.844 18.1814 152.509 18.0762 152.165 17.9998L151.948 18.976ZM152.788 19.24L152.472 20.1887C152.729 20.2741 152.987 20.3744 153.246 20.4898L153.652 19.576L154.059 18.6622C153.742 18.5216 153.424 18.3979 153.105 18.2913L152.788 19.24ZM153.652 19.576L153.255 20.4939C153.459 20.582 153.538 20.6565 153.56 20.6832C153.57 20.6943 153.569 20.6962 153.566 20.6895C153.564 20.6827 153.565 20.6809 153.565 20.6905L154.564 20.656L155.564 20.6215C155.529 19.6229 154.835 18.9981 154.049 18.6581L153.652 19.576ZM154.564 20.656L153.565 20.6917C153.571 20.8537 153.515 21.1131 153.245 21.4933L154.06 22.072L154.876 22.6507C155.31 22.0389 155.59 21.3543 155.564 20.6203L154.564 20.656ZM154.06 22.072L153.215 21.538C153.064 21.7769 152.938 21.9082 152.851 21.9754L153.46 22.768L154.07 23.5606C154.399 23.3078 154.673 22.9751 154.906 22.606L154.06 22.072ZM153.46 22.768L152.86 21.968C152.834 21.9879 152.823 21.9908 152.828 21.9891C152.83 21.9883 152.835 21.9869 152.841 21.9857C152.848 21.9845 152.854 21.984 152.86 21.984V22.984V23.984C153.317 23.984 153.723 23.821 154.06 23.568L153.46 22.768ZM152.86 22.984V21.984C152.791 21.984 152.659 21.9639 152.448 21.8643L152.02 22.768L151.592 23.6717C151.99 23.8601 152.417 23.984 152.86 23.984V22.984ZM152.02 22.768L152.448 21.8643C152.132 21.7145 151.801 21.5654 151.454 21.4169L151.06 22.336L150.666 23.2551C150.992 23.3946 151.3 23.5335 151.592 23.6717L152.02 22.768ZM151.06 22.336L151.454 21.4169C151.005 21.2242 150.535 21.12 150.052 21.12V22.12V23.12C150.241 23.12 150.444 23.1598 150.666 23.2551L151.06 22.336ZM150.052 22.12V21.12C149.78 21.12 149.501 21.1537 149.232 21.2433L149.548 22.192L149.865 23.1407C149.884 23.1343 149.941 23.12 150.052 23.12V22.12ZM149.548 22.192L149.306 21.2219C149.027 21.2916 148.715 21.4406 148.48 21.7353L149.26 22.36L150.041 22.9847C149.934 23.1194 149.814 23.1564 149.791 23.1621L149.548 22.192ZM149.26 22.36L148.553 21.6529C148.289 21.9167 148.164 22.2566 148.164 22.6H149.164H150.164C150.164 22.6647 150.153 22.7485 150.117 22.8394C150.08 22.9314 150.026 23.0083 149.967 23.0671L149.26 22.36ZM149.164 22.6H148.164C148.164 23.0089 148.304 23.4179 148.625 23.7391L149.332 23.032L150.039 22.3249C150.079 22.3644 150.115 22.417 150.138 22.4776C150.161 22.536 150.164 22.5811 150.164 22.6H149.164ZM149.332 23.032L148.732 23.832C148.966 24.007 149.228 24.1313 149.496 24.2207L149.812 23.272L150.129 22.3233C150.013 22.2847 149.955 22.249 149.932 22.232L149.332 23.032ZM149.812 23.272L149.518 24.2278C149.769 24.3048 150.038 24.3692 150.324 24.4229L150.508 23.44L150.693 22.4571C150.467 22.4148 150.272 22.3672 150.106 22.3162L149.812 23.272ZM150.508 23.44L150.335 24.4248C150.613 24.4739 150.907 24.5229 151.216 24.5718L151.372 23.584L151.528 22.5962C151.23 22.5491 150.948 22.5021 150.682 22.4552L150.508 23.44ZM151.372 23.584L151.22 24.5724C151.576 24.6271 151.945 24.7171 152.328 24.8447L152.644 23.896L152.961 22.9473C152.479 22.7869 152.001 22.6689 151.524 22.5956L151.372 23.584ZM152.644 23.896L152.37 24.8575C152.716 24.9565 153.023 25.1022 153.297 25.2929L153.868 24.472L154.439 23.6511C153.978 23.3298 153.469 23.0915 152.919 22.9345L152.644 23.896ZM153.868 24.472L153.297 25.2929C153.512 25.4426 153.704 25.659 153.862 25.9752L154.756 25.528L155.651 25.0808C155.361 24.501 154.96 24.0134 154.439 23.6511L153.868 24.472ZM154.756 25.528L153.862 25.9752C153.993 26.2371 154.092 26.6521 154.092 27.28H155.092H156.092C156.092 26.4679 155.968 25.7149 155.651 25.0808L154.756 25.528ZM155.092 27.28H154.092C154.092 28.393 153.734 29.1051 153.113 29.5844L153.724 30.376L154.335 31.1676C155.539 30.2389 156.092 28.887 156.092 27.28H155.092ZM153.724 30.376L153.107 29.5897C152.46 30.0978 151.392 30.432 149.74 30.432V31.432V32.432C151.609 32.432 153.197 32.0622 154.342 31.1623L153.724 30.376ZM161.317 30.904L160.884 31.8053L160.891 31.8087L160.898 31.812L161.317 30.904ZM159.301 29.368L158.52 29.9927L158.528 30.0023L159.301 29.368ZM158.173 27.304L159.124 26.994V26.994L158.173 27.304ZM160.981 19.576L161.462 20.4528V20.4528L160.981 19.576ZM166.933 19.24L166.519 20.1504L166.519 20.1504L166.933 19.24ZM168.637 20.464L167.883 21.1208L167.889 21.1276L167.895 21.1343L168.637 20.464ZM169.261 25.696L168.53 25.0137V25.0137L169.261 25.696ZM162.421 26.416V25.416H161.14L161.451 26.6585L162.421 26.416ZM162.805 27.088L162.098 27.7951L162.127 27.8245L162.159 27.8514L162.805 27.088ZM163.573 27.52L163.227 28.4583L163.25 28.4665L163.272 28.4736L163.573 27.52ZM165.493 27.616L165.61 28.6091L165.639 28.6058L165.667 28.6008L165.493 27.616ZM166.189 27.448L165.895 26.4922L165.884 26.4956L165.873 26.4993L166.189 27.448ZM166.741 27.256L166.399 26.3162L166.384 26.3216L166.37 26.3275L166.741 27.256ZM167.197 27.112L167.44 28.0821L167.477 28.0728L167.513 28.0607L167.197 27.112ZM168.397 27.328L169.022 26.5471V26.5471L168.397 27.328ZM169.045 28.192L168.151 28.6392L168.157 28.6528L168.165 28.6661L169.045 28.192ZM169.285 28.792L168.315 29.0345L168.318 29.0449L168.32 29.0551L169.285 28.792ZM168.757 30.496L168.132 29.7151L168.125 29.7214L168.117 29.7278L168.757 30.496ZM167.077 31.216L166.865 30.2388L166.855 30.241L166.845 30.2434L167.077 31.216ZM162.421 24.16L161.423 24.0976L161.357 25.16H162.421V24.16ZM165.589 24.016L164.938 23.2567L164.909 23.2817L164.882 23.3089L165.589 24.016ZM165.565 23.056L164.776 23.6699L164.796 23.6958L164.818 23.7204L165.565 23.056ZM165.085 22.744L164.726 23.6773L164.758 23.6897L164.791 23.6998L165.085 22.744ZM163.333 22.864L163.78 23.7584L163.8 23.7487L163.819 23.7382L163.333 22.864ZM162.661 23.44L161.829 22.8853L161.824 22.8922L161.82 22.8992L162.661 23.44ZM164.365 31.48V30.48C163.267 30.48 162.403 30.3037 161.736 29.996L161.317 30.904L160.898 31.812C161.895 32.2723 163.063 32.48 164.365 32.48V31.48ZM161.317 30.904L161.75 30.0027C161.031 29.6568 160.481 29.2299 160.074 28.7337L159.301 29.368L158.528 30.0023C159.145 30.7541 159.939 31.3512 160.884 31.8053L161.317 30.904ZM159.301 29.368L160.082 28.7433C159.641 28.1916 159.324 27.6092 159.124 26.994L158.173 27.304L157.222 27.614C157.502 28.4708 157.938 29.2644 158.52 29.9927L159.301 29.368ZM158.173 27.304L159.124 26.994C158.912 26.3457 158.813 25.7384 158.813 25.168H157.813H156.813C156.813 25.9736 156.954 26.7903 157.222 27.614L158.173 27.304ZM157.813 25.168H158.813C158.813 24.0563 159.058 23.1229 159.517 22.3359L158.653 21.832L157.789 21.3281C157.128 22.4611 156.813 23.7517 156.813 25.168H157.813ZM158.653 21.832L159.517 22.3359C159.984 21.5356 160.626 20.9112 161.462 20.4528L160.981 19.576L160.5 18.6992C159.352 19.3288 158.443 20.2084 157.789 21.3281L158.653 21.832ZM160.981 19.576L161.462 20.4528C162.288 19.9998 163.255 19.76 164.389 19.76V18.76V17.76C162.963 17.76 161.658 18.0642 160.5 18.6992L160.981 19.576ZM164.389 18.76V19.76C165.277 19.76 165.977 19.9036 166.519 20.1504L166.933 19.24L167.347 18.3296C166.482 17.9364 165.485 17.76 164.389 17.76V18.76ZM166.933 19.24L166.519 20.1504C167.116 20.4215 167.56 20.75 167.883 21.1208L168.637 20.464L169.391 19.8072C168.85 19.186 168.159 18.6985 167.347 18.3296L166.933 19.24ZM168.637 20.464L167.895 21.1343C168.268 21.5474 168.525 21.9683 168.684 22.3962L169.621 22.048L170.559 21.6998C170.301 21.0077 169.902 20.3726 169.379 19.7937L168.637 20.464ZM169.621 22.048L168.684 22.3962C168.86 22.871 168.933 23.2719 168.933 23.608H169.933H170.933C170.933 22.9841 170.798 22.345 170.559 21.6998L169.621 22.048ZM169.933 23.608H168.933C168.933 24.366 168.748 24.7805 168.53 25.0137L169.261 25.696L169.992 26.3783C170.671 25.6515 170.933 24.674 170.933 23.608H169.933ZM169.261 25.696L168.53 25.0137C168.286 25.2752 167.982 25.416 167.533 25.416V26.416V27.416C168.492 27.416 169.34 27.0768 169.992 26.3783L169.261 25.696ZM167.533 26.416V25.416H162.421V26.416V27.416H167.533V26.416ZM162.421 26.416L161.451 26.6585C161.56 27.0956 161.782 27.4788 162.098 27.7951L162.805 27.088L163.512 26.3809C163.444 26.3132 163.41 26.2484 163.391 26.1735L162.421 26.416ZM162.805 27.088L162.159 27.8514C162.471 28.1155 162.834 28.3134 163.227 28.4583L163.573 27.52L163.919 26.5817C163.704 26.5026 163.555 26.4125 163.451 26.3246L162.805 27.088ZM163.573 27.52L163.272 28.4736C163.683 28.6034 164.114 28.664 164.557 28.664V27.664V26.664C164.297 26.664 164.071 26.6286 163.874 26.5664L163.573 27.52ZM164.557 27.664V28.664C164.938 28.664 165.29 28.6468 165.61 28.6091L165.493 27.616L165.376 26.6228C165.152 26.6492 164.88 26.664 164.557 26.664V27.664ZM165.493 27.616L165.667 28.6008C165.971 28.5471 166.254 28.4806 166.505 28.3967L166.189 27.448L165.873 26.4993C165.741 26.5434 165.559 26.5889 165.319 26.6312L165.493 27.616ZM166.189 27.448L166.483 28.4038C166.711 28.3337 166.922 28.2609 167.113 28.1845L166.741 27.256L166.37 26.3275C166.241 26.3791 166.083 26.4343 165.895 26.4922L166.189 27.448ZM166.741 27.256L167.083 28.1958C167.239 28.1392 167.356 28.1031 167.44 28.0821L167.197 27.112L166.955 26.1419C166.782 26.1849 166.596 26.2448 166.399 26.3162L166.741 27.256ZM167.197 27.112L167.513 28.0607C167.574 28.0405 167.602 28.04 167.605 28.04V27.04V26.04C167.352 26.04 167.108 26.0875 166.881 26.1633L167.197 27.112ZM167.605 27.04V28.04C167.65 28.04 167.697 28.0485 167.772 28.1089L168.397 27.328L169.022 26.5471C168.617 26.2235 168.136 26.04 167.605 26.04V27.04ZM168.397 27.328L167.772 28.1089C167.864 28.182 167.999 28.3366 168.151 28.6392L169.045 28.192L169.94 27.7448C169.707 27.2794 169.41 26.858 169.022 26.5471L168.397 27.328ZM169.045 28.192L168.165 28.6661C168.245 28.8146 168.291 28.9369 168.315 29.0345L169.285 28.792L170.255 28.5495C170.184 28.2631 170.07 27.9854 169.926 27.7179L169.045 28.192ZM169.285 28.792L168.32 29.0551C168.348 29.1571 168.357 29.2363 168.357 29.296H169.357H170.357C170.357 29.0357 170.318 28.7789 170.25 28.5289L169.285 28.792ZM169.357 29.296H168.357C168.357 29.4495 168.314 29.5702 168.132 29.7151L168.757 30.496L169.382 31.2769C170.001 30.7818 170.357 30.1025 170.357 29.296H169.357ZM168.757 30.496L168.117 29.7278C167.904 29.9056 167.516 30.0971 166.865 30.2388L167.077 31.216L167.29 32.1932C168.11 32.0149 168.843 31.7264 169.397 31.2642L168.757 30.496ZM167.077 31.216L166.845 30.2434C166.209 30.3954 165.388 30.48 164.365 30.48V31.48V32.48C165.486 32.48 166.473 32.3886 167.31 32.1886L167.077 31.216ZM162.421 24.16V25.16H165.109V24.16V23.16H162.421V24.16ZM165.109 24.16V25.16C165.435 25.16 165.922 25.0972 166.296 24.7231L165.589 24.016L164.882 23.3089C164.975 23.2159 165.067 23.1789 165.11 23.1662C165.149 23.1545 165.155 23.16 165.109 23.16V24.16ZM165.589 24.016L166.24 24.7753C166.636 24.4356 166.757 23.9739 166.757 23.584H165.757H164.757C164.757 23.5837 164.757 23.5733 164.76 23.5546C164.763 23.5357 164.77 23.5077 164.783 23.4736C164.812 23.3997 164.863 23.321 164.938 23.2567L165.589 24.016ZM165.757 23.584H166.757C166.757 23.1522 166.617 22.7339 166.313 22.3916L165.565 23.056L164.818 23.7204C164.8 23.7007 164.782 23.6719 164.769 23.6377C164.757 23.6048 164.757 23.5837 164.757 23.584H165.757ZM165.565 23.056L166.354 22.4421C166.094 22.1067 165.745 21.9007 165.379 21.7882L165.085 22.744L164.791 23.6998C164.819 23.7082 164.824 23.7135 164.816 23.7084C164.812 23.7059 164.806 23.7014 164.798 23.6945C164.791 23.6875 164.783 23.6792 164.776 23.6699L165.565 23.056ZM165.085 22.744L165.444 21.8107C165.093 21.6758 164.718 21.624 164.341 21.624V22.624V23.624C164.541 23.624 164.661 23.6522 164.726 23.6773L165.085 22.744ZM164.341 22.624V21.624C163.816 21.624 163.307 21.7346 162.847 21.9898L163.333 22.864L163.819 23.7382C163.935 23.6734 164.099 23.624 164.341 23.624V22.624ZM163.333 22.864L162.886 21.9696C162.461 22.1821 162.096 22.4842 161.829 22.8853L162.661 23.44L163.493 23.9947C163.546 23.9158 163.629 23.8339 163.78 23.7584L163.333 22.864ZM162.661 23.44L161.82 22.8992C161.587 23.261 161.45 23.6648 161.423 24.0976L162.421 24.16L163.419 24.2224C163.424 24.1432 163.447 24.067 163.502 23.9808L162.661 23.44Z" fill="white" mask="url(#path-2-outside-1_2721_1844)"/>
<path d="M76.0254 47H75.1123V43.2993H70.9873V47H70.0742V39.1475H70.9873V42.4937H75.1123V39.1475H76.0254V47ZM84.9951 43.063C84.9951 43.6681 84.9181 44.2196 84.7642 44.7173C84.6102 45.2114 84.381 45.6375 84.0767 45.9956C83.7759 46.3501 83.4017 46.624 82.9541 46.8174C82.5065 47.0107 81.9873 47.1074 81.3965 47.1074C80.7878 47.1074 80.256 47.0107 79.8013 46.8174C79.3501 46.624 78.9741 46.3483 78.6733 45.9902C78.3761 45.6322 78.1523 45.2043 78.002 44.7065C77.8551 44.2088 77.7817 43.6574 77.7817 43.0522C77.7817 42.2502 77.9142 41.5465 78.1792 40.9414C78.4442 40.3363 78.8452 39.8654 79.3823 39.5288C79.923 39.1922 80.5998 39.0239 81.4126 39.0239C82.1896 39.0239 82.8431 39.1904 83.373 39.5234C83.9066 39.8564 84.3094 40.3255 84.5815 40.9307C84.8573 41.5322 84.9951 42.243 84.9951 43.063ZM78.7432 43.063C78.7432 43.729 78.8381 44.3055 79.0278 44.7925C79.2176 45.2795 79.5076 45.6554 79.8979 45.9204C80.2918 46.1854 80.7913 46.3179 81.3965 46.3179C82.0052 46.3179 82.5029 46.1854 82.8896 45.9204C83.2799 45.6554 83.5682 45.2795 83.7544 44.7925C83.9406 44.3055 84.0337 43.729 84.0337 43.063C84.0337 42.0496 83.8206 41.2583 83.3945 40.689C82.972 40.116 82.3114 39.8296 81.4126 39.8296C80.8039 39.8296 80.3026 39.9603 79.9087 40.2217C79.5148 40.4831 79.2212 40.8555 79.0278 41.3389C78.8381 41.8187 78.7432 42.3934 78.7432 43.063ZM90.1997 47L87.5625 40.0498H87.5195C87.5339 40.1966 87.5464 40.3757 87.5571 40.5869C87.5679 40.7982 87.5768 41.0291 87.584 41.2798C87.5911 41.5269 87.5947 41.7793 87.5947 42.0371V47H86.7461V39.1475H88.0996L90.5864 45.6787H90.624L93.1484 39.1475H94.4912V47H93.5889V41.9727C93.5889 41.7399 93.5924 41.5072 93.5996 41.2744C93.6068 41.0381 93.6157 40.8161 93.6265 40.6084C93.6372 40.3971 93.6479 40.2145 93.6587 40.0605H93.6157L90.9463 47H90.1997ZM101.012 47H96.6396V39.1475H101.012V39.9531H97.5527V42.4937H100.813V43.2886H97.5527V46.1943H101.012V47ZM106.206 47L103.568 40.0498H103.525C103.54 40.1966 103.552 40.3757 103.563 40.5869C103.574 40.7982 103.583 41.0291 103.59 41.2798C103.597 41.5269 103.601 41.7793 103.601 42.0371V47H102.752V39.1475H104.105L106.592 45.6787H106.63L109.154 39.1475H110.497V47H109.595V41.9727C109.595 41.7399 109.598 41.5072 109.605 41.2744C109.613 41.0381 109.622 40.8161 109.632 40.6084C109.643 40.3971 109.654 40.2145 109.665 40.0605H109.622L106.952 47H106.206ZM117.571 47L116.604 44.5078H113.457L112.495 47H111.571L114.644 39.1152H115.465L118.516 47H117.571ZM116.33 43.6968L115.412 41.2207C115.39 41.1562 115.354 41.0506 115.304 40.9038C115.258 40.757 115.209 40.6048 115.159 40.4473C115.109 40.2897 115.068 40.1626 115.036 40.0659C115 40.2127 114.96 40.3595 114.917 40.5063C114.878 40.6496 114.839 40.7839 114.799 40.9092C114.76 41.0309 114.726 41.1348 114.697 41.2207L113.763 43.6968H116.33ZM125.842 42.9985C125.842 43.883 125.681 44.6224 125.359 45.2168C125.037 45.8076 124.569 46.2534 123.957 46.5542C123.348 46.8514 122.609 47 121.739 47H119.606V39.1475H121.975C122.774 39.1475 123.461 39.2943 124.038 39.5879C124.614 39.8779 125.058 40.3094 125.37 40.8823C125.685 41.4517 125.842 42.1571 125.842 42.9985ZM124.881 43.0308C124.881 42.3254 124.763 41.7435 124.526 41.2852C124.294 40.8268 123.95 40.4867 123.495 40.2646C123.044 40.0391 122.491 39.9263 121.835 39.9263H120.52V46.2158H121.631C122.713 46.2158 123.524 45.9491 124.064 45.4155C124.609 44.882 124.881 44.0871 124.881 43.0308ZM131.96 47H127.588V39.1475H131.96V39.9531H128.501V42.4937H131.761V43.2886H128.501V46.1943H131.96V47ZM137.471 47H136.558V39.1475H140.93V39.9531H137.471V42.832H140.72V43.6323H137.471V47ZM149.051 43.063C149.051 43.6681 148.974 44.2196 148.82 44.7173C148.666 45.2114 148.437 45.6375 148.132 45.9956C147.832 46.3501 147.457 46.624 147.01 46.8174C146.562 47.0107 146.043 47.1074 145.452 47.1074C144.843 47.1074 144.312 47.0107 143.857 46.8174C143.406 46.624 143.03 46.3483 142.729 45.9902C142.432 45.6322 142.208 45.2043 142.058 44.7065C141.911 44.2088 141.837 43.6574 141.837 43.0522C141.837 42.2502 141.97 41.5465 142.235 40.9414C142.5 40.3363 142.901 39.8654 143.438 39.5288C143.979 39.1922 144.655 39.0239 145.468 39.0239C146.245 39.0239 146.899 39.1904 147.429 39.5234C147.962 39.8564 148.365 40.3255 148.637 40.9307C148.913 41.5322 149.051 42.243 149.051 43.063ZM142.799 43.063C142.799 43.729 142.894 44.3055 143.083 44.7925C143.273 45.2795 143.563 45.6554 143.954 45.9204C144.347 46.1854 144.847 46.3179 145.452 46.3179C146.061 46.3179 146.559 46.1854 146.945 45.9204C147.336 45.6554 147.624 45.2795 147.81 44.7925C147.996 44.3055 148.089 43.729 148.089 43.063C148.089 42.0496 147.876 41.2583 147.45 40.689C147.028 40.116 146.367 39.8296 145.468 39.8296C144.86 39.8296 144.358 39.9603 143.964 40.2217C143.57 40.4831 143.277 40.8555 143.083 41.3389C142.894 41.8187 142.799 42.3934 142.799 43.063ZM157.612 43.063C157.612 43.6681 157.535 44.2196 157.381 44.7173C157.227 45.2114 156.998 45.6375 156.694 45.9956C156.393 46.3501 156.019 46.624 155.571 46.8174C155.124 47.0107 154.604 47.1074 154.014 47.1074C153.405 47.1074 152.873 47.0107 152.418 46.8174C151.967 46.624 151.591 46.3483 151.291 45.9902C150.993 45.6322 150.77 45.2043 150.619 44.7065C150.472 44.2088 150.399 43.6574 150.399 43.0522C150.399 42.2502 150.531 41.5465 150.796 40.9414C151.061 40.3363 151.462 39.8654 152 39.5288C152.54 39.1922 153.217 39.0239 154.03 39.0239C154.807 39.0239 155.46 39.1904 155.99 39.5234C156.524 39.8564 156.927 40.3255 157.199 40.9307C157.474 41.5322 157.612 42.243 157.612 43.063ZM151.36 43.063C151.36 43.729 151.455 44.3055 151.645 44.7925C151.835 45.2795 152.125 45.6554 152.515 45.9204C152.909 46.1854 153.409 46.3179 154.014 46.3179C154.622 46.3179 155.12 46.1854 155.507 45.9204C155.897 45.6554 156.185 45.2795 156.372 44.7925C156.558 44.3055 156.651 43.729 156.651 43.063C156.651 42.0496 156.438 41.2583 156.012 40.689C155.589 40.116 154.929 39.8296 154.03 39.8296C153.421 39.8296 152.92 39.9603 152.526 40.2217C152.132 40.4831 151.838 40.8555 151.645 41.3389C151.455 41.8187 151.36 42.3934 151.36 43.063ZM165.599 42.9985C165.599 43.883 165.438 44.6224 165.116 45.2168C164.793 45.8076 164.326 46.2534 163.714 46.5542C163.105 46.8514 162.366 47 161.496 47H159.363V39.1475H161.732C162.53 39.1475 163.218 39.2943 163.794 39.5879C164.371 39.8779 164.815 40.3094 165.126 40.8823C165.442 41.4517 165.599 42.1571 165.599 42.9985ZM164.638 43.0308C164.638 42.3254 164.52 41.7435 164.283 41.2852C164.05 40.8268 163.707 40.4867 163.252 40.2646C162.801 40.0391 162.248 39.9263 161.592 39.9263H160.276V46.2158H161.388C162.47 46.2158 163.281 45.9491 163.821 45.4155C164.366 44.882 164.638 44.0871 164.638 43.0308Z" fill="white"/>
</svg>
