<svg width="178" height="196" viewBox="0 0 178 196" fill="none" xmlns="http://www.w3.org/2000/svg">
<path fill-rule="evenodd" clip-rule="evenodd" d="M96.5097 108.944L96.4285 96.5342C96.4285 92.1983 98.5903 90.4283 100.894 88.5418C103.897 86.0831 107.142 83.4265 106.157 74.6337L102.921 16.5949C102.814 13.9944 99.7902 13.9461 99.8829 16.5476L99.3906 66.2448C99.1405 70.2946 94.4924 69.6242 94.6403 65.3668L94.0429 16.4918C94.0429 13.5752 91.1053 14.1643 91.0779 16.7073L90.2764 66.5594C90.1826 69.7353 85.6369 69.4264 85.732 66.4104L85.051 16.4122C85.051 14.1556 82.2515 13.9331 82.1928 16.144L81.3743 66.6282C81.156 70.0764 76.6664 69.6125 76.899 65.8886L76.3368 16.5544C76.3729 13.769 73.6083 13.9148 73.4808 16.5544L69.8169 77.0685C69.772 83.8755 72.4238 86.0035 74.9993 88.0703C77.3548 89.9606 79.6465 91.7997 79.7529 97.1203L79.7405 109C64.0563 106.495 51.296 96.9312 43.5308 84.1215C44.2985 83.8436 45.1858 83.6834 46.1649 83.6678C49.6101 83.6183 53.5474 81.6615 53.5543 77.7867C53.5543 73.6894 50.198 71.4324 45.4677 71.33C41.3663 71.2346 38.427 68.6561 38.1297 65.8374C37.8323 62.9164 40.3 60.2284 44.8183 59.9246C49.4119 59.6032 53.421 57.2049 53.421 50.8541C53.421 43.977 48.3728 42.1756 43.5469 42.3027C40.9924 42.3707 38.8556 41.3246 37.3281 39.6403C38.3016 36.1634 39.6317 32.7155 41.3417 29.34C42.2681 29.573 43.2698 29.66 44.3364 29.5799C49.9758 29.156 53.4927 24.3876 53.4927 18.5137C53.4927 16.8966 53.2286 15.3679 52.7281 14.0016C72.6018 -4.70935 103.652 -4.63594 123.416 14.0345C122.923 15.3924 122.663 16.9096 122.663 18.5137C122.663 24.3876 126.18 29.156 131.82 29.5799C132.856 29.6578 133.832 29.5778 134.736 29.3592C136.448 32.7626 137.775 36.2356 138.741 39.7349C137.22 41.3637 135.115 42.3695 132.609 42.3027C127.783 42.1756 122.735 43.977 122.735 50.8541C122.735 57.2049 126.744 59.6032 131.338 59.9246C135.856 60.2284 138.324 62.9164 138.026 65.8374C137.729 68.6561 134.79 71.2346 130.688 71.33C125.958 71.4324 122.602 73.6894 122.602 77.7867C122.609 81.6615 126.546 83.6183 129.991 83.6678C130.895 83.6822 131.72 83.8197 132.445 84.0593C124.698 96.8143 112.017 106.351 96.5097 108.944Z" fill="#3E9300"/>
<mask id="path-2-outside-1_2728_1652" maskUnits="userSpaceOnUse" x="-0.671875" y="131" width="179" height="38" fill="black">
<rect fill="white" x="-0.671875" y="131" width="179" height="38"/>
<path d="M6.00413 166.396C4.68413 166.396 3.74546 166.205 3.18813 165.824C2.63079 165.413 2.29346 164.9 2.17613 164.284C2.05879 163.639 2.00013 162.993 2.00013 162.348V139.6C2.00013 138.075 2.29346 137.033 2.88013 136.476C3.49613 135.889 4.58146 135.596 6.13612 135.596H22.2401C22.9148 135.596 23.5455 135.655 24.1321 135.772C24.7481 135.889 25.2468 136.227 25.6281 136.784C26.0388 137.341 26.2441 138.295 26.2441 139.644C26.2441 140.964 26.0388 141.903 25.6281 142.46C25.2468 143.017 24.7481 143.355 24.1321 143.472C23.5161 143.589 22.8708 143.648 22.1961 143.648H10.0521V147.564H18.1921C18.8668 147.564 19.4681 147.623 19.9961 147.74C20.5241 147.828 20.9495 148.107 21.2721 148.576C21.5948 149.045 21.7561 149.867 21.7561 151.04C21.7561 152.155 21.5948 152.961 21.2721 153.46C20.9495 153.929 20.5095 154.208 19.9521 154.296C19.3948 154.384 18.7788 154.428 18.1041 154.428H10.0521V158.344H22.2401C22.9148 158.344 23.5455 158.403 24.1321 158.52C24.7481 158.637 25.2468 158.975 25.6281 159.532C26.0388 160.089 26.2441 161.043 26.2441 162.392C26.2441 163.712 26.0388 164.651 25.6281 165.208C25.2468 165.765 24.7481 166.103 24.1321 166.22C23.5161 166.337 22.8708 166.396 22.1961 166.396H6.00413ZM48.0238 166.308C46.7038 166.308 45.7212 166.088 45.0758 165.648C44.4598 165.208 44.1665 164.709 44.1958 164.152H44.8118C44.6652 164.357 44.3718 164.636 43.9318 164.988C43.5212 165.311 42.9638 165.619 42.2598 165.912C41.5558 166.176 40.6905 166.308 39.6638 166.308C38.3438 166.308 37.0678 166.015 35.8358 165.428C34.6332 164.812 33.5478 163.976 32.5798 162.92C31.6412 161.864 30.8932 160.676 30.3358 159.356C29.7785 158.007 29.4998 156.599 29.4998 155.132C29.4998 153.695 29.7785 152.316 30.3358 150.996C30.8932 149.676 31.6558 148.503 32.6238 147.476C33.5918 146.42 34.6772 145.599 35.8798 145.012C37.0825 144.396 38.3438 144.088 39.6638 144.088C40.6612 144.088 41.4972 144.235 42.1718 144.528C42.8758 144.821 43.4332 145.144 43.8438 145.496C44.2838 145.848 44.5772 146.141 44.7238 146.376H44.2398C44.2105 145.643 44.5038 145.071 45.1198 144.66C45.7652 144.249 46.7478 144.044 48.0678 144.044C49.3878 144.044 50.3118 144.249 50.8398 144.66C51.3972 145.041 51.7345 145.54 51.8518 146.156C51.9692 146.772 52.0278 147.403 52.0278 148.048V162.348C52.0278 162.993 51.9692 163.624 51.8518 164.24C51.7345 164.856 51.3972 165.355 50.8398 165.736C50.3118 166.117 49.3732 166.308 48.0238 166.308ZM40.7638 158.344C41.3212 158.344 41.8198 158.197 42.2598 157.904C42.7292 157.611 43.0958 157.229 43.3598 156.76C43.6532 156.261 43.7998 155.733 43.7998 155.176C43.7998 154.589 43.6532 154.061 43.3598 153.592C43.0958 153.123 42.7292 152.741 42.2598 152.448C41.7905 152.155 41.2625 152.008 40.6758 152.008C40.0892 152.008 39.5465 152.155 39.0478 152.448C38.5785 152.741 38.1972 153.137 37.9038 153.636C37.6105 154.105 37.4638 154.633 37.4638 155.22C37.4638 155.777 37.6105 156.291 37.9038 156.76C38.2265 157.229 38.6372 157.611 39.1358 157.904C39.6345 158.197 40.1772 158.344 40.7638 158.344ZM68.62 166.396C67.0654 166.396 65.716 166.22 64.572 165.868C63.428 165.516 62.4747 164.973 61.712 164.24C60.9787 163.507 60.4214 162.583 60.04 161.468C59.688 160.353 59.512 159.048 59.512 157.552V140.48C59.512 139.805 59.5707 139.189 59.688 138.632C59.8054 138.045 60.1427 137.576 60.7 137.224C61.2574 136.843 62.196 136.652 63.516 136.652C64.8067 136.652 65.7307 136.857 66.288 137.268C66.8454 137.649 67.1827 138.148 67.3 138.764C67.4174 139.38 67.476 140.011 67.476 140.656V157.156C67.476 157.479 67.4907 157.757 67.52 157.992C67.5787 158.197 67.652 158.359 67.74 158.476C67.828 158.593 67.9454 158.681 68.092 158.74C68.2387 158.799 68.4294 158.828 68.664 158.828C69.4267 158.828 70.1014 158.887 70.688 159.004C71.304 159.121 71.7734 159.429 72.096 159.928C72.448 160.427 72.624 161.263 72.624 162.436C72.624 163.756 72.4187 164.695 72.008 165.252C71.5974 165.809 71.084 166.132 70.468 166.22C69.852 166.337 69.236 166.396 68.62 166.396ZM58.588 144.308H63.736L69.808 144.088C70.4534 144.088 71.0694 144.147 71.656 144.264C72.272 144.381 72.7707 144.719 73.152 145.276C73.5627 145.833 73.768 146.787 73.768 148.136C73.768 149.368 73.5627 150.263 73.152 150.82C72.7707 151.377 72.272 151.729 71.656 151.876C71.0694 152.023 70.4387 152.096 69.764 152.096L64.176 151.964H58.412C57.4147 151.905 56.7254 151.583 56.344 150.996C55.9627 150.409 55.772 149.441 55.772 148.092C55.772 146.831 56.0067 145.892 56.476 145.276C56.9454 144.631 57.6494 144.308 58.588 144.308ZM87.7522 166.352C86.8135 166.352 86.0802 166.161 85.5522 165.78C85.0242 165.399 84.6429 164.988 84.4082 164.548C84.1735 164.079 84.0269 163.771 83.9682 163.624L76.0482 140.92C75.6082 139.453 75.5349 138.368 75.8282 137.664C76.1509 136.931 77.0749 136.315 78.6002 135.816C79.5975 135.493 80.4042 135.347 81.0202 135.376C81.6362 135.405 82.1495 135.655 82.5602 136.124C82.9709 136.593 83.3375 137.327 83.6602 138.324L88.2362 151.7L91.8442 138.544C91.9322 138.251 92.0789 137.869 92.2842 137.4C92.5189 136.931 92.9002 136.52 93.4282 136.168C93.9562 135.787 94.7189 135.596 95.7162 135.596C96.8309 135.596 97.6522 135.801 98.1802 136.212C98.7375 136.623 99.1189 137.063 99.3242 137.532C99.5295 138.001 99.6762 138.353 99.7642 138.588L103.372 151.788L107.948 138.324C108.271 137.356 108.623 136.637 109.004 136.168C109.415 135.669 109.943 135.391 110.588 135.332C111.234 135.273 112.055 135.42 113.052 135.772C114.108 136.153 114.856 136.564 115.296 137.004C115.736 137.415 115.956 137.928 115.956 138.544C115.986 139.16 115.854 139.952 115.56 140.92L107.684 163.624C107.626 163.8 107.479 164.108 107.244 164.548C107.039 164.988 106.672 165.399 106.144 165.78C105.616 166.161 104.854 166.352 103.856 166.352C102.859 166.352 102.082 166.132 101.524 165.692C100.967 165.223 100.571 164.753 100.336 164.284C100.102 163.785 99.9695 163.492 99.9402 163.404L95.8042 149.852L91.6682 163.36C91.6389 163.507 91.5069 163.829 91.2722 164.328C91.0375 164.797 90.6415 165.252 90.0842 165.692C89.5562 166.132 88.7789 166.352 87.7522 166.352ZM122.84 166.396C121.52 166.396 120.581 166.205 120.024 165.824C119.467 165.413 119.129 164.9 119.012 164.284C118.924 163.668 118.88 163.037 118.88 162.392V148.048C118.88 147.403 118.939 146.787 119.056 146.2C119.173 145.584 119.511 145.085 120.068 144.704C120.625 144.293 121.564 144.088 122.884 144.088C124.204 144.088 125.128 144.293 125.656 144.704C126.213 145.085 126.551 145.584 126.668 146.2C126.785 146.816 126.844 147.461 126.844 148.136V162.436C126.844 163.081 126.785 163.712 126.668 164.328C126.551 164.944 126.213 165.443 125.656 165.824C125.128 166.205 124.189 166.396 122.84 166.396ZM122.84 141.932C121.52 141.932 120.581 141.741 120.024 141.36C119.467 140.949 119.129 140.436 119.012 139.82C118.924 139.204 118.88 138.573 118.88 137.928C118.88 137.253 118.939 136.623 119.056 136.036C119.173 135.42 119.511 134.921 120.068 134.54C120.625 134.159 121.564 133.968 122.884 133.968C124.204 133.968 125.128 134.173 125.656 134.584C126.213 134.965 126.551 135.464 126.668 136.08C126.785 136.696 126.844 137.327 126.844 137.972C126.844 138.617 126.785 139.248 126.668 139.864C126.551 140.48 126.213 140.979 125.656 141.36C125.128 141.741 124.189 141.932 122.84 141.932ZM140.019 166.792C139.197 166.792 138.273 166.689 137.247 166.484C136.249 166.308 135.267 166.044 134.299 165.692C133.36 165.311 132.583 164.871 131.967 164.372C131.351 163.873 131.043 163.301 131.043 162.656C131.043 162.363 131.101 162.04 131.219 161.688C131.365 161.307 131.556 160.896 131.791 160.456C132.025 160.016 132.319 159.547 132.671 159.048C132.876 158.755 133.111 158.535 133.375 158.388C133.668 158.241 134.005 158.168 134.387 158.168C134.915 158.168 135.428 158.285 135.927 158.52C136.425 158.725 136.924 158.975 137.423 159.268C137.921 159.532 138.435 159.781 138.963 160.016C139.52 160.221 140.107 160.324 140.723 160.324C141.28 160.324 141.691 160.265 141.955 160.148C142.248 160.031 142.395 159.855 142.395 159.62C142.395 159.385 142.292 159.195 142.087 159.048C141.911 158.901 141.647 158.784 141.295 158.696C140.972 158.579 140.591 158.476 140.151 158.388C139.711 158.3 139.241 158.197 138.743 158.08C138.244 157.963 137.731 157.816 137.203 157.64C136.528 157.435 135.868 157.171 135.223 156.848C134.577 156.496 133.991 156.041 133.463 155.484C132.964 154.927 132.553 154.252 132.231 153.46C131.937 152.668 131.791 151.7 131.791 150.556C131.791 149.031 132.143 147.755 132.847 146.728C133.551 145.701 134.592 144.924 135.971 144.396C137.349 143.868 139.051 143.604 141.075 143.604C141.573 143.604 142.072 143.633 142.571 143.692C143.069 143.751 143.568 143.839 144.067 143.956C144.595 144.073 145.108 144.235 145.607 144.44C146.135 144.616 146.663 144.821 147.191 145.056C148.276 145.525 148.833 146.185 148.863 147.036C148.892 147.857 148.584 148.723 147.939 149.632C147.587 150.189 147.22 150.615 146.839 150.908C146.487 151.172 146.12 151.304 145.739 151.304C145.269 151.304 144.756 151.172 144.199 150.908C143.641 150.644 143.055 150.38 142.439 150.116C141.823 149.852 141.207 149.72 140.591 149.72C140.239 149.72 139.931 149.764 139.667 149.852C139.432 149.911 139.256 150.013 139.139 150.16C139.021 150.277 138.963 150.424 138.963 150.6C138.963 150.923 139.065 151.187 139.271 151.392C139.505 151.568 139.799 151.715 140.151 151.832C140.532 151.949 140.957 152.052 141.427 152.14C141.925 152.228 142.453 152.316 143.011 152.404C143.773 152.521 144.551 152.712 145.343 152.976C146.164 153.211 146.912 153.563 147.587 154.032C148.261 154.501 148.804 155.147 149.215 155.968C149.625 156.789 149.831 157.86 149.831 159.18C149.831 161.673 148.995 163.565 147.323 164.856C145.68 166.147 143.245 166.792 140.019 166.792ZM165.164 166.88C162.964 166.88 161.102 166.528 159.576 165.824C158.051 165.091 156.819 164.152 155.88 163.008C154.942 161.835 154.252 160.573 153.812 159.224C153.372 157.875 153.152 156.569 153.152 155.308C153.152 152.991 153.666 150.952 154.692 149.192C155.719 147.432 157.142 146.053 158.96 145.056C160.779 144.059 162.862 143.56 165.208 143.56C167.027 143.56 168.582 143.853 169.872 144.44C171.163 145.027 172.204 145.775 172.996 146.684C173.818 147.593 174.419 148.561 174.8 149.588C175.182 150.615 175.372 151.568 175.372 152.448C175.372 154.12 174.962 155.396 174.14 156.276C173.319 157.156 172.263 157.596 170.972 157.596H161.6C161.718 158.065 161.952 158.476 162.304 158.828C162.686 159.151 163.155 159.415 163.712 159.62C164.27 159.796 164.871 159.884 165.516 159.884C166.162 159.884 166.734 159.855 167.232 159.796C167.731 159.708 168.156 159.605 168.508 159.488C168.89 159.371 169.227 159.253 169.52 159.136C169.843 159.019 170.122 158.931 170.356 158.872C170.62 158.784 170.87 158.74 171.104 158.74C171.632 158.74 172.116 158.916 172.556 159.268C172.996 159.62 173.392 160.148 173.744 160.852C173.95 161.233 174.096 161.6 174.184 161.952C174.272 162.275 174.316 162.583 174.316 162.876C174.316 163.756 173.95 164.489 173.216 165.076C172.512 165.663 171.486 166.103 170.136 166.396C168.787 166.719 167.13 166.88 165.164 166.88ZM161.6 153.46H166.528C166.939 153.46 167.232 153.372 167.408 153.196C167.614 153.02 167.716 152.756 167.716 152.404C167.716 152.023 167.599 151.7 167.364 151.436C167.159 151.172 166.866 150.981 166.484 150.864C166.103 150.717 165.648 150.644 165.12 150.644C164.416 150.644 163.8 150.791 163.272 151.084C162.744 151.348 162.334 151.7 162.04 152.14C161.776 152.551 161.63 152.991 161.6 153.46Z"/>
</mask>
<path d="M3.18813 165.824L2.00173 167.434L2.02989 167.455L2.05876 167.475L3.18813 165.824ZM2.17613 164.284L0.208385 164.642L0.209882 164.65L0.211448 164.658L2.17613 164.284ZM2.88013 136.476L4.25762 137.926L4.25944 137.924L2.88013 136.476ZM24.1321 135.772L23.7399 137.733L23.7489 137.735L23.7579 137.737L24.1321 135.772ZM25.6281 136.784L23.9775 137.913L23.9973 137.942L24.018 137.97L25.6281 136.784ZM25.6281 142.46L24.018 141.274L23.9973 141.302L23.9775 141.331L25.6281 142.46ZM24.1321 143.472L23.7579 141.507V141.507L24.1321 143.472ZM10.0521 143.648V141.648H8.05213V143.648H10.0521ZM10.0521 147.564H8.05213V149.564H10.0521V147.564ZM19.9961 147.74L19.5623 149.692L19.6145 149.704L19.6673 149.713L19.9961 147.74ZM21.2721 148.576L19.624 149.709L19.624 149.709L21.2721 148.576ZM21.2721 153.46L22.9202 154.593L22.9361 154.57L22.9513 154.547L21.2721 153.46ZM19.9521 154.296L20.264 156.272H20.2641L19.9521 154.296ZM10.0521 154.428V152.428H8.05213V154.428H10.0521ZM10.0521 158.344H8.05213V160.344H10.0521V158.344ZM24.1321 158.52L23.7399 160.481L23.7489 160.483L23.7579 160.485L24.1321 158.52ZM25.6281 159.532L23.9775 160.661L23.9973 160.69L24.018 160.718L25.6281 159.532ZM25.6281 165.208L24.018 164.022L23.9973 164.05L23.9775 164.079L25.6281 165.208ZM24.1321 166.22L23.7579 164.255H23.7579L24.1321 166.22ZM6.00413 166.396V164.396C5.4316 164.396 5.0079 164.354 4.70825 164.293C4.39945 164.23 4.30371 164.164 4.31749 164.173L3.18813 165.824L2.05876 167.475C3.14095 168.215 4.60344 168.396 6.00413 168.396V166.396ZM3.18813 165.824L4.37452 164.214C4.17734 164.069 4.15365 163.977 4.1408 163.91L2.17613 164.284L0.211448 164.658C0.433265 165.823 1.08425 166.758 2.00173 167.434L3.18813 165.824ZM2.17613 164.284L4.14386 163.926C4.04764 163.397 4.00013 162.871 4.00013 162.348H2.00013H0.00012511C0.00012511 163.115 0.0699413 163.88 0.208385 164.642L2.17613 164.284ZM2.00013 162.348H4.00013V139.6H2.00013H0.00012511V162.348H2.00013ZM2.00013 139.6H4.00013C4.00013 138.952 4.06394 138.506 4.14521 138.217C4.22615 137.93 4.29882 137.887 4.25762 137.926L2.88013 136.476L1.50263 135.026C0.285742 136.182 0.00012511 137.963 0.00012511 139.6H2.00013ZM2.88013 136.476L4.25944 137.924C4.29699 137.889 4.71234 137.596 6.13613 137.596V135.596V133.596C4.45057 133.596 2.69526 133.89 1.50081 135.028L2.88013 136.476ZM6.13613 135.596V137.596H22.2401V135.596V133.596H6.13613V135.596ZM22.2401 135.596V137.596C22.7995 137.596 23.2975 137.645 23.7399 137.733L24.1321 135.772L24.5244 133.811C23.7934 133.665 23.0301 133.596 22.2401 133.596V135.596ZM24.1321 135.772L23.7579 137.737C23.8123 137.747 23.8692 137.755 23.9775 137.913L25.6281 136.784L27.2787 135.655C26.6243 134.698 25.6839 134.032 24.5063 133.807L24.1321 135.772ZM25.6281 136.784L24.018 137.97C24.0016 137.948 24.0692 138.033 24.135 138.338C24.1989 138.635 24.2441 139.061 24.2441 139.644H26.2441H28.2441C28.2441 138.21 28.0492 136.698 27.2382 135.598L25.6281 136.784ZM26.2441 139.644H24.2441C24.2441 140.21 24.1993 140.623 24.1363 140.911C24.0719 141.205 24.0054 141.291 24.018 141.274L25.6281 142.46L27.2382 143.646C28.0456 142.551 28.2441 141.06 28.2441 139.644H26.2441ZM25.6281 142.46L23.9775 141.331C23.8692 141.489 23.8123 141.497 23.7579 141.507L24.1321 143.472L24.5063 145.437C25.6839 145.212 26.6243 144.546 27.2787 143.589L25.6281 142.46ZM24.1321 143.472L23.7579 141.507C23.2742 141.599 22.7546 141.648 22.1961 141.648V143.648V145.648C22.987 145.648 23.7581 145.579 24.5064 145.437L24.1321 143.472ZM22.1961 143.648V141.648H10.0521V143.648V145.648H22.1961V143.648ZM10.0521 143.648H8.05213V147.564H10.0521H12.0521V143.648H10.0521ZM10.0521 147.564V149.564H18.1921V147.564V145.564H10.0521V147.564ZM18.1921 147.564V149.564C18.7551 149.564 19.2066 149.613 19.5623 149.692L19.9961 147.74L20.43 145.788C19.7296 145.632 18.9785 145.564 18.1921 145.564V147.564ZM19.9961 147.74L19.6673 149.713C19.6727 149.714 19.6675 149.713 19.6549 149.708C19.6421 149.704 19.6281 149.696 19.6151 149.688C19.6023 149.68 19.5962 149.673 19.5967 149.674C19.5975 149.675 19.6073 149.685 19.624 149.709L21.2721 148.576L22.9202 147.443C22.3119 146.558 21.4255 145.951 20.3249 145.767L19.9961 147.74ZM21.2721 148.576L19.624 149.709C19.5757 149.639 19.622 149.672 19.6726 149.929C19.7207 150.174 19.7561 150.535 19.7561 151.04H21.7561H23.7561C23.7561 149.812 23.6121 148.449 22.9202 147.443L21.2721 148.576ZM21.7561 151.04H19.7561C19.7561 151.509 19.7215 151.851 19.674 152.089C19.625 152.334 19.5757 152.4 19.593 152.373L21.2721 153.46L22.9513 154.547C23.5982 153.547 23.7561 152.253 23.7561 151.04H21.7561ZM21.2721 153.46L19.624 152.327C19.6115 152.345 19.6054 152.351 19.6077 152.348C19.6088 152.347 19.6113 152.345 19.6154 152.342C19.6194 152.339 19.6244 152.335 19.63 152.331C19.6357 152.328 19.6412 152.325 19.6464 152.322C19.6516 152.32 19.6556 152.318 19.658 152.317C19.6632 152.315 19.6585 152.318 19.6402 152.32L19.9521 154.296L20.2641 156.272C21.3693 156.097 22.2899 155.51 22.9202 154.593L21.2721 153.46ZM19.9521 154.296L19.6402 152.32C19.2037 152.389 18.6939 152.428 18.1041 152.428V154.428V156.428C18.8637 156.428 19.5859 156.379 20.264 156.272L19.9521 154.296ZM18.1041 154.428V152.428H10.0521V154.428V156.428H18.1041V154.428ZM10.0521 154.428H8.05213V158.344H10.0521H12.0521V154.428H10.0521ZM10.0521 158.344V160.344H22.2401V158.344V156.344H10.0521V158.344ZM22.2401 158.344V160.344C22.7995 160.344 23.2975 160.393 23.7399 160.481L24.1321 158.52L24.5244 156.559C23.7934 156.413 23.0301 156.344 22.2401 156.344V158.344ZM24.1321 158.52L23.7579 160.485C23.8123 160.495 23.8692 160.503 23.9775 160.661L25.6281 159.532L27.2787 158.403C26.6243 157.446 25.6839 156.78 24.5063 156.555L24.1321 158.52ZM25.6281 159.532L24.018 160.718C24.0016 160.696 24.0692 160.781 24.135 161.086C24.1989 161.383 24.2441 161.809 24.2441 162.392H26.2441H28.2441C28.2441 160.958 28.0492 159.446 27.2382 158.346L25.6281 159.532ZM26.2441 162.392H24.2441C24.2441 162.958 24.1993 163.371 24.1363 163.659C24.0719 163.953 24.0054 164.039 24.018 164.022L25.6281 165.208L27.2382 166.394C28.0456 165.299 28.2441 163.808 28.2441 162.392H26.2441ZM25.6281 165.208L23.9775 164.079C23.8692 164.237 23.8123 164.245 23.7579 164.255L24.1321 166.22L24.5063 168.185C25.6839 167.96 26.6243 167.294 27.2787 166.337L25.6281 165.208ZM24.1321 166.22L23.7579 164.255C23.2742 164.347 22.7546 164.396 22.1961 164.396V166.396V168.396C22.987 168.396 23.7581 168.327 24.5063 168.185L24.1321 166.22ZM22.1961 166.396V164.396H6.00413V166.396V168.396H22.1961V166.396ZM45.0758 165.648L43.9134 167.275L43.9311 167.288L43.9492 167.3L45.0758 165.648ZM44.1958 164.152V162.152H42.2983L42.1986 164.047L44.1958 164.152ZM44.8118 164.152L46.4393 165.314L48.6982 162.152H44.8118V164.152ZM43.9318 164.988L45.1675 166.561L45.1744 166.555L45.1812 166.55L43.9318 164.988ZM42.2598 165.912L42.9621 167.785L42.9958 167.772L43.0291 167.758L42.2598 165.912ZM35.8358 165.428L34.9241 167.208L34.9498 167.221L34.976 167.234L35.8358 165.428ZM32.5798 162.92L31.085 164.249L31.0952 164.26L31.1055 164.271L32.5798 162.92ZM30.3358 159.356L28.4873 160.12L28.4903 160.127L28.4933 160.134L30.3358 159.356ZM30.3358 150.996L28.4933 150.218V150.218L30.3358 150.996ZM32.6238 147.476L34.079 148.848L34.0887 148.838L34.0982 148.827L32.6238 147.476ZM35.8798 145.012L36.7567 146.81L36.7742 146.801L36.7916 146.792L35.8798 145.012ZM42.1718 144.528L41.3744 146.362L41.3885 146.368L41.4026 146.374L42.1718 144.528ZM43.8438 145.496L42.5423 147.015L42.568 147.037L42.5945 147.058L43.8438 145.496ZM44.7238 146.376V148.376H48.3323L46.4198 145.316L44.7238 146.376ZM44.2398 146.376L42.2414 146.456L42.3182 148.376H44.2398V146.376ZM45.1198 144.66L44.0461 142.973L44.0281 142.984L44.0104 142.996L45.1198 144.66ZM50.8398 144.66L49.612 146.239L49.6601 146.276L49.7105 146.311L50.8398 144.66ZM51.8518 146.156L49.8872 146.53L49.8872 146.53L51.8518 146.156ZM51.8518 164.24L49.8872 163.866L49.8872 163.866L51.8518 164.24ZM50.8398 165.736L49.7105 164.085L49.6895 164.1L49.6689 164.115L50.8398 165.736ZM42.2598 157.904L41.1998 156.208L41.1749 156.224L41.1504 156.24L42.2598 157.904ZM43.3598 156.76L41.636 155.746L41.6262 155.763L41.6167 155.779L43.3598 156.76ZM43.3598 153.592L41.6167 154.573L41.6394 154.613L41.6638 154.652L43.3598 153.592ZM42.2598 152.448L43.3198 150.752H43.3198L42.2598 152.448ZM39.0478 152.448L38.0338 150.724L38.0106 150.738L37.9878 150.752L39.0478 152.448ZM37.9038 153.636L39.5998 154.696L39.6141 154.673L39.6277 154.65L37.9038 153.636ZM37.9038 156.76L36.2078 157.82L36.231 157.857L36.2558 157.893L37.9038 156.76ZM39.1358 157.904L40.1499 156.18H40.1499L39.1358 157.904ZM48.0238 166.308V164.308C46.8575 164.308 46.3572 164.101 46.2025 163.996L45.0758 165.648L43.9492 167.3C45.0852 168.075 46.5502 168.308 48.0238 168.308V166.308ZM45.0758 165.648L46.2383 164.021C46.0912 163.915 46.0857 163.875 46.1177 163.93C46.1354 163.96 46.1583 164.009 46.1746 164.074C46.1911 164.14 46.1959 164.203 46.1931 164.257L44.1958 164.152L42.1986 164.047C42.1212 165.518 42.9615 166.596 43.9134 167.275L45.0758 165.648ZM44.1958 164.152V166.152H44.8118V164.152V162.152H44.1958V164.152ZM44.8118 164.152L43.1844 162.99C43.2155 162.946 43.2068 162.968 43.1043 163.065C43.0112 163.154 42.8739 163.273 42.6825 163.426L43.9318 164.988L45.1812 166.55C45.6327 166.189 46.1187 165.763 46.4393 165.314L44.8118 164.152ZM43.9318 164.988L42.6962 163.415C42.4769 163.588 42.0968 163.813 41.4906 164.066L42.2598 165.912L43.0291 167.758C43.8309 167.424 44.5655 167.034 45.1675 166.561L43.9318 164.988ZM42.2598 165.912L41.5576 164.039C41.1437 164.195 40.5325 164.308 39.6638 164.308V166.308V168.308C40.8486 168.308 41.968 168.157 42.9621 167.785L42.2598 165.912ZM39.6638 166.308V164.308C38.6515 164.308 37.6684 164.085 36.6957 163.622L35.8358 165.428L34.976 167.234C36.4673 167.944 38.0362 168.308 39.6638 168.308V166.308ZM35.8358 165.428L36.7476 163.648C35.7689 163.147 34.8713 162.46 34.0542 161.569L32.5798 162.92L31.1055 164.271C32.2244 165.492 33.4975 166.477 34.9241 167.208L35.8358 165.428ZM32.5798 162.92L34.0747 161.591C33.2833 160.701 32.6519 159.7 32.1783 158.578L30.3358 159.356L28.4933 160.134C29.1345 161.652 29.9991 163.027 31.085 164.249L32.5798 162.92ZM30.3358 159.356L32.1844 158.592C31.7275 157.486 31.4998 156.338 31.4998 155.132H29.4998H27.4998C27.4998 156.859 27.8295 158.527 28.4873 160.12L30.3358 159.356ZM29.4998 155.132H31.4998C31.4998 153.961 31.7253 152.847 32.1783 151.774L30.3358 150.996L28.4933 150.218C27.8317 151.785 27.4998 153.428 27.4998 155.132H29.4998ZM30.3358 150.996L32.1783 151.774C32.6445 150.67 33.277 149.699 34.079 148.848L32.6238 147.476L31.1687 146.104C30.0346 147.307 29.1419 148.682 28.4933 150.218L30.3358 150.996ZM32.6238 147.476L34.0982 148.827C34.9088 147.943 35.7949 147.279 36.7567 146.81L35.8798 145.012L35.003 143.214C33.5595 143.919 32.2749 144.897 31.1495 146.125L32.6238 147.476ZM35.8798 145.012L36.7916 146.792C37.719 146.317 38.6686 146.088 39.6638 146.088V144.088V142.088C38.0191 142.088 36.446 142.475 34.9681 143.232L35.8798 145.012ZM39.6638 144.088V146.088C40.4787 146.088 41.0238 146.21 41.3744 146.362L42.1718 144.528L42.9693 142.694C41.9705 142.26 40.8436 142.088 39.6638 142.088V144.088ZM42.1718 144.528L41.4026 146.374C41.9859 146.617 42.3412 146.842 42.5423 147.015L43.8438 145.496L45.1454 143.977C44.5251 143.446 43.7658 143.025 42.9411 142.682L42.1718 144.528ZM43.8438 145.496L42.5945 147.058C42.7757 147.203 42.8998 147.314 42.9796 147.394C43.0667 147.481 43.0639 147.494 43.0279 147.436L44.7238 146.376L46.4198 145.316C46.0846 144.78 45.5658 144.312 45.0932 143.934L43.8438 145.496ZM44.7238 146.376V144.376H44.2398V146.376V148.376H44.7238V146.376ZM44.2398 146.376L46.2382 146.296C46.2367 146.256 46.2404 146.244 46.2387 146.253C46.2378 146.257 46.236 146.265 46.2323 146.275C46.2286 146.286 46.2236 146.298 46.2175 146.31C46.2113 146.322 46.2048 146.332 46.1988 146.341C46.1928 146.349 46.1882 146.355 46.1863 146.357C46.1823 146.361 46.1927 146.348 46.2292 146.324L45.1198 144.66L44.0104 142.996C42.8206 143.789 42.1839 145.019 42.2414 146.456L44.2398 146.376ZM45.1198 144.66L46.1936 146.347C46.361 146.241 46.885 146.044 48.0678 146.044V144.044V142.044C46.6107 142.044 45.1694 142.258 44.0461 142.973L45.1198 144.66ZM48.0678 144.044V146.044C48.6344 146.044 49.0409 146.089 49.317 146.15C49.6018 146.214 49.6579 146.274 49.612 146.239L50.8398 144.66L52.0677 143.081C50.9808 142.236 49.4666 142.044 48.0678 142.044V144.044ZM50.8398 144.66L49.7105 146.311C49.8687 146.419 49.8768 146.476 49.8872 146.53L51.8518 146.156L53.8165 145.782C53.5922 144.604 52.9256 143.664 51.9692 143.009L50.8398 144.66ZM51.8518 146.156L49.8872 146.53C49.9803 147.019 50.0278 147.525 50.0278 148.048H52.0278H54.0278C54.0278 147.281 53.958 146.525 53.8165 145.782L51.8518 146.156ZM52.0278 148.048H50.0278V162.348H52.0278H54.0278V148.048H52.0278ZM52.0278 162.348H50.0278C50.0278 162.871 49.9803 163.377 49.8872 163.866L51.8518 164.24L53.8165 164.614C53.958 163.871 54.0278 163.115 54.0278 162.348H52.0278ZM51.8518 164.24L49.8872 163.866C49.8768 163.92 49.8687 163.977 49.7105 164.085L50.8398 165.736L51.9692 167.387C52.9256 166.732 53.5922 165.792 53.8165 164.614L51.8518 164.24ZM50.8398 165.736L49.6689 164.115C49.7177 164.079 49.6525 164.142 49.3417 164.205C49.0444 164.265 48.6144 164.308 48.0238 164.308V166.308V168.308C49.4248 168.308 50.9316 168.137 52.0108 167.357L50.8398 165.736ZM40.7638 158.344V160.344C41.6936 160.344 42.5825 160.093 43.3692 159.568L42.2598 157.904L41.1504 156.24C41.0572 156.302 40.9488 156.344 40.7638 156.344V158.344ZM42.2598 157.904L43.3198 159.6C44.065 159.134 44.6701 158.51 45.103 157.741L43.3598 156.76L41.6167 155.779C41.5216 155.949 41.3934 156.087 41.1998 156.208L42.2598 157.904ZM43.3598 156.76L45.0837 157.774C45.5507 156.98 45.7998 156.104 45.7998 155.176H43.7998H41.7998C41.7998 155.363 41.7557 155.542 41.636 155.746L43.3598 156.76ZM43.7998 155.176H45.7998C45.7998 154.238 45.5599 153.339 45.0558 152.532L43.3598 153.592L41.6638 154.652C41.7464 154.784 41.7998 154.941 41.7998 155.176H43.7998ZM43.3598 153.592L45.103 152.611C44.6701 151.842 44.065 151.218 43.3198 150.752L42.2598 152.448L41.1998 154.144C41.3934 154.265 41.5216 154.403 41.6167 154.573L43.3598 153.592ZM42.2598 152.448L43.3198 150.752C42.5133 150.248 41.6138 150.008 40.6758 150.008V152.008V154.008C40.9112 154.008 41.0677 154.061 41.1998 154.144L42.2598 152.448ZM40.6758 152.008V150.008C39.7379 150.008 38.8443 150.247 38.0338 150.724L39.0478 152.448L40.0619 154.172C40.2487 154.062 40.4405 154.008 40.6758 154.008V152.008ZM39.0478 152.448L37.9878 150.752C37.2331 151.224 36.6289 151.859 36.18 152.622L37.9038 153.636L39.6277 154.65C39.7655 154.416 39.9239 154.259 40.1078 154.144L39.0478 152.448ZM37.9038 153.636L36.2078 152.576C35.7037 153.383 35.4638 154.282 35.4638 155.22H37.4638H39.4638C39.4638 154.985 39.5173 154.828 39.5998 154.696L37.9038 153.636ZM37.4638 155.22H35.4638C35.4638 156.149 35.7144 157.03 36.2078 157.82L37.9038 156.76L39.5998 155.7C39.5066 155.551 39.4638 155.405 39.4638 155.22H37.4638ZM37.9038 156.76L36.2558 157.893C36.7467 158.607 37.3753 159.189 38.1218 159.628L39.1358 157.904L40.1499 156.18C39.8991 156.033 39.7063 155.851 39.5519 155.627L37.9038 156.76ZM39.1358 157.904L38.1218 159.628C38.9323 160.105 39.8259 160.344 40.7638 160.344V158.344V156.344C40.5285 156.344 40.3367 156.29 40.1499 156.18L39.1358 157.904ZM61.712 164.24L60.2978 165.654L60.3117 165.668L60.3258 165.682L61.712 164.24ZM60.04 161.468L58.1329 162.07L58.14 162.093L58.1477 162.115L60.04 161.468ZM59.688 138.632L61.6451 139.044L61.6472 139.034L61.6492 139.024L59.688 138.632ZM60.7 137.224L61.768 138.915L61.7991 138.895L61.8294 138.875L60.7 137.224ZM66.288 137.268L65.1016 138.878L65.1298 138.899L65.1587 138.919L66.288 137.268ZM67.3 138.764L65.3354 139.138V139.138L67.3 138.764ZM67.52 157.992L65.5355 158.24L65.5546 158.393L65.597 158.541L67.52 157.992ZM67.74 158.476L66.14 159.676L66.14 159.676L67.74 158.476ZM70.688 159.004L70.2958 160.965L70.3048 160.967L70.3138 160.969L70.688 159.004ZM72.096 159.928L70.4169 161.015L70.4388 161.048L70.4621 161.081L72.096 159.928ZM72.008 165.252L73.6181 166.438L72.008 165.252ZM70.468 166.22L70.1852 164.24L70.1393 164.247L70.0938 164.255L70.468 166.22ZM63.736 144.308V146.308H63.7723L63.8084 146.307L63.736 144.308ZM69.808 144.088V142.088H69.7718L69.7356 142.089L69.808 144.088ZM71.656 144.264L71.2638 146.225L71.2728 146.227L71.2818 146.229L71.656 144.264ZM73.152 145.276L71.5014 146.405L71.5212 146.434L71.5419 146.462L73.152 145.276ZM73.152 150.82L71.5419 149.634L71.5212 149.662L71.5014 149.691L73.152 150.82ZM71.656 151.876L71.1928 149.93L71.1819 149.933L71.171 149.936L71.656 151.876ZM69.764 152.096L69.7168 154.095L69.7404 154.096H69.764V152.096ZM64.176 151.964L64.2233 149.965L64.1996 149.964H64.176V151.964ZM58.412 151.964L58.2946 153.961L58.3533 153.964H58.412V151.964ZM56.344 150.996L58.0209 149.906V149.906L56.344 150.996ZM56.476 145.276L58.0669 146.488L58.0804 146.47L58.0935 146.452L56.476 145.276ZM68.62 166.396V164.396C67.2086 164.396 66.0665 164.235 65.1602 163.956L64.572 165.868L63.9839 167.78C65.3655 168.205 66.9221 168.396 68.62 168.396V166.396ZM64.572 165.868L65.1602 163.956C64.2757 163.684 63.6073 163.288 63.0983 162.798L61.712 164.24L60.3258 165.682C61.3421 166.659 62.5803 167.348 63.9839 167.78L64.572 165.868ZM61.712 164.24L63.1262 162.826C62.6364 162.336 62.2284 161.686 61.9324 160.821L60.04 161.468L58.1477 162.115C58.6143 163.479 59.321 164.677 60.2978 165.654L61.712 164.24ZM60.04 161.468L61.9472 160.866C61.6712 159.992 61.512 158.898 61.512 157.552H59.512H57.512C57.512 159.198 57.7049 160.715 58.1329 162.07L60.04 161.468ZM59.512 157.552H61.512V140.48H59.512H57.512V157.552H59.512ZM59.512 140.48H61.512C61.512 139.919 61.561 139.444 61.6451 139.044L59.688 138.632L57.7309 138.22C57.5804 138.935 57.512 139.691 57.512 140.48H59.512ZM59.688 138.632L61.6492 139.024C61.6523 139.009 61.6548 139.004 61.6543 139.005C61.6536 139.006 61.6526 139.008 61.6531 139.007C61.6537 139.006 61.6596 138.998 61.6758 138.983C61.6924 138.968 61.7213 138.944 61.768 138.915L60.7 137.224L59.632 135.533C58.6639 136.144 57.9631 137.059 57.7269 138.24L59.688 138.632ZM60.7 137.224L61.8294 138.875C61.8156 138.884 61.9114 138.818 62.2202 138.755C62.5198 138.694 62.9435 138.652 63.516 138.652V136.652V134.652C62.1153 134.652 60.6529 134.833 59.5707 135.573L60.7 137.224ZM63.516 136.652V138.652C64.0642 138.652 64.4644 138.696 64.7432 138.758C65.0271 138.821 65.1135 138.887 65.1016 138.878L66.288 137.268L67.4744 135.658C66.3839 134.854 64.9149 134.652 63.516 134.652V136.652ZM66.288 137.268L65.1587 138.919C65.3169 139.027 65.325 139.084 65.3354 139.138L67.3 138.764L69.2647 138.39C69.0404 137.212 68.3738 136.272 67.4174 135.617L66.288 137.268ZM67.3 138.764L65.3354 139.138C65.4285 139.627 65.476 140.133 65.476 140.656H67.476H69.476C69.476 139.889 69.4062 139.133 69.2647 138.39L67.3 138.764ZM67.476 140.656H65.476V157.156H67.476H69.476V140.656H67.476ZM67.476 157.156H65.476C65.476 157.534 65.4929 157.9 65.5355 158.24L67.52 157.992L69.5046 157.744C69.4885 157.615 69.476 157.423 69.476 157.156H67.476ZM67.52 157.992L65.597 158.541C65.6948 158.884 65.855 159.296 66.14 159.676L67.74 158.476L69.34 157.276C69.3986 157.354 69.4285 157.415 69.4398 157.439C69.4513 157.465 69.4505 157.469 69.4431 157.443L67.52 157.992ZM67.74 158.476L66.14 159.676C66.4651 160.109 66.8892 160.413 67.3493 160.597L68.092 158.74L68.8348 156.883C69.0015 156.95 69.191 157.077 69.34 157.276L67.74 158.476ZM68.092 158.74L67.3493 160.597C67.8177 160.784 68.287 160.828 68.664 160.828V158.828V156.828C68.6276 156.828 68.6251 156.826 68.6491 156.829C68.6724 156.833 68.74 156.845 68.8348 156.883L68.092 158.74ZM68.664 158.828V160.828C69.329 160.828 69.8678 160.88 70.2958 160.965L70.688 159.004L71.0803 157.043C70.3349 156.894 69.5244 156.828 68.664 156.828V158.828ZM70.688 159.004L70.3138 160.969C70.3555 160.977 70.3805 160.985 70.3928 160.99C70.4046 160.994 70.4073 160.997 70.4047 160.995C70.4037 160.994 70.4024 160.994 70.4011 160.992C70.3998 160.991 70.3992 160.991 70.3994 160.991C70.3996 160.991 70.4012 160.993 70.4039 160.996C70.4067 161 70.4112 161.006 70.4169 161.015L72.096 159.928L73.7752 158.841C73.1377 157.856 72.1814 157.252 71.0623 157.039L70.688 159.004ZM72.096 159.928L70.4621 161.081C70.4315 161.038 70.4822 161.09 70.5349 161.341C70.5861 161.584 70.624 161.94 70.624 162.436H72.624H74.624C74.624 161.172 74.4557 159.803 73.73 158.775L72.096 159.928ZM72.624 162.436H70.624C70.624 163.002 70.5792 163.415 70.5162 163.703C70.4518 163.997 70.3853 164.083 70.3979 164.066L72.008 165.252L73.6181 166.438C74.4255 165.343 74.624 163.852 74.624 162.436H72.624ZM72.008 165.252L70.3979 164.066C70.3203 164.171 70.2674 164.208 70.2507 164.219C70.2379 164.227 70.223 164.235 70.1852 164.24L70.468 166.22L70.7509 168.2C71.96 168.027 72.9287 167.374 73.6181 166.438L72.008 165.252ZM70.468 166.22L70.0938 164.255C69.5989 164.35 69.1082 164.396 68.62 164.396V166.396V168.396C69.3638 168.396 70.1051 168.325 70.8423 168.185L70.468 166.22ZM58.588 144.308V146.308H63.736V144.308V142.308H58.588V144.308ZM63.736 144.308L63.8084 146.307L69.8804 146.087L69.808 144.088L69.7356 142.089L63.6636 142.309L63.736 144.308ZM69.808 144.088V146.088C70.3319 146.088 70.8159 146.136 71.2638 146.225L71.656 144.264L72.0483 142.303C71.3228 142.158 70.5748 142.088 69.808 142.088V144.088ZM71.656 144.264L71.2818 146.229C71.3362 146.239 71.3931 146.247 71.5014 146.405L73.152 145.276L74.8026 144.147C74.1483 143.19 73.2078 142.524 72.0303 142.299L71.656 144.264ZM73.152 145.276L71.5419 146.462C71.5255 146.44 71.5931 146.525 71.6589 146.83C71.7228 147.127 71.768 147.553 71.768 148.136H73.768H75.768C75.768 146.702 75.5731 145.19 74.7621 144.09L73.152 145.276ZM73.768 148.136H71.768C71.768 148.649 71.7245 149.023 71.6647 149.284C71.6044 149.547 71.5411 149.635 71.5419 149.634L73.152 150.82L74.7621 152.006C75.5575 150.927 75.768 149.501 75.768 148.136H73.768ZM73.152 150.82L71.5014 149.691C71.3803 149.868 71.2914 149.907 71.1928 149.93L71.656 151.876L72.1193 153.822C73.2527 153.552 74.161 152.887 74.8026 151.949L73.152 150.82ZM71.656 151.876L71.171 149.936C70.76 150.038 70.2938 150.096 69.764 150.096V152.096V154.096C70.5836 154.096 71.3787 154.007 72.1411 153.816L71.656 151.876ZM69.764 152.096L69.8113 150.097L64.2233 149.965L64.176 151.964L64.1288 153.963L69.7168 154.095L69.764 152.096ZM64.176 151.964V149.964H58.412V151.964V153.964H64.176V151.964ZM58.412 151.964L58.5295 149.967C58.2088 149.949 58.0506 149.893 57.9949 149.867C57.9577 149.849 57.9903 149.859 58.0209 149.906L56.344 150.996L54.6671 152.086C55.5265 153.408 56.9507 153.881 58.2946 153.961L58.412 151.964ZM56.344 150.996L58.0209 149.906C58.0209 149.906 58.0196 149.904 58.0171 149.9C58.0146 149.895 58.011 149.888 58.0065 149.879C57.9974 149.861 57.985 149.833 57.9708 149.794C57.9418 149.715 57.9083 149.601 57.8773 149.443C57.8143 149.124 57.772 148.681 57.772 148.092H55.772H53.772C53.772 149.527 53.9555 150.991 54.6671 152.086L56.344 150.996ZM55.772 148.092H57.772C57.772 147.015 57.9838 146.597 58.0669 146.488L56.476 145.276L54.8852 144.064C54.0296 145.187 53.772 146.646 53.772 148.092H55.772ZM56.476 145.276L58.0935 146.452C58.1326 146.399 58.1592 146.382 58.1893 146.368C58.2305 146.349 58.3465 146.308 58.588 146.308V144.308V142.308C57.1379 142.308 55.7739 142.841 54.8586 144.1L56.476 145.276ZM85.5522 165.78L84.3812 167.401V167.401L85.5522 165.78ZM84.4082 164.548L82.6193 165.442L82.6311 165.466L82.6435 165.489L84.4082 164.548ZM83.9682 163.624L82.0798 164.283L82.0946 164.325L82.1112 164.367L83.9682 163.624ZM76.0482 140.92L74.1325 141.495L74.1452 141.537L74.1598 141.579L76.0482 140.92ZM75.8282 137.664L73.9976 136.859L73.9896 136.877L73.982 136.895L75.8282 137.664ZM78.6002 135.816L77.9845 133.913L77.9787 133.915L78.6002 135.816ZM81.0202 135.376L81.1153 133.378L81.0202 135.376ZM82.5602 136.124L81.055 137.441L81.055 137.441L82.5602 136.124ZM83.6602 138.324L81.7573 138.94L81.7624 138.956L81.7679 138.971L83.6602 138.324ZM88.2362 151.7L86.3439 152.347L88.4467 158.494L90.165 152.229L88.2362 151.7ZM91.8442 138.544L89.9285 137.969L89.9217 137.992L89.9154 138.015L91.8442 138.544ZM92.2842 137.4L90.4953 136.506L90.4724 136.551L90.4519 136.598L92.2842 137.4ZM93.4282 136.168L94.5376 137.832L94.5688 137.811L94.5992 137.789L93.4282 136.168ZM98.1802 136.212L96.9523 137.791L96.9728 137.807L96.9938 137.822L98.1802 136.212ZM99.3242 137.532L101.157 136.73V136.73L99.3242 137.532ZM99.7642 138.588L101.693 138.061L101.669 137.972L101.637 137.886L99.7642 138.588ZM103.372 151.788L101.443 152.315L103.165 158.614L105.266 152.432L103.372 151.788ZM107.948 138.324L109.842 138.968L109.846 138.956L107.948 138.324ZM109.004 136.168L107.46 134.897L107.452 134.907L109.004 136.168ZM110.588 135.332L110.769 137.324H110.769L110.588 135.332ZM113.052 135.772L113.731 133.891L113.725 133.888L113.718 133.886L113.052 135.772ZM115.296 137.004L113.882 138.418L113.906 138.443L113.932 138.466L115.296 137.004ZM115.956 138.544H113.956V138.592L113.958 138.639L115.956 138.544ZM115.56 140.92L117.45 141.575L117.463 141.538L117.474 141.5L115.56 140.92ZM107.684 163.624L105.795 162.969L105.791 162.98L105.787 162.992L107.684 163.624ZM107.244 164.548L105.479 163.607L105.454 163.654L105.432 163.702L107.244 164.548ZM106.144 165.78L104.973 164.159V164.159L106.144 165.78ZM101.524 165.692L100.236 167.222L100.26 167.242L100.285 167.262L101.524 165.692ZM100.336 164.284L98.5266 165.136L98.5367 165.157L98.5473 165.178L100.336 164.284ZM99.9402 163.404L98.0273 163.988L98.0347 164.012L98.0428 164.036L99.9402 163.404ZM95.8042 149.852L97.7171 149.268L95.8073 143.011L93.8918 149.266L95.8042 149.852ZM91.6682 163.36L89.7558 162.774L89.7266 162.87L89.707 162.968L91.6682 163.36ZM91.2722 164.328L93.061 165.222L93.0717 165.201L93.0818 165.18L91.2722 164.328ZM90.0842 165.692L88.8449 164.122L88.8241 164.139L88.8038 164.156L90.0842 165.692ZM87.7522 166.352V164.352C87.0557 164.352 86.7898 164.207 86.7232 164.159L85.5522 165.78L84.3812 167.401C85.3706 168.116 86.5714 168.352 87.7522 168.352V166.352ZM85.5522 165.78L86.7232 164.159C86.3696 163.903 86.2271 163.708 86.1729 163.607L84.4082 164.548L82.6435 165.489C83.0586 166.268 83.6788 166.894 84.3812 167.401L85.5522 165.78ZM84.4082 164.548L86.197 163.654C86.0828 163.425 85.9936 163.243 85.9279 163.105C85.8951 163.036 85.87 162.982 85.8514 162.941C85.8318 162.898 85.8247 162.88 85.8251 162.881L83.9682 163.624L82.1112 164.367C82.2067 164.605 82.3937 164.991 82.6193 165.442L84.4082 164.548ZM83.9682 163.624L85.8566 162.965L77.9366 140.261L76.0482 140.92L74.1598 141.579L82.0798 164.283L83.9682 163.624ZM76.0482 140.92L77.9638 140.345C77.7709 139.702 77.6821 139.218 77.6586 138.871C77.6345 138.515 77.6864 138.404 77.6743 138.433L75.8282 137.664L73.982 136.895C73.4032 138.284 73.6726 139.962 74.1325 141.495L76.0482 140.92ZM75.8282 137.664L77.6588 138.469C77.618 138.562 77.61 138.491 77.8726 138.316C78.1328 138.143 78.5621 137.933 79.2217 137.717L78.6002 135.816L77.9787 133.915C76.3907 134.434 74.694 135.276 73.9976 136.859L75.8282 137.664ZM78.6002 135.816L79.2158 137.719C80.1213 137.426 80.6609 137.361 80.9251 137.374L81.0202 135.376L81.1153 133.378C80.1474 133.332 79.0737 133.561 77.9846 133.913L78.6002 135.816ZM81.0202 135.376L80.9251 137.374C80.9573 137.375 80.9758 137.379 80.9838 137.381C80.988 137.382 80.9904 137.383 80.9915 137.383C80.9926 137.384 80.9931 137.384 80.9934 137.384C80.9936 137.384 80.9945 137.385 80.996 137.386C80.9976 137.387 81.0006 137.388 81.0051 137.392C81.0137 137.399 81.0308 137.413 81.055 137.441L82.5602 136.124L84.0653 134.807C83.3013 133.934 82.2812 133.434 81.1153 133.378L81.0202 135.376ZM82.5602 136.124L81.055 137.441C81.2052 137.613 81.4689 138.048 81.7573 138.94L83.6602 138.324L85.5631 137.708C85.2061 136.605 84.7365 135.574 84.0653 134.807L82.5602 136.124ZM83.6602 138.324L81.7679 138.971L86.3439 152.347L88.2362 151.7L90.1285 151.053L85.5525 137.677L83.6602 138.324ZM88.2362 151.7L90.165 152.229L93.773 139.073L91.8442 138.544L89.9154 138.015L86.3074 151.171L88.2362 151.7ZM91.8442 138.544L93.7598 139.119C93.8144 138.937 93.9251 138.639 94.1165 138.202L92.2842 137.4L90.4519 136.598C90.2326 137.1 90.0499 137.565 89.9285 137.969L91.8442 138.544ZM92.2842 137.4L94.073 138.294C94.1225 138.196 94.2387 138.031 94.5376 137.832L93.4282 136.168L92.3188 134.504C91.5617 135.009 90.9152 135.666 90.4953 136.506L92.2842 137.4ZM93.4282 136.168L94.5992 137.789C94.6486 137.754 94.9296 137.596 95.7162 137.596V135.596V133.596C94.5081 133.596 93.2637 133.82 92.2572 134.547L93.4282 136.168ZM95.7162 135.596V137.596C96.1583 137.596 96.4719 137.637 96.6831 137.69C96.893 137.743 96.9582 137.795 96.9523 137.791L98.1802 136.212L99.4081 134.633C98.3626 133.82 97.0047 133.596 95.7162 133.596V135.596ZM98.1802 136.212L96.9938 137.822C97.3641 138.095 97.4681 138.279 97.4919 138.334L99.3242 137.532L101.157 136.73C100.77 135.846 100.111 135.15 99.3666 134.602L98.1802 136.212ZM99.3242 137.532L97.4919 138.334C97.6944 138.797 97.8232 139.108 97.8915 139.29L99.7642 138.588L101.637 137.886C101.529 137.599 101.365 137.206 101.157 136.73L99.3242 137.532ZM99.7642 138.588L97.835 139.115L101.443 152.315L103.372 151.788L105.301 151.261L101.693 138.061L99.7642 138.588ZM103.372 151.788L105.266 152.432L109.842 138.968L107.948 138.324L106.055 137.68L101.479 151.144L103.372 151.788ZM107.948 138.324L109.846 138.956C110.137 138.082 110.396 137.626 110.556 137.429L109.004 136.168L107.452 134.907C106.849 135.649 106.405 136.63 106.051 137.692L107.948 138.324ZM109.004 136.168L110.548 137.439C110.599 137.378 110.631 137.36 110.642 137.354C110.653 137.348 110.687 137.331 110.769 137.324L110.588 135.332L110.407 133.34C109.231 133.447 108.212 133.984 107.46 134.897L109.004 136.168ZM110.588 135.332L110.769 137.324C111.003 137.303 111.51 137.348 112.387 137.658L113.052 135.772L113.718 133.886C112.6 133.492 111.464 133.244 110.407 133.34L110.588 135.332ZM113.052 135.772L112.373 137.653C113.34 138.002 113.755 138.292 113.882 138.418L115.296 137.004L116.71 135.59C115.957 134.836 114.876 134.304 113.731 133.891L113.052 135.772ZM115.296 137.004L113.932 138.466C113.95 138.483 113.957 138.493 113.957 138.494C113.958 138.494 113.955 138.491 113.953 138.485C113.95 138.479 113.951 138.477 113.952 138.484C113.953 138.49 113.956 138.509 113.956 138.544H115.956H117.956C117.956 137.388 117.517 136.341 116.661 135.542L115.296 137.004ZM115.956 138.544L113.958 138.639C113.972 138.928 113.91 139.469 113.646 140.34L115.56 140.92L117.474 141.5C117.797 140.435 117.999 139.392 117.954 138.449L115.956 138.544ZM115.56 140.92L113.671 140.265L105.795 162.969L107.684 163.624L109.574 164.279L117.45 141.575L115.56 140.92ZM107.684 163.624L105.787 162.992C105.796 162.963 105.787 162.997 105.724 163.127C105.669 163.244 105.588 163.403 105.479 163.607L107.244 164.548L109.009 165.489C109.237 165.062 109.462 164.614 109.582 164.256L107.684 163.624ZM107.244 164.548L105.432 163.702C105.412 163.746 105.316 163.911 104.973 164.159L106.144 165.78L107.315 167.401C108.029 166.886 108.666 166.23 109.057 165.394L107.244 164.548ZM106.144 165.78L104.973 164.159C104.924 164.194 104.643 164.352 103.856 164.352V166.352V168.352C105.064 168.352 106.309 168.128 107.315 167.401L106.144 165.78ZM103.856 166.352V164.352C103.13 164.352 102.85 164.19 102.763 164.122L101.524 165.692L100.285 167.262C101.314 168.074 102.588 168.352 103.856 168.352V166.352ZM101.524 165.692L102.812 164.162C102.388 163.805 102.2 163.54 102.125 163.39L100.336 164.284L98.5473 165.178C98.9414 165.967 99.5458 166.641 100.236 167.222L101.524 165.692ZM100.336 164.284L102.146 163.432C102.03 163.187 101.944 163.001 101.885 162.869C101.855 162.803 101.835 162.758 101.823 162.729C101.805 162.686 101.818 162.713 101.838 162.772L99.9402 163.404L98.0428 164.036C98.1199 164.268 98.3232 164.703 98.5266 165.136L100.336 164.284ZM99.9402 163.404L101.853 162.82L97.7171 149.268L95.8042 149.852L93.8913 150.436L98.0273 163.988L99.9402 163.404ZM95.8042 149.852L93.8918 149.266L89.7558 162.774L91.6682 163.36L93.5806 163.946L97.7166 150.438L95.8042 149.852ZM91.6682 163.36L89.707 162.968C89.7248 162.879 89.7429 162.831 89.7356 162.853C89.7316 162.864 89.7199 162.896 89.6961 162.955C89.6483 163.072 89.5726 163.243 89.4626 163.476L91.2722 164.328L93.0818 165.18C93.2065 164.915 93.3141 164.675 93.3983 164.469C93.466 164.304 93.5736 164.031 93.6293 163.752L91.6682 163.36ZM91.2722 164.328L89.4833 163.434C89.4178 163.565 89.2488 163.803 88.8449 164.122L90.0842 165.692L91.3235 167.262C92.0342 166.701 92.6572 166.03 93.061 165.222L91.2722 164.328ZM90.0842 165.692L88.8038 164.156C88.7756 164.179 88.5338 164.352 87.7522 164.352V166.352V168.352C89.0239 168.352 90.3367 168.085 91.3646 167.228L90.0842 165.692ZM120.024 165.824L118.837 167.434L118.866 167.455L118.894 167.475L120.024 165.824ZM119.012 164.284L117.032 164.567L117.038 164.613L117.047 164.658L119.012 164.284ZM119.056 146.2L121.017 146.592L121.019 146.583L121.021 146.574L119.056 146.2ZM120.068 144.704L121.197 146.355L121.226 146.335L121.254 146.314L120.068 144.704ZM125.656 144.704L124.428 146.283L124.476 146.32L124.526 146.355L125.656 144.704ZM126.668 146.2L128.633 145.826V145.826L126.668 146.2ZM126.668 164.328L128.633 164.702V164.702L126.668 164.328ZM125.656 165.824L124.526 164.173L124.505 164.188L124.485 164.203L125.656 165.824ZM120.024 141.36L118.837 142.97L118.866 142.991L118.894 143.011L120.024 141.36ZM119.012 139.82L117.032 140.103L117.038 140.149L117.047 140.194L119.012 139.82ZM119.056 136.036L121.017 136.428L121.019 136.419L121.021 136.41L119.056 136.036ZM120.068 134.54L121.197 136.191V136.191L120.068 134.54ZM125.656 134.584L124.428 136.163L124.476 136.2L124.526 136.235L125.656 134.584ZM126.668 136.08L128.633 135.706V135.706L126.668 136.08ZM126.668 139.864L128.633 140.238V140.238L126.668 139.864ZM125.656 141.36L124.526 139.709L124.505 139.724L124.485 139.739L125.656 141.36ZM122.84 166.396V164.396C122.267 164.396 121.844 164.354 121.544 164.293C121.235 164.23 121.139 164.164 121.153 164.173L120.024 165.824L118.894 167.475C119.977 168.215 121.439 168.396 122.84 168.396V166.396ZM120.024 165.824L121.21 164.214C121.013 164.069 120.989 163.977 120.977 163.91L119.012 164.284L117.047 164.658C117.269 165.823 117.92 166.758 118.837 167.434L120.024 165.824ZM119.012 164.284L120.992 164.001C120.918 163.482 120.88 162.946 120.88 162.392H118.88H116.88C116.88 163.128 116.93 163.854 117.032 164.567L119.012 164.284ZM118.88 162.392H120.88V148.048H118.88H116.88V162.392H118.88ZM118.88 148.048H120.88C120.88 147.524 120.927 147.04 121.017 146.592L119.056 146.2L117.095 145.808C116.95 146.533 116.88 147.281 116.88 148.048H118.88ZM119.056 146.2L121.021 146.574C121.031 146.52 121.039 146.463 121.197 146.355L120.068 144.704L118.938 143.053C117.982 143.708 117.315 144.648 117.091 145.826L119.056 146.2ZM120.068 144.704L121.254 146.314C121.237 146.327 121.323 146.26 121.617 146.196C121.905 146.133 122.318 146.088 122.884 146.088V144.088V142.088C121.468 142.088 119.977 142.287 118.881 143.094L120.068 144.704ZM122.884 144.088V146.088C123.45 146.088 123.857 146.133 124.133 146.194C124.418 146.258 124.474 146.318 124.428 146.283L125.656 144.704L126.884 143.125C125.797 142.28 124.283 142.088 122.884 142.088V144.088ZM125.656 144.704L124.526 146.355C124.685 146.463 124.693 146.52 124.703 146.574L126.668 146.2L128.633 145.826C128.408 144.648 127.742 143.708 126.785 143.053L125.656 144.704ZM126.668 146.2L124.703 146.574C124.795 147.058 124.844 147.577 124.844 148.136H126.844H128.844C128.844 147.345 128.775 146.574 128.633 145.826L126.668 146.2ZM126.844 148.136H124.844V162.436H126.844H128.844V148.136H126.844ZM126.844 162.436H124.844C124.844 162.959 124.796 163.465 124.703 163.954L126.668 164.328L128.633 164.702C128.774 163.959 128.844 163.203 128.844 162.436H126.844ZM126.668 164.328L124.703 163.954C124.693 164.008 124.685 164.065 124.526 164.173L125.656 165.824L126.785 167.475C127.742 166.82 128.408 165.88 128.633 164.702L126.668 164.328ZM125.656 165.824L124.485 164.203C124.534 164.167 124.469 164.23 124.158 164.293C123.86 164.353 123.43 164.396 122.84 164.396V166.396V168.396C124.241 168.396 125.748 168.225 126.827 167.445L125.656 165.824ZM122.84 141.932V139.932C122.267 139.932 121.844 139.89 121.544 139.829C121.235 139.766 121.139 139.7 121.153 139.709L120.024 141.36L118.894 143.011C119.977 143.751 121.439 143.932 122.84 143.932V141.932ZM120.024 141.36L121.21 139.75C121.013 139.605 120.989 139.513 120.977 139.446L119.012 139.82L117.047 140.194C117.269 141.359 117.92 142.294 118.837 142.97L120.024 141.36ZM119.012 139.82L120.992 139.537C120.918 139.018 120.88 138.482 120.88 137.928H118.88H116.88C116.88 138.664 116.93 139.39 117.032 140.103L119.012 139.82ZM118.88 137.928H120.88C120.88 137.369 120.929 136.871 121.017 136.428L119.056 136.036L117.095 135.644C116.948 136.375 116.88 137.138 116.88 137.928H118.88ZM119.056 136.036L121.021 136.41C121.031 136.356 121.039 136.299 121.197 136.191L120.068 134.54L118.938 132.889C117.982 133.544 117.315 134.484 117.091 135.662L119.056 136.036ZM120.068 134.54L121.197 136.191C121.183 136.2 121.279 136.134 121.588 136.071C121.888 136.01 122.311 135.968 122.884 135.968V133.968V131.968C121.483 131.968 120.021 132.149 118.938 132.889L120.068 134.54ZM122.884 133.968V135.968C123.45 135.968 123.857 136.013 124.133 136.074C124.418 136.138 124.474 136.198 124.428 136.163L125.656 134.584L126.884 133.005C125.797 132.16 124.283 131.968 122.884 131.968V133.968ZM125.656 134.584L124.526 136.235C124.685 136.343 124.693 136.4 124.703 136.454L126.668 136.08L128.633 135.706C128.408 134.528 127.742 133.588 126.785 132.933L125.656 134.584ZM126.668 136.08L124.703 136.454C124.796 136.943 124.844 137.449 124.844 137.972H126.844H128.844C128.844 137.205 128.774 136.449 128.633 135.706L126.668 136.08ZM126.844 137.972H124.844C124.844 138.495 124.796 139.001 124.703 139.49L126.668 139.864L128.633 140.238C128.774 139.495 128.844 138.739 128.844 137.972H126.844ZM126.668 139.864L124.703 139.49C124.693 139.544 124.685 139.601 124.526 139.709L125.656 141.36L126.785 143.011C127.742 142.356 128.408 141.416 128.633 140.238L126.668 139.864ZM125.656 141.36L124.485 139.739C124.534 139.703 124.469 139.766 124.158 139.829C123.86 139.889 123.43 139.932 122.84 139.932V141.932V143.932C124.241 143.932 125.748 143.761 126.827 142.981L125.656 141.36ZM137.247 166.484L137.639 164.523L137.617 164.518L137.594 164.514L137.247 166.484ZM134.299 165.692L133.546 167.545L133.58 167.559L133.615 167.572L134.299 165.692ZM131.967 164.372L130.708 165.926V165.926L131.967 164.372ZM131.219 161.688L129.352 160.97L129.336 161.012L129.321 161.056L131.219 161.688ZM131.791 160.456L133.556 161.397V161.397L131.791 160.456ZM132.671 159.048L134.305 160.201L134.309 160.195L132.671 159.048ZM133.375 158.388L132.48 156.599L132.442 156.619L132.404 156.64L133.375 158.388ZM135.927 158.52L135.075 160.33L135.12 160.351L135.165 160.369L135.927 158.52ZM137.423 159.268L136.409 160.992L136.447 161.015L136.487 161.036L137.423 159.268ZM138.963 160.016L138.151 161.844L138.21 161.87L138.271 161.893L138.963 160.016ZM141.955 160.148L141.212 158.291L141.177 158.305L141.143 158.32L141.955 160.148ZM142.087 159.048L140.806 160.584L140.864 160.632L140.924 160.675L142.087 159.048ZM141.295 158.696L140.611 160.576L140.709 160.611L140.81 160.636L141.295 158.696ZM138.743 158.08L138.285 160.027V160.027L138.743 158.08ZM137.203 157.64L137.835 155.743L137.81 155.734L137.785 155.727L137.203 157.64ZM135.223 156.848L134.265 158.604L134.296 158.621L134.328 158.637L135.223 156.848ZM133.463 155.484L131.972 156.818L131.991 156.839L132.011 156.859L133.463 155.484ZM132.231 153.46L130.355 154.155L130.366 154.185L130.379 154.215L132.231 153.46ZM132.847 146.728L131.197 145.597V145.597L132.847 146.728ZM135.971 144.396L135.256 142.528V142.528L135.971 144.396ZM142.571 143.692L142.805 141.706H142.804L142.571 143.692ZM144.067 143.956L143.609 145.903L143.621 145.906L143.633 145.908L144.067 143.956ZM145.607 144.44L144.845 146.289L144.909 146.316L144.974 146.337L145.607 144.44ZM147.191 145.056L146.379 146.884L146.388 146.888L146.397 146.892L147.191 145.056ZM148.863 147.036L146.864 147.105L146.864 147.107L148.863 147.036ZM147.939 149.632L146.308 148.475L146.277 148.518L146.248 148.564L147.939 149.632ZM146.839 150.908L148.039 152.508L148.049 152.501L148.058 152.493L146.839 150.908ZM142.439 150.116L143.227 148.278V148.278L142.439 150.116ZM139.667 149.852L140.152 151.792L140.226 151.774L140.299 151.749L139.667 149.852ZM139.139 150.16L140.553 151.574L140.631 151.496L140.701 151.409L139.139 150.16ZM139.271 151.392L137.857 152.806L137.957 152.907L138.071 152.992L139.271 151.392ZM140.151 151.832L139.518 153.729L139.54 153.737L139.563 153.744L140.151 151.832ZM141.427 152.14L141.058 154.106L141.069 154.108L141.079 154.11L141.427 152.14ZM143.011 152.404L142.699 154.38L142.707 154.381L143.011 152.404ZM145.343 152.976L144.71 154.873L144.752 154.887L144.793 154.899L145.343 152.976ZM149.215 155.968L151.004 155.074V155.074L149.215 155.968ZM147.323 164.856L146.101 163.273L146.094 163.278L146.087 163.283L147.323 164.856ZM140.019 166.792V164.792C139.359 164.792 138.57 164.709 137.639 164.523L137.247 166.484L136.855 168.445C137.977 168.67 139.036 168.792 140.019 168.792V166.792ZM137.247 166.484L137.594 164.514C136.713 164.359 135.843 164.125 134.982 163.812L134.299 165.692L133.615 167.572C134.691 167.963 135.786 168.257 136.899 168.454L137.247 166.484ZM134.299 165.692L135.052 163.839C134.247 163.512 133.653 163.163 133.225 162.818L131.967 164.372L130.708 165.926C131.513 166.578 132.473 167.109 133.546 167.545L134.299 165.692ZM131.967 164.372L133.225 162.818C133.079 162.699 133.039 162.628 133.035 162.621C133.033 162.617 133.036 162.623 133.039 162.636C133.043 162.648 133.043 162.657 133.043 162.656H131.043H129.043C129.043 164.042 129.741 165.143 130.708 165.926L131.967 164.372ZM131.043 162.656H133.043C133.043 162.626 133.05 162.52 133.116 162.32L131.219 161.688L129.321 161.056C129.153 161.56 129.043 162.099 129.043 162.656H131.043ZM131.219 161.688L133.086 162.406C133.197 162.116 133.351 161.78 133.556 161.397L131.791 160.456L130.026 159.515C129.761 160.012 129.534 160.498 129.352 160.97L131.219 161.688ZM131.791 160.456L133.556 161.397C133.744 161.045 133.991 160.647 134.305 160.201L132.671 159.048L131.037 157.895C130.647 158.447 130.307 158.987 130.026 159.515L131.791 160.456ZM132.671 159.048L134.309 160.195C134.342 160.149 134.363 160.128 134.369 160.122C134.374 160.117 134.367 160.125 134.346 160.136L133.375 158.388L132.404 156.64C131.83 156.959 131.38 157.405 131.032 157.901L132.671 159.048ZM133.375 158.388L134.269 160.177C134.259 160.182 134.258 160.18 134.273 160.177C134.288 160.174 134.324 160.168 134.387 160.168V158.168V156.168C133.745 156.168 133.093 156.293 132.48 156.599L133.375 158.388ZM134.387 158.168V160.168C134.607 160.168 134.831 160.215 135.075 160.33L135.927 158.52L136.778 156.71C136.025 156.356 135.222 156.168 134.387 156.168V158.168ZM135.927 158.52L135.165 160.369C135.571 160.536 135.985 160.743 136.409 160.992L137.423 159.268L138.437 157.544C137.863 157.207 137.28 156.914 136.688 156.671L135.927 158.52ZM137.423 159.268L136.487 161.036C137.027 161.322 137.582 161.591 138.151 161.844L138.963 160.016L139.775 158.188C139.288 157.972 138.816 157.742 138.359 157.5L137.423 159.268ZM138.963 160.016L138.271 161.893C139.058 162.183 139.88 162.324 140.723 162.324V160.324V158.324C140.334 158.324 139.982 158.26 139.654 158.139L138.963 160.016ZM140.723 160.324V162.324C141.348 162.324 142.107 162.269 142.767 161.976L141.955 160.148L141.143 158.32C141.235 158.279 141.261 158.287 141.166 158.3C141.08 158.312 140.937 158.324 140.723 158.324V160.324ZM141.955 160.148L142.698 162.005C143.042 161.867 143.47 161.63 143.821 161.208C144.202 160.752 144.395 160.193 144.395 159.62H142.395H140.395C140.395 159.282 140.514 158.928 140.748 158.648C140.953 158.402 141.161 158.311 141.212 158.291L141.955 160.148ZM142.395 159.62H144.395C144.395 158.684 143.934 157.909 143.249 157.421L142.087 159.048L140.924 160.675C140.819 160.6 140.673 160.464 140.557 160.249C140.438 160.029 140.395 159.805 140.395 159.62H142.395ZM142.087 159.048L143.367 157.512C142.864 157.092 142.272 156.879 141.78 156.756L141.295 158.696L140.81 160.636C140.854 160.647 140.887 160.657 140.91 160.665C140.933 160.673 140.944 160.677 140.945 160.678C140.945 160.678 140.932 160.672 140.909 160.658C140.886 160.645 140.85 160.621 140.806 160.584L142.087 159.048ZM141.295 158.696L141.978 156.816C141.537 156.656 141.054 156.529 140.543 156.427L140.151 158.388L139.759 160.349C140.128 160.423 140.407 160.501 140.611 160.576L141.295 158.696ZM140.151 158.388L140.543 156.427C140.128 156.344 139.681 156.246 139.201 156.133L138.743 158.08L138.285 160.027C138.802 160.149 139.294 160.256 139.759 160.349L140.151 158.388ZM138.743 158.08L139.201 156.133C138.766 156.031 138.311 155.901 137.835 155.743L137.203 157.64L136.57 159.537C137.151 159.731 137.722 159.895 138.285 160.027L138.743 158.08ZM137.203 157.64L137.785 155.727C137.22 155.555 136.665 155.333 136.117 155.059L135.223 156.848L134.328 158.637C135.072 159.009 135.836 159.315 136.62 159.553L137.203 157.64ZM135.223 156.848L136.181 155.092C135.727 154.845 135.305 154.521 134.915 154.109L133.463 155.484L132.011 156.859C132.676 157.562 133.428 158.147 134.265 158.604L135.223 156.848ZM133.463 155.484L134.953 154.15C134.628 153.787 134.331 153.315 134.083 152.705L132.231 153.46L130.379 154.215C130.776 155.189 131.301 156.067 131.972 156.818L133.463 155.484ZM132.231 153.46L134.106 152.765C133.919 152.259 133.791 151.541 133.791 150.556H131.791H129.791C129.791 151.859 129.956 153.077 130.355 154.155L132.231 153.46ZM131.791 150.556H133.791C133.791 149.342 134.068 148.484 134.496 147.859L132.847 146.728L131.197 145.597C130.218 147.025 129.791 148.719 129.791 150.556H131.791ZM132.847 146.728L134.496 147.859C134.931 147.225 135.614 146.674 136.686 146.264L135.971 144.396L135.256 142.528C133.57 143.174 132.171 144.177 131.197 145.597L132.847 146.728ZM135.971 144.396L136.686 146.264C137.769 145.849 139.211 145.604 141.075 145.604V143.604V141.604C138.891 141.604 136.93 141.887 135.256 142.528L135.971 144.396ZM141.075 143.604V145.604C141.495 145.604 141.915 145.629 142.337 145.678L142.571 143.692L142.804 141.706C142.229 141.638 141.652 141.604 141.075 141.604V143.604ZM142.571 143.692L142.337 145.678C142.759 145.728 143.183 145.803 143.609 145.903L144.067 143.956L144.525 142.009C143.954 141.875 143.38 141.773 142.805 141.706L142.571 143.692ZM144.067 143.956L143.633 145.908C144.049 146.001 144.453 146.128 144.845 146.289L145.607 144.44L146.368 142.591C145.763 142.342 145.14 142.146 144.501 142.004L144.067 143.956ZM145.607 144.44L144.974 146.337C145.439 146.492 145.907 146.674 146.379 146.884L147.191 145.056L148.003 143.228C147.419 142.969 146.831 142.74 146.239 142.543L145.607 144.44ZM147.191 145.056L146.397 146.892C146.755 147.047 146.875 147.17 146.895 147.193C146.901 147.201 146.889 147.188 146.877 147.158C146.872 147.144 146.868 147.131 146.866 147.12C146.864 147.109 146.864 147.104 146.864 147.105L148.863 147.036L150.862 146.967C150.795 145.047 149.458 143.857 147.985 143.22L147.191 145.056ZM148.863 147.036L146.864 147.107C146.873 147.357 146.789 147.797 146.308 148.475L147.939 149.632L149.57 150.789C150.38 149.648 150.911 148.358 150.862 146.965L148.863 147.036ZM147.939 149.632L146.248 148.564C145.978 148.991 145.759 149.215 145.619 149.323L146.839 150.908L148.058 152.493C148.681 152.014 149.195 151.388 149.63 150.7L147.939 149.632ZM146.839 150.908L145.639 149.308C145.602 149.336 145.596 149.333 145.622 149.323C145.635 149.319 145.653 149.314 145.674 149.31C145.696 149.306 145.718 149.304 145.739 149.304V151.304V153.304C146.617 153.304 147.396 152.99 148.039 152.508L146.839 150.908ZM145.739 151.304V149.304C145.643 149.304 145.425 149.276 145.055 149.101L144.199 150.908L143.343 152.715C144.087 153.068 144.896 153.304 145.739 153.304V151.304ZM144.199 150.908L145.055 149.101C144.473 148.825 143.864 148.551 143.227 148.278L142.439 150.116L141.651 151.954C142.246 152.209 142.81 152.463 143.343 152.715L144.199 150.908ZM142.439 150.116L143.227 148.278C142.384 147.916 141.501 147.72 140.591 147.72V149.72V151.72C140.913 151.72 141.262 151.788 141.651 151.954L142.439 150.116ZM140.591 149.72V147.72C140.078 147.72 139.548 147.783 139.034 147.955L139.667 149.852L140.299 151.749C140.314 151.745 140.4 151.72 140.591 151.72V149.72ZM139.667 149.852L139.182 147.912C138.645 148.046 138.038 148.335 137.577 148.911L139.139 150.16L140.701 151.409C140.474 151.692 140.219 151.776 140.152 151.792L139.667 149.852ZM139.139 150.16L137.725 148.746C137.208 149.263 136.963 149.929 136.963 150.6H138.963H140.963C140.963 150.737 140.939 150.912 140.864 151.101C140.787 151.292 140.676 151.451 140.553 151.574L139.139 150.16ZM138.963 150.6H136.963C136.963 151.389 137.233 152.182 137.857 152.806L139.271 151.392L140.685 149.978C140.773 150.066 140.852 150.182 140.904 150.315C140.954 150.444 140.963 150.548 140.963 150.6H138.963ZM139.271 151.392L138.071 152.992C138.516 153.326 139.014 153.561 139.518 153.729L140.151 151.832L140.783 149.935C140.584 149.868 140.495 149.81 140.471 149.792L139.271 151.392ZM140.151 151.832L139.563 153.744C140.028 153.887 140.529 154.006 141.058 154.106L141.427 152.14L141.795 150.174C141.386 150.098 141.036 150.012 140.739 149.92L140.151 151.832ZM141.427 152.14L141.079 154.11C141.591 154.2 142.131 154.29 142.699 154.38L143.011 152.404L143.323 150.428C142.776 150.342 142.26 150.256 141.774 150.17L141.427 152.14ZM143.011 152.404L142.707 154.381C143.349 154.48 144.017 154.642 144.71 154.873L145.343 152.976L145.975 151.079C145.085 150.782 144.198 150.563 143.315 150.427L143.011 152.404ZM145.343 152.976L144.793 154.899C145.411 155.076 145.958 155.335 146.445 155.674L147.587 154.032L148.729 152.39C147.866 151.79 146.917 151.346 145.892 151.053L145.343 152.976ZM147.587 154.032L146.445 155.674C146.814 155.93 147.147 156.305 147.426 156.862L149.215 155.968L151.004 155.074C150.461 153.989 149.709 153.072 148.729 152.39L147.587 154.032ZM149.215 155.968L147.426 156.862C147.651 157.312 147.831 158.044 147.831 159.18H149.831H151.831C151.831 157.676 151.6 156.267 151.004 155.074L149.215 155.968ZM149.831 159.18H147.831C147.831 161.179 147.191 162.432 146.101 163.273L147.323 164.856L148.545 166.439C150.799 164.699 151.831 162.167 151.831 159.18H149.831ZM147.323 164.856L146.087 163.283C144.943 164.182 143.028 164.792 140.019 164.792V166.792V168.792C143.463 168.792 146.417 168.111 148.558 166.429L147.323 164.856ZM159.576 165.824L158.71 167.627L158.724 167.633L158.738 167.64L159.576 165.824ZM155.88 163.008L154.318 164.257L154.326 164.267L154.334 164.277L155.88 163.008ZM153.812 159.224L155.714 158.604V158.604L153.812 159.224ZM158.96 145.056L159.922 146.81H159.922L158.96 145.056ZM169.872 144.44L169.045 146.261V146.261L169.872 144.44ZM172.996 146.684L171.488 147.998L171.5 148.011L171.512 148.025L172.996 146.684ZM174.8 149.588L176.675 148.892L174.8 149.588ZM174.14 156.276L172.678 154.911V154.911L174.14 156.276ZM161.6 157.596V155.596H159.039L159.66 158.081L161.6 157.596ZM162.304 158.828L160.89 160.242L160.949 160.301L161.012 160.355L162.304 158.828ZM163.712 159.62L163.021 161.497L163.065 161.513L163.11 161.527L163.712 159.62ZM167.232 159.796L167.466 161.782L167.523 161.776L167.58 161.766L167.232 159.796ZM168.508 159.488L167.92 157.576L167.898 157.583L167.876 157.591L168.508 159.488ZM169.52 159.136L168.837 157.256L168.807 157.267L168.777 157.279L169.52 159.136ZM170.356 158.872L170.841 160.812L170.916 160.794L170.989 160.769L170.356 158.872ZM172.556 159.268L173.806 157.706V157.706L172.556 159.268ZM173.744 160.852L171.955 161.746L171.969 161.774L171.983 161.8L173.744 160.852ZM174.184 161.952L172.244 162.437L172.249 162.458L172.255 162.478L174.184 161.952ZM173.216 165.076L171.967 163.514L171.951 163.527L171.936 163.54L173.216 165.076ZM170.136 166.396L169.711 164.442L169.691 164.446L169.671 164.451L170.136 166.396ZM161.6 153.46L159.604 153.335L159.471 155.46H161.6V153.46ZM167.408 153.196L166.107 151.677L166.048 151.727L165.994 151.782L167.408 153.196ZM167.364 151.436L165.785 152.664L165.826 152.716L165.869 152.765L167.364 151.436ZM166.484 150.864L165.766 152.731L165.83 152.755L165.896 152.776L166.484 150.864ZM163.272 151.084L164.167 152.873L164.205 152.853L164.243 152.832L163.272 151.084ZM162.04 152.14L160.376 151.031L160.367 151.044L160.358 151.058L162.04 152.14ZM165.164 166.88V164.88C163.168 164.88 161.609 164.559 160.414 164.008L159.576 165.824L158.738 167.64C160.594 168.497 162.761 168.88 165.164 168.88V166.88ZM159.576 165.824L160.443 164.021C159.142 163.396 158.155 162.628 157.426 161.739L155.88 163.008L154.334 164.277C155.482 165.676 156.959 166.785 158.71 167.627L159.576 165.824ZM155.88 163.008L157.442 161.759C156.644 160.762 156.075 159.712 155.714 158.604L153.812 159.224L151.911 159.844C152.43 161.435 153.239 162.908 154.318 164.257L155.88 163.008ZM153.812 159.224L155.714 158.604C155.331 157.43 155.152 156.334 155.152 155.308H153.152H151.152C151.152 156.804 151.414 158.319 151.911 159.844L153.812 159.224ZM153.152 155.308H155.152C155.152 153.295 155.595 151.614 156.42 150.2L154.692 149.192L152.965 148.184C151.736 150.29 151.152 152.686 151.152 155.308H153.152ZM154.692 149.192L156.42 150.2C157.26 148.759 158.415 147.636 159.922 146.81L158.96 145.056L157.999 143.302C155.868 144.471 154.178 146.105 152.965 148.184L154.692 149.192ZM158.96 145.056L159.922 146.81C161.409 145.994 163.153 145.56 165.208 145.56V143.56V141.56C162.57 141.56 160.149 142.123 157.999 143.302L158.96 145.056ZM165.208 143.56V145.56C166.819 145.56 168.076 145.821 169.045 146.261L169.872 144.44L170.7 142.619C169.087 141.886 167.235 141.56 165.208 141.56V143.56ZM169.872 144.44L169.045 146.261C170.12 146.75 170.914 147.339 171.488 147.998L172.996 146.684L174.504 145.37C173.494 144.211 172.206 143.304 170.7 142.619L169.872 144.44ZM172.996 146.684L171.512 148.025C172.184 148.768 172.642 149.522 172.925 150.284L174.8 149.588L176.675 148.892C176.196 147.601 175.451 146.419 174.48 145.343L172.996 146.684ZM174.8 149.588L172.925 150.284C173.243 151.141 173.372 151.856 173.372 152.448H175.372H177.372C177.372 151.28 177.12 150.089 176.675 148.892L174.8 149.588ZM175.372 152.448H173.372C173.372 153.812 173.039 154.525 172.678 154.911L174.14 156.276L175.602 157.641C176.884 156.267 177.372 154.428 177.372 152.448H175.372ZM174.14 156.276L172.678 154.911C172.265 155.354 171.753 155.596 170.972 155.596V157.596V159.596C172.772 159.596 174.373 158.958 175.602 157.641L174.14 156.276ZM170.972 157.596V155.596H161.6V157.596V159.596H170.972V157.596ZM161.6 157.596L159.66 158.081C159.868 158.913 160.289 159.642 160.89 160.242L162.304 158.828L163.718 157.414C163.615 157.31 163.567 157.218 163.54 157.111L161.6 157.596ZM162.304 158.828L161.012 160.355C161.602 160.854 162.285 161.226 163.021 161.497L163.712 159.62L164.404 157.743C164.025 157.604 163.769 157.448 163.596 157.301L162.304 158.828ZM163.712 159.62L163.11 161.527C163.881 161.771 164.688 161.884 165.516 161.884V159.884V157.884C165.054 157.884 164.658 157.821 164.314 157.713L163.712 159.62ZM165.516 159.884V161.884C166.219 161.884 166.871 161.852 167.466 161.782L167.232 159.796L166.999 157.81C166.596 157.857 166.104 157.884 165.516 157.884V159.884ZM167.232 159.796L167.58 161.766C168.143 161.666 168.669 161.543 169.141 161.385L168.508 159.488L167.876 157.591C167.643 157.668 167.319 157.75 166.885 157.826L167.232 159.796ZM168.508 159.488L169.096 161.4C169.517 161.27 169.908 161.135 170.263 160.993L169.52 159.136L168.777 157.279C168.546 157.372 168.262 157.471 167.92 157.576L168.508 159.488ZM169.52 159.136L170.204 161.016C170.486 160.913 170.695 160.849 170.841 160.812L170.356 158.872L169.871 156.932C169.548 157.012 169.2 157.124 168.837 157.256L169.52 159.136ZM170.356 158.872L170.989 160.769C171.086 160.737 171.12 160.74 171.104 160.74V158.74V156.74C170.619 156.74 170.155 156.831 169.724 156.975L170.356 158.872ZM171.104 158.74V160.74C171.146 160.74 171.196 160.741 171.307 160.83L172.556 159.268L173.806 157.706C173.037 157.091 172.118 156.74 171.104 156.74V158.74ZM172.556 159.268L171.307 160.83C171.45 160.944 171.685 161.205 171.955 161.746L173.744 160.852L175.533 159.958C175.1 159.091 174.543 158.296 173.806 157.706L172.556 159.268ZM173.744 160.852L171.983 161.8C172.124 162.062 172.203 162.274 172.244 162.437L174.184 161.952L176.124 161.467C175.989 160.926 175.775 160.404 175.505 159.904L173.744 160.852ZM174.184 161.952L172.255 162.478C172.302 162.653 172.316 162.783 172.316 162.876H174.316H176.316C176.316 162.382 176.242 161.896 176.114 161.426L174.184 161.952ZM174.316 162.876H172.316C172.316 163.103 172.262 163.278 171.967 163.514L173.216 165.076L174.466 166.638C175.637 165.701 176.316 164.409 176.316 162.876H174.316ZM173.216 165.076L171.936 163.54C171.573 163.842 170.892 164.185 169.711 164.442L170.136 166.396L170.561 168.35C172.079 168.02 173.451 167.483 174.497 166.612L173.216 165.076ZM170.136 166.396L169.671 164.451C168.523 164.725 167.032 164.88 165.164 164.88V166.88V168.88C167.227 168.88 169.051 168.712 170.601 168.341L170.136 166.396ZM161.6 153.46V155.46H166.528V153.46V151.46H161.6V153.46ZM166.528 153.46V155.46C167.142 155.46 168.09 155.342 168.822 154.61L167.408 153.196L165.994 151.782C166.188 151.588 166.383 151.508 166.481 151.478C166.572 151.451 166.601 151.46 166.528 151.46V153.46ZM167.408 153.196L168.71 154.715C169.484 154.051 169.716 153.152 169.716 152.404H167.716H165.716C165.716 152.39 165.718 152.289 165.775 152.141C165.837 151.981 165.947 151.814 166.107 151.677L167.408 153.196ZM167.716 152.404H169.716C169.716 151.575 169.446 150.768 168.859 150.107L167.364 151.436L165.869 152.765C165.824 152.713 165.779 152.642 165.749 152.559C165.719 152.479 165.716 152.421 165.716 152.404H167.716ZM167.364 151.436L168.943 150.208C168.44 149.561 167.769 149.167 167.072 148.952L166.484 150.864L165.896 152.776C165.934 152.787 165.929 152.791 165.9 152.772C165.869 152.751 165.826 152.716 165.785 152.664L167.364 151.436ZM166.484 150.864L167.202 148.997C166.536 148.741 165.825 148.644 165.12 148.644V150.644V152.644C165.471 152.644 165.67 152.694 165.766 152.731L166.484 150.864ZM165.12 150.644V148.644C164.133 148.644 163.172 148.852 162.301 149.336L163.272 151.084L164.243 152.832C164.428 152.73 164.699 152.644 165.12 152.644V150.644ZM163.272 151.084L162.378 149.295C161.575 149.696 160.884 150.268 160.376 151.031L162.04 152.14L163.704 153.249C163.783 153.132 163.913 153 164.167 152.873L163.272 151.084ZM162.04 152.14L160.358 151.058C159.917 151.745 159.656 152.512 159.604 153.335L161.6 153.46L163.596 153.585C163.604 153.469 163.636 153.357 163.723 153.222L162.04 152.14Z" fill="#3E9300" mask="url(#path-2-outside-1_2728_1652)"/>
<path d="M27.5469 192H26.2188V186.617H20.2188V192H18.8906V180.578H20.2188V185.445H26.2188V180.578H27.5469V192ZM40.5938 186.273C40.5938 187.154 40.4818 187.956 40.2578 188.68C40.0339 189.398 39.7005 190.018 39.2578 190.539C38.8203 191.055 38.276 191.453 37.625 191.734C36.974 192.016 36.2188 192.156 35.3594 192.156C34.474 192.156 33.7005 192.016 33.0391 191.734C32.3828 191.453 31.8359 191.052 31.3984 190.531C30.9661 190.01 30.6406 189.388 30.4219 188.664C30.2083 187.94 30.1016 187.138 30.1016 186.258C30.1016 185.091 30.2943 184.068 30.6797 183.188C31.0651 182.307 31.6484 181.622 32.4297 181.133C33.2161 180.643 34.2005 180.398 35.3828 180.398C36.513 180.398 37.4635 180.641 38.2344 181.125C39.0104 181.609 39.5964 182.292 39.9922 183.172C40.3932 184.047 40.5938 185.081 40.5938 186.273ZM31.5 186.273C31.5 187.242 31.638 188.081 31.9141 188.789C32.1901 189.497 32.612 190.044 33.1797 190.43C33.7526 190.815 34.4792 191.008 35.3594 191.008C36.2448 191.008 36.9688 190.815 37.5312 190.43C38.099 190.044 38.5182 189.497 38.7891 188.789C39.0599 188.081 39.1953 187.242 39.1953 186.273C39.1953 184.799 38.8854 183.648 38.2656 182.82C37.651 181.987 36.6901 181.57 35.3828 181.57C34.4974 181.57 33.7682 181.76 33.1953 182.141C32.6224 182.521 32.1953 183.062 31.9141 183.766C31.638 184.464 31.5 185.299 31.5 186.273ZM48.1641 192L44.3281 181.891H44.2656C44.2865 182.104 44.3047 182.365 44.3203 182.672C44.3359 182.979 44.349 183.315 44.3594 183.68C44.3698 184.039 44.375 184.406 44.375 184.781V192H43.1406V180.578H45.1094L48.7266 190.078H48.7812L52.4531 180.578H54.4062V192H53.0938V184.688C53.0938 184.349 53.099 184.01 53.1094 183.672C53.1198 183.328 53.1328 183.005 53.1484 182.703C53.1641 182.396 53.1797 182.13 53.1953 181.906H53.1328L49.25 192H48.1641ZM63.8906 192H57.5312V180.578H63.8906V181.75H58.8594V185.445H63.6016V186.602H58.8594V190.828H63.8906V192ZM71.4453 192L67.6094 181.891H67.5469C67.5677 182.104 67.5859 182.365 67.6016 182.672C67.6172 182.979 67.6302 183.315 67.6406 183.68C67.651 184.039 67.6562 184.406 67.6562 184.781V192H66.4219V180.578H68.3906L72.0078 190.078H72.0625L75.7344 180.578H77.6875V192H76.375V184.688C76.375 184.349 76.3802 184.01 76.3906 183.672C76.401 183.328 76.4141 183.005 76.4297 182.703C76.4453 182.396 76.4609 182.13 76.4766 181.906H76.4141L72.5312 192H71.4453ZM87.9766 192L86.5703 188.375H81.9922L80.5938 192H79.25L83.7188 180.531H84.9141L89.3516 192H87.9766ZM86.1719 187.195L84.8359 183.594C84.8047 183.5 84.7526 183.346 84.6797 183.133C84.612 182.919 84.5417 182.698 84.4688 182.469C84.3958 182.24 84.3359 182.055 84.2891 181.914C84.237 182.128 84.1797 182.341 84.1172 182.555C84.0599 182.763 84.0026 182.958 83.9453 183.141C83.888 183.318 83.8385 183.469 83.7969 183.594L82.4375 187.195H86.1719ZM100.008 186.18C100.008 187.466 99.7734 188.542 99.3047 189.406C98.8359 190.266 98.1562 190.914 97.2656 191.352C96.3802 191.784 95.3047 192 94.0391 192H90.9375V180.578H94.3828C95.5443 180.578 96.5443 180.792 97.3828 181.219C98.2214 181.641 98.8672 182.268 99.3203 183.102C99.7786 183.93 100.008 184.956 100.008 186.18ZM98.6094 186.227C98.6094 185.201 98.4375 184.354 98.0938 183.688C97.7552 183.021 97.2552 182.526 96.5938 182.203C95.9375 181.875 95.1328 181.711 94.1797 181.711H92.2656V190.859H93.8828C95.4557 190.859 96.6354 190.471 97.4219 189.695C98.2135 188.919 98.6094 187.763 98.6094 186.227ZM108.906 192H102.547V180.578H108.906V181.75H103.875V185.445H108.617V186.602H103.875V190.828H108.906V192ZM116.922 192H115.594V180.578H121.953V181.75H116.922V185.938H121.648V187.102H116.922V192ZM133.766 186.273C133.766 187.154 133.654 187.956 133.43 188.68C133.206 189.398 132.872 190.018 132.43 190.539C131.992 191.055 131.448 191.453 130.797 191.734C130.146 192.016 129.391 192.156 128.531 192.156C127.646 192.156 126.872 192.016 126.211 191.734C125.555 191.453 125.008 191.052 124.57 190.531C124.138 190.01 123.812 189.388 123.594 188.664C123.38 187.94 123.273 187.138 123.273 186.258C123.273 185.091 123.466 184.068 123.852 183.188C124.237 182.307 124.82 181.622 125.602 181.133C126.388 180.643 127.372 180.398 128.555 180.398C129.685 180.398 130.635 180.641 131.406 181.125C132.182 181.609 132.768 182.292 133.164 183.172C133.565 184.047 133.766 185.081 133.766 186.273ZM124.672 186.273C124.672 187.242 124.81 188.081 125.086 188.789C125.362 189.497 125.784 190.044 126.352 190.43C126.924 190.815 127.651 191.008 128.531 191.008C129.417 191.008 130.141 190.815 130.703 190.43C131.271 190.044 131.69 189.497 131.961 188.789C132.232 188.081 132.367 187.242 132.367 186.273C132.367 184.799 132.057 183.648 131.438 182.82C130.823 181.987 129.862 181.57 128.555 181.57C127.669 181.57 126.94 181.76 126.367 182.141C125.794 182.521 125.367 183.062 125.086 183.766C124.81 184.464 124.672 185.299 124.672 186.273ZM146.219 186.273C146.219 187.154 146.107 187.956 145.883 188.68C145.659 189.398 145.326 190.018 144.883 190.539C144.445 191.055 143.901 191.453 143.25 191.734C142.599 192.016 141.844 192.156 140.984 192.156C140.099 192.156 139.326 192.016 138.664 191.734C138.008 191.453 137.461 191.052 137.023 190.531C136.591 190.01 136.266 189.388 136.047 188.664C135.833 187.94 135.727 187.138 135.727 186.258C135.727 185.091 135.919 184.068 136.305 183.188C136.69 182.307 137.273 181.622 138.055 181.133C138.841 180.643 139.826 180.398 141.008 180.398C142.138 180.398 143.089 180.641 143.859 181.125C144.635 181.609 145.221 182.292 145.617 183.172C146.018 184.047 146.219 185.081 146.219 186.273ZM137.125 186.273C137.125 187.242 137.263 188.081 137.539 188.789C137.815 189.497 138.237 190.044 138.805 190.43C139.378 190.815 140.104 191.008 140.984 191.008C141.87 191.008 142.594 190.815 143.156 190.43C143.724 190.044 144.143 189.497 144.414 188.789C144.685 188.081 144.82 187.242 144.82 186.273C144.82 184.799 144.51 183.648 143.891 182.82C143.276 181.987 142.315 181.57 141.008 181.57C140.122 181.57 139.393 181.76 138.82 182.141C138.247 182.521 137.82 183.062 137.539 183.766C137.263 184.464 137.125 185.299 137.125 186.273ZM157.836 186.18C157.836 187.466 157.602 188.542 157.133 189.406C156.664 190.266 155.984 190.914 155.094 191.352C154.208 191.784 153.133 192 151.867 192H148.766V180.578H152.211C153.372 180.578 154.372 180.792 155.211 181.219C156.049 181.641 156.695 182.268 157.148 183.102C157.607 183.93 157.836 184.956 157.836 186.18ZM156.438 186.227C156.438 185.201 156.266 184.354 155.922 183.688C155.583 183.021 155.083 182.526 154.422 182.203C153.766 181.875 152.961 181.711 152.008 181.711H150.094V190.859H151.711C153.284 190.859 154.464 190.471 155.25 189.695C156.042 188.919 156.438 187.763 156.438 186.227Z" fill="#3E9300"/>
</svg>
