<svg width="235" height="76" viewBox="0 0 235 76" fill="none" xmlns="http://www.w3.org/2000/svg">
<path fill-rule="evenodd" clip-rule="evenodd" d="M31.2419 71.971L31.1991 65.5955C31.1991 63.3679 32.3403 62.4586 33.5566 61.4894C35.1418 60.2262 36.8547 58.8613 36.335 54.3439L34.6262 24.5258C34.57 23.1898 32.9737 23.165 33.0227 24.5015L32.7627 50.034C32.6307 52.1146 30.177 51.7702 30.255 49.5829L29.9397 24.4729C29.9397 22.9744 28.3889 23.2771 28.3745 24.5836L27.9513 50.1957C27.9019 51.8273 25.5021 51.6686 25.5524 50.1191L25.1929 24.432C25.1929 23.2726 23.715 23.1583 23.684 24.2941L23.252 50.231C23.1367 52.0025 20.7667 51.7642 20.8894 49.851L20.5927 24.505C20.6117 23.074 19.1523 23.1489 19.085 24.505L17.1508 55.5948C17.1271 59.092 18.527 60.1853 19.8866 61.2471C21.1301 62.2183 22.3399 63.1631 22.396 65.8967L22.3895 72C14.1098 70.7131 7.37361 65.7995 3.27441 59.2184C3.67968 59.0756 4.14808 58.9933 4.66495 58.9853C6.48365 58.9599 8.56216 57.9545 8.56577 55.9638C8.56577 53.8588 6.79398 52.6992 4.29688 52.6466C2.13176 52.5976 0.580096 51.2729 0.423125 49.8247C0.266154 48.324 1.56883 46.943 3.95407 46.787C6.379 46.6218 8.4954 45.3897 8.4954 42.1269C8.4954 38.5937 5.8305 37.6682 3.28288 37.7335C1.93436 37.7685 0.806353 37.231 0 36.3657C0.513906 34.5793 1.21604 32.808 2.11878 31.0738C2.60779 31.1935 3.13662 31.2382 3.69967 31.197C6.6767 30.9792 8.53329 28.5294 8.53329 25.5116C8.53329 24.6808 8.39385 23.8954 8.12966 23.1935C18.621 13.5805 35.0121 13.6182 45.4456 23.2104C45.1855 23.908 45.0483 24.6875 45.0483 25.5116C45.0483 28.5294 46.9049 30.9792 49.882 31.197C50.4293 31.237 50.9442 31.1959 51.4217 31.0836C52.3255 32.8322 53.0258 34.6164 53.5357 36.4143C52.7326 37.2511 51.6218 37.7678 50.2987 37.7335C47.7511 37.6682 45.0862 38.5937 45.0862 42.1269C45.0862 45.3897 47.2026 46.6218 49.6276 46.787C52.0128 46.943 53.3155 48.324 53.1585 49.8247C53.0015 51.2729 51.4499 52.5976 49.2847 52.6466C46.7876 52.6992 45.0159 53.8588 45.0159 55.9638C45.0195 57.9545 47.098 58.9599 48.9167 58.9853C49.3937 58.9927 49.8294 59.0633 50.2123 59.1864C46.1226 65.7395 39.4281 70.6388 31.2419 71.971Z" fill="#3E9300"/>
<mask id="path-2-outside-1_2680_1653" maskUnits="userSpaceOnUse" x="68" y="28" width="103" height="21" fill="black">
<rect fill="white" x="68" y="28" width="103" height="21"/>
<path d="M72.096 47.216C71.376 47.216 70.864 47.112 70.56 46.904C70.256 46.68 70.072 46.4 70.008 46.064C69.944 45.712 69.912 45.36 69.912 45.008V32.6C69.912 31.768 70.072 31.2 70.392 30.896C70.728 30.576 71.32 30.416 72.168 30.416H80.952C81.32 30.416 81.664 30.448 81.984 30.512C82.32 30.576 82.592 30.76 82.8 31.064C83.024 31.368 83.136 31.888 83.136 32.624C83.136 33.344 83.024 33.856 82.8 34.16C82.592 34.464 82.32 34.648 81.984 34.712C81.648 34.776 81.296 34.808 80.928 34.808H74.304V36.944H78.744C79.112 36.944 79.44 36.976 79.728 37.04C80.016 37.088 80.248 37.24 80.424 37.496C80.6 37.752 80.688 38.2 80.688 38.84C80.688 39.448 80.6 39.888 80.424 40.16C80.248 40.416 80.008 40.568 79.704 40.616C79.4 40.664 79.064 40.688 78.696 40.688H74.304V42.824H80.952C81.32 42.824 81.664 42.856 81.984 42.92C82.32 42.984 82.592 43.168 82.8 43.472C83.024 43.776 83.136 44.296 83.136 45.032C83.136 45.752 83.024 46.264 82.8 46.568C82.592 46.872 82.32 47.056 81.984 47.12C81.648 47.184 81.296 47.216 80.928 47.216H72.096ZM95.9249 47.168C95.2049 47.168 94.6689 47.048 94.3169 46.808C93.9809 46.568 93.8209 46.296 93.8369 45.992H94.1729C94.0929 46.104 93.9329 46.256 93.6929 46.448C93.4689 46.624 93.1649 46.792 92.7809 46.952C92.3969 47.096 91.9249 47.168 91.3649 47.168C90.6449 47.168 89.9489 47.008 89.2769 46.688C88.6209 46.352 88.0289 45.896 87.5009 45.32C86.9889 44.744 86.5809 44.096 86.2769 43.376C85.9729 42.64 85.8209 41.872 85.8209 41.072C85.8209 40.288 85.9729 39.536 86.2769 38.816C86.5809 38.096 86.9969 37.456 87.5249 36.896C88.0529 36.32 88.6449 35.872 89.3009 35.552C89.9569 35.216 90.6449 35.048 91.3649 35.048C91.9089 35.048 92.3649 35.128 92.7329 35.288C93.1169 35.448 93.4209 35.624 93.6449 35.816C93.8849 36.008 94.0449 36.168 94.1249 36.296H93.8609C93.8449 35.896 94.0049 35.584 94.3409 35.36C94.6929 35.136 95.2289 35.024 95.9489 35.024C96.6689 35.024 97.1729 35.136 97.4609 35.36C97.7649 35.568 97.9489 35.84 98.0129 36.176C98.0769 36.512 98.1089 36.856 98.1089 37.208V45.008C98.1089 45.36 98.0769 45.704 98.0129 46.04C97.9489 46.376 97.7649 46.648 97.4609 46.856C97.1729 47.064 96.6609 47.168 95.9249 47.168ZM91.9649 42.824C92.2689 42.824 92.5409 42.744 92.7809 42.584C93.0369 42.424 93.2369 42.216 93.3809 41.96C93.5409 41.688 93.6209 41.4 93.6209 41.096C93.6209 40.776 93.5409 40.488 93.3809 40.232C93.2369 39.976 93.0369 39.768 92.7809 39.608C92.5249 39.448 92.2369 39.368 91.9169 39.368C91.5969 39.368 91.3009 39.448 91.0289 39.608C90.7729 39.768 90.5649 39.984 90.4049 40.256C90.2449 40.512 90.1649 40.8 90.1649 41.12C90.1649 41.424 90.2449 41.704 90.4049 41.96C90.5809 42.216 90.8049 42.424 91.0769 42.584C91.3489 42.744 91.6449 42.824 91.9649 42.824ZM108.068 47.216C107.22 47.216 106.484 47.12 105.86 46.928C105.236 46.736 104.716 46.44 104.3 46.04C103.9 45.64 103.596 45.136 103.388 44.528C103.196 43.92 103.1 43.208 103.1 42.392V33.08C103.1 32.712 103.132 32.376 103.196 32.072C103.26 31.752 103.444 31.496 103.748 31.304C104.052 31.096 104.564 30.992 105.284 30.992C105.988 30.992 106.492 31.104 106.796 31.328C107.1 31.536 107.284 31.808 107.348 32.144C107.412 32.48 107.444 32.824 107.444 33.176V42.176C107.444 42.352 107.452 42.504 107.468 42.632C107.5 42.744 107.54 42.832 107.588 42.896C107.636 42.96 107.7 43.008 107.78 43.04C107.86 43.072 107.964 43.088 108.092 43.088C108.508 43.088 108.876 43.12 109.196 43.184C109.532 43.248 109.788 43.416 109.964 43.688C110.156 43.96 110.252 44.416 110.252 45.056C110.252 45.776 110.14 46.288 109.916 46.592C109.692 46.896 109.412 47.072 109.076 47.12C108.74 47.184 108.404 47.216 108.068 47.216ZM102.596 35.168H105.404L108.716 35.048C109.068 35.048 109.404 35.08 109.724 35.144C110.06 35.208 110.332 35.392 110.54 35.696C110.764 36 110.876 36.52 110.876 37.256C110.876 37.928 110.764 38.416 110.54 38.72C110.332 39.024 110.06 39.216 109.724 39.296C109.404 39.376 109.06 39.416 108.692 39.416L105.644 39.344H102.5C101.956 39.312 101.58 39.136 101.372 38.816C101.164 38.496 101.06 37.968 101.06 37.232C101.06 36.544 101.188 36.032 101.444 35.696C101.7 35.344 102.084 35.168 102.596 35.168ZM119.413 47.192C118.901 47.192 118.501 47.088 118.213 46.88C117.925 46.672 117.717 46.448 117.589 46.208C117.461 45.952 117.381 45.784 117.349 45.704L113.029 33.32C112.789 32.52 112.749 31.928 112.909 31.544C113.085 31.144 113.589 30.808 114.421 30.536C114.965 30.36 115.405 30.28 115.741 30.296C116.077 30.312 116.357 30.448 116.581 30.704C116.805 30.96 117.005 31.36 117.181 31.904L119.677 39.2L121.645 32.024C121.693 31.864 121.773 31.656 121.885 31.4C122.013 31.144 122.221 30.92 122.509 30.728C122.797 30.52 123.213 30.416 123.757 30.416C124.365 30.416 124.813 30.528 125.101 30.752C125.405 30.976 125.613 31.216 125.725 31.472C125.837 31.728 125.917 31.92 125.965 32.048L127.933 39.248L130.429 31.904C130.605 31.376 130.797 30.984 131.005 30.728C131.229 30.456 131.517 30.304 131.869 30.272C132.221 30.24 132.669 30.32 133.213 30.512C133.789 30.72 134.197 30.944 134.437 31.184C134.677 31.408 134.797 31.688 134.797 32.024C134.813 32.36 134.741 32.792 134.581 33.32L130.285 45.704C130.253 45.8 130.173 45.968 130.045 46.208C129.933 46.448 129.733 46.672 129.445 46.88C129.157 47.088 128.741 47.192 128.197 47.192C127.653 47.192 127.229 47.072 126.925 46.832C126.621 46.576 126.405 46.32 126.277 46.064C126.149 45.792 126.077 45.632 126.061 45.584L123.805 38.192L121.549 45.56C121.533 45.64 121.461 45.816 121.333 46.088C121.205 46.344 120.989 46.592 120.685 46.832C120.397 47.072 119.973 47.192 119.413 47.192ZM139.461 47.216C138.741 47.216 138.229 47.112 137.925 46.904C137.621 46.68 137.437 46.4 137.373 46.064C137.325 45.728 137.301 45.384 137.301 45.032V37.208C137.301 36.856 137.333 36.52 137.397 36.2C137.461 35.864 137.645 35.592 137.949 35.384C138.253 35.16 138.765 35.048 139.485 35.048C140.205 35.048 140.709 35.16 140.997 35.384C141.301 35.592 141.485 35.864 141.549 36.2C141.613 36.536 141.645 36.888 141.645 37.256V45.056C141.645 45.408 141.613 45.752 141.549 46.088C141.485 46.424 141.301 46.696 140.997 46.904C140.709 47.112 140.197 47.216 139.461 47.216ZM139.461 33.872C138.741 33.872 138.229 33.768 137.925 33.56C137.621 33.336 137.437 33.056 137.373 32.72C137.325 32.384 137.301 32.04 137.301 31.688C137.301 31.32 137.333 30.976 137.397 30.656C137.461 30.32 137.645 30.048 137.949 29.84C138.253 29.632 138.765 29.528 139.485 29.528C140.205 29.528 140.709 29.64 140.997 29.864C141.301 30.072 141.485 30.344 141.549 30.68C141.613 31.016 141.645 31.36 141.645 31.712C141.645 32.064 141.613 32.408 141.549 32.744C141.485 33.08 141.301 33.352 140.997 33.56C140.709 33.768 140.197 33.872 139.461 33.872ZM149.74 47.432C149.292 47.432 148.788 47.376 148.228 47.264C147.684 47.168 147.148 47.024 146.62 46.832C146.108 46.624 145.684 46.384 145.348 46.112C145.012 45.84 144.844 45.528 144.844 45.176C144.844 45.016 144.876 44.84 144.94 44.648C145.02 44.44 145.124 44.216 145.252 43.976C145.38 43.736 145.54 43.48 145.732 43.208C145.844 43.048 145.972 42.928 146.116 42.848C146.276 42.768 146.46 42.728 146.668 42.728C146.956 42.728 147.236 42.792 147.508 42.92C147.78 43.032 148.052 43.168 148.324 43.328C148.596 43.472 148.876 43.608 149.164 43.736C149.468 43.848 149.788 43.904 150.124 43.904C150.428 43.904 150.652 43.872 150.796 43.808C150.956 43.744 151.036 43.648 151.036 43.52C151.036 43.392 150.98 43.288 150.868 43.208C150.772 43.128 150.628 43.064 150.436 43.016C150.26 42.952 150.052 42.896 149.812 42.848C149.572 42.8 149.316 42.744 149.044 42.68C148.772 42.616 148.492 42.536 148.204 42.44C147.836 42.328 147.476 42.184 147.124 42.008C146.772 41.816 146.452 41.568 146.164 41.264C145.892 40.96 145.668 40.592 145.492 40.16C145.332 39.728 145.252 39.2 145.252 38.576C145.252 37.744 145.444 37.048 145.828 36.488C146.212 35.928 146.78 35.504 147.532 35.216C148.284 34.928 149.212 34.784 150.316 34.784C150.588 34.784 150.86 34.8 151.132 34.832C151.404 34.864 151.676 34.912 151.948 34.976C152.236 35.04 152.516 35.128 152.788 35.24C153.076 35.336 153.364 35.448 153.652 35.576C154.244 35.832 154.548 36.192 154.564 36.656C154.58 37.104 154.412 37.576 154.06 38.072C153.868 38.376 153.668 38.608 153.46 38.768C153.268 38.912 153.068 38.984 152.86 38.984C152.604 38.984 152.324 38.912 152.02 38.768C151.716 38.624 151.396 38.48 151.06 38.336C150.724 38.192 150.388 38.12 150.052 38.12C149.86 38.12 149.692 38.144 149.548 38.192C149.42 38.224 149.324 38.28 149.26 38.36C149.196 38.424 149.164 38.504 149.164 38.6C149.164 38.776 149.22 38.92 149.332 39.032C149.46 39.128 149.62 39.208 149.812 39.272C150.02 39.336 150.252 39.392 150.508 39.44C150.78 39.488 151.068 39.536 151.372 39.584C151.788 39.648 152.212 39.752 152.644 39.896C153.092 40.024 153.5 40.216 153.868 40.472C154.236 40.728 154.532 41.08 154.756 41.528C154.98 41.976 155.092 42.56 155.092 43.28C155.092 44.64 154.636 45.672 153.724 46.376C152.828 47.08 151.5 47.432 149.74 47.432ZM164.365 47.48C163.165 47.48 162.149 47.288 161.317 46.904C160.485 46.504 159.813 45.992 159.301 45.368C158.789 44.728 158.413 44.04 158.173 43.304C157.933 42.568 157.813 41.856 157.813 41.168C157.813 39.904 158.093 38.792 158.653 37.832C159.213 36.872 159.989 36.12 160.981 35.576C161.973 35.032 163.109 34.76 164.389 34.76C165.381 34.76 166.229 34.92 166.933 35.24C167.637 35.56 168.205 35.968 168.637 36.464C169.085 36.96 169.413 37.488 169.621 38.048C169.829 38.608 169.933 39.128 169.933 39.608C169.933 40.52 169.709 41.216 169.261 41.696C168.813 42.176 168.237 42.416 167.533 42.416H162.421C162.485 42.672 162.613 42.896 162.805 43.088C163.013 43.264 163.269 43.408 163.573 43.52C163.877 43.616 164.205 43.664 164.557 43.664C164.909 43.664 165.221 43.648 165.493 43.616C165.765 43.568 165.997 43.512 166.189 43.448C166.397 43.384 166.581 43.32 166.741 43.256C166.917 43.192 167.069 43.144 167.197 43.112C167.341 43.064 167.477 43.04 167.605 43.04C167.893 43.04 168.157 43.136 168.397 43.328C168.637 43.52 168.853 43.808 169.045 44.192C169.157 44.4 169.237 44.6 169.285 44.792C169.333 44.968 169.357 45.136 169.357 45.296C169.357 45.776 169.157 46.176 168.757 46.496C168.373 46.816 167.813 47.056 167.077 47.216C166.341 47.392 165.437 47.48 164.365 47.48ZM162.421 40.16H165.109C165.333 40.16 165.493 40.112 165.589 40.016C165.701 39.92 165.757 39.776 165.757 39.584C165.757 39.376 165.693 39.2 165.565 39.056C165.453 38.912 165.293 38.808 165.085 38.744C164.877 38.664 164.629 38.624 164.341 38.624C163.957 38.624 163.621 38.704 163.333 38.864C163.045 39.008 162.821 39.2 162.661 39.44C162.517 39.664 162.437 39.904 162.421 40.16Z"/>
</mask>
<path d="M70.56 46.904L69.9668 47.7091L69.9809 47.7194L69.9953 47.7293L70.56 46.904ZM70.008 46.064L69.0241 46.2429L69.0257 46.2511L70.008 46.064ZM70.392 30.896L71.0807 31.621L71.0817 31.6201L70.392 30.896ZM81.984 30.512L81.7879 31.4926L81.7969 31.4943L81.984 30.512ZM82.8 31.064L81.9747 31.6287L81.9846 31.6431L81.9949 31.6572L82.8 31.064ZM82.8 34.16L81.9949 33.5668L81.9846 33.5809L81.9747 33.5953L82.8 34.16ZM81.984 34.712L81.7969 33.7297H81.7969L81.984 34.712ZM74.304 34.808V33.808H73.304V34.808H74.304ZM74.304 36.944H73.304V37.944H74.304V36.944ZM79.728 37.04L79.5111 38.0162L79.5372 38.022L79.5636 38.0264L79.728 37.04ZM80.424 37.496L79.6 38.0625L79.6 38.0625L80.424 37.496ZM80.424 40.16L81.248 40.7265L81.256 40.715L81.2636 40.7033L80.424 40.16ZM79.704 40.616L79.86 41.6038H79.86L79.704 40.616ZM74.304 40.688V39.688H73.304V40.688H74.304ZM74.304 42.824H73.304V43.824H74.304V42.824ZM81.984 42.92L81.7879 43.9006L81.7969 43.9023L81.984 42.92ZM82.8 43.472L81.9747 44.0367L81.9846 44.0511L81.9949 44.0652L82.8 43.472ZM82.8 46.568L81.9949 45.9748L81.9846 45.9889L81.9747 46.0033L82.8 46.568ZM81.984 47.12L81.7969 46.1377H81.7969L81.984 47.12ZM72.096 47.216V46.216C71.4163 46.216 71.1663 46.1071 71.1247 46.0787L70.56 46.904L69.9953 47.7293C70.5617 48.1169 71.3357 48.216 72.096 48.216V47.216ZM70.56 46.904L71.1532 46.0989C71.0293 46.0076 71.0021 45.9386 70.9903 45.8769L70.008 46.064L69.0257 46.2511C69.1419 46.8614 69.4827 47.3524 69.9668 47.7091L70.56 46.904ZM70.008 46.064L70.9919 45.8851C70.9384 45.5912 70.912 45.299 70.912 45.008H69.912H68.912C68.912 45.421 68.9496 45.8328 69.0241 46.2429L70.008 46.064ZM69.912 45.008H70.912V32.6H69.912H68.912V45.008H69.912ZM69.912 32.6H70.912C70.912 32.2414 70.9472 31.9891 70.9945 31.8211C71.0417 31.6538 71.088 31.6141 71.0807 31.621L70.392 30.896L69.7033 30.171C69.0681 30.7744 68.912 31.7123 68.912 32.6H69.912ZM70.392 30.896L71.0817 31.6201C71.1284 31.5756 71.3854 31.416 72.168 31.416V30.416V29.416C71.2546 29.416 70.3276 29.5764 69.7023 30.1719L70.392 30.896ZM72.168 30.416V31.416H80.952V30.416V29.416H72.168V30.416ZM80.952 30.416V31.416C81.2623 31.416 81.54 31.443 81.7879 31.4926L81.984 30.512L82.1801 29.5314C81.788 29.453 81.3777 29.416 80.952 29.416V30.416ZM81.984 30.512L81.7969 31.4943C81.8521 31.5049 81.9032 31.5242 81.9747 31.6287L82.8 31.064L83.6253 30.4993C83.2808 29.9958 82.7879 29.6471 82.1711 29.5297L81.984 30.512ZM82.8 31.064L81.9949 31.6572C81.9941 31.656 82.0049 31.6705 82.021 31.7101C82.0372 31.7498 82.0564 31.809 82.0744 31.8926C82.1111 32.0627 82.136 32.302 82.136 32.624H83.136H84.136C84.136 31.8458 84.0292 31.0464 83.6051 30.4708L82.8 31.064ZM83.136 32.624H82.136C82.136 33.2959 82.0206 33.532 81.9949 33.5668L82.8 34.16L83.6051 34.7532C84.0274 34.18 84.136 33.3921 84.136 32.624H83.136ZM82.8 34.16L81.9747 33.5953C81.9032 33.6998 81.8521 33.7191 81.7969 33.7297L81.984 34.712L82.1711 35.6943C82.7879 35.5769 83.2808 35.2282 83.6253 34.7247L82.8 34.16ZM81.984 34.712L81.7969 33.7297C81.527 33.7811 81.2379 33.808 80.928 33.808V34.808V35.808C81.3541 35.808 81.769 35.7709 82.1711 35.6943L81.984 34.712ZM80.928 34.808V33.808H74.304V34.808V35.808H80.928V34.808ZM74.304 34.808H73.304V36.944H74.304H75.304V34.808H74.304ZM74.304 36.944V37.944H78.744V36.944V35.944H74.304V36.944ZM78.744 36.944V37.944C79.0561 37.944 79.3092 37.9713 79.5111 38.0162L79.728 37.04L79.9449 36.0638C79.5708 35.9807 79.1679 35.944 78.744 35.944V36.944ZM79.728 37.04L79.5636 38.0264C79.5723 38.0278 79.5754 38.0292 79.5745 38.0288C79.5735 38.0285 79.5716 38.0275 79.57 38.0265C79.5684 38.0254 79.5699 38.0261 79.5744 38.0306C79.579 38.0353 79.5879 38.045 79.6 38.0625L80.424 37.496L81.248 36.9295C80.9292 36.4658 80.4667 36.1493 79.8924 36.0536L79.728 37.04ZM80.424 37.496L79.6 38.0625C79.5831 38.038 79.6118 38.0692 79.6408 38.2167C79.6684 38.3577 79.688 38.5611 79.688 38.84H80.688H81.688C81.688 38.1729 81.6087 37.454 81.248 36.9295L80.424 37.496ZM80.688 38.84H79.688C79.688 39.0997 79.6689 39.2926 79.6414 39.4299C79.6133 39.5706 79.5831 39.6188 79.5844 39.6167L80.424 40.16L81.2636 40.7033C81.6017 40.1807 81.688 39.4972 81.688 38.84H80.688ZM80.424 40.16L79.6 39.5935C79.59 39.6079 79.5829 39.6155 79.5798 39.6186C79.5768 39.6215 79.5759 39.6218 79.5769 39.6212C79.578 39.6205 79.5778 39.6209 79.5749 39.6219C79.5719 39.623 79.5635 39.6258 79.548 39.6282L79.704 40.616L79.86 41.6038C80.4379 41.5125 80.9182 41.2062 81.248 40.7265L80.424 40.16ZM79.704 40.616L79.548 39.6282C79.3045 39.6667 79.0215 39.688 78.696 39.688V40.688V41.688C79.1065 41.688 79.4955 41.6613 79.86 41.6038L79.704 40.616ZM78.696 40.688V39.688H74.304V40.688V41.688H78.696V40.688ZM74.304 40.688H73.304V42.824H74.304H75.304V40.688H74.304ZM74.304 42.824V43.824H80.952V42.824V41.824H74.304V42.824ZM80.952 42.824V43.824C81.2623 43.824 81.54 43.851 81.7879 43.9006L81.984 42.92L82.1801 41.9394C81.788 41.861 81.3777 41.824 80.952 41.824V42.824ZM81.984 42.92L81.7969 43.9023C81.8521 43.9129 81.9032 43.9322 81.9747 44.0367L82.8 43.472L83.6253 42.9073C83.2808 42.4038 82.7879 42.0551 82.1711 41.9377L81.984 42.92ZM82.8 43.472L81.9949 44.0652C81.9941 44.064 82.0049 44.0785 82.021 44.1181C82.0372 44.1578 82.0564 44.217 82.0744 44.3006C82.1111 44.4707 82.136 44.71 82.136 45.032H83.136H84.136C84.136 44.2538 84.0292 43.4544 83.6051 42.8788L82.8 43.472ZM83.136 45.032H82.136C82.136 45.7039 82.0206 45.94 81.9949 45.9748L82.8 46.568L83.6051 47.1612C84.0274 46.588 84.136 45.8001 84.136 45.032H83.136ZM82.8 46.568L81.9747 46.0033C81.9032 46.1078 81.8521 46.1271 81.7969 46.1377L81.984 47.12L82.1711 48.1023C82.7879 47.9849 83.2808 47.6362 83.6253 47.1327L82.8 46.568ZM81.984 47.12L81.7969 46.1377C81.527 46.1891 81.2379 46.216 80.928 46.216V47.216V48.216C81.3541 48.216 81.769 48.1789 82.1711 48.1023L81.984 47.12ZM80.928 47.216V46.216H72.096V47.216V48.216H80.928V47.216ZM94.3169 46.808L93.7357 47.6217L93.7446 47.6281L93.7536 47.6342L94.3169 46.808ZM93.8369 45.992V44.992H92.8882L92.8383 45.9394L93.8369 45.992ZM94.1729 45.992L94.9867 46.5732L96.1161 44.992H94.1729V45.992ZM93.6929 46.448L94.3108 47.2343L94.3176 47.2289L93.6929 46.448ZM92.7809 46.952L93.1321 47.8883L93.1489 47.882L93.1656 47.8751L92.7809 46.952ZM89.2769 46.688L88.8211 47.578L88.8339 47.5846L88.847 47.5909L89.2769 46.688ZM87.5009 45.32L86.7535 45.9844L86.7586 45.9901L86.7638 45.9957L87.5009 45.32ZM86.2769 43.376L85.3526 43.7578L85.3557 43.765L86.2769 43.376ZM86.2769 38.816L85.3557 38.427V38.427L86.2769 38.816ZM87.5249 36.896L88.2526 37.5821L88.2621 37.5717L87.5249 36.896ZM89.3009 35.552L89.7394 36.4508L89.7481 36.4465L89.7568 36.442L89.3009 35.552ZM92.7329 35.288L92.3342 36.2051L92.3412 36.2081L92.3483 36.2111L92.7329 35.288ZM93.6449 35.816L92.9941 36.5753L93.007 36.5863L93.0202 36.5969L93.6449 35.816ZM94.1249 36.296V37.296H95.9292L94.9729 35.766L94.1249 36.296ZM93.8609 36.296L92.8617 36.336L92.9001 37.296H93.8609V36.296ZM94.3409 35.36L93.8041 34.5163L93.7951 34.522L93.7862 34.528L94.3409 35.36ZM97.4609 35.36L96.847 36.1494L96.8711 36.1681L96.8963 36.1853L97.4609 35.36ZM98.0129 36.176L97.0306 36.3631V36.3631L98.0129 36.176ZM98.0129 46.04L97.0306 45.8529V45.8529L98.0129 46.04ZM97.4609 46.856L96.8963 46.0307L96.8858 46.0379L96.8754 46.0453L97.4609 46.856ZM92.7809 42.584L92.2509 41.736L92.2385 41.7438L92.2262 41.7519L92.7809 42.584ZM93.3809 41.96L92.519 41.453L92.5141 41.4613L92.5094 41.4697L93.3809 41.96ZM93.3809 40.232L92.5094 40.7223L92.5207 40.7424L92.5329 40.762L93.3809 40.232ZM92.7809 39.608L93.3109 38.76H93.3109L92.7809 39.608ZM91.0289 39.608L90.5219 38.7461L90.5103 38.7529L90.4989 38.76L91.0289 39.608ZM90.4049 40.256L91.2529 40.786L91.2601 40.7746L91.2669 40.763L90.4049 40.256ZM90.4049 41.96L89.5569 42.49L89.5685 42.5085L89.5809 42.5265L90.4049 41.96ZM91.0769 42.584L91.584 41.7221V41.7221L91.0769 42.584ZM95.9249 47.168V46.168C95.2818 46.168 94.9869 46.0545 94.8803 45.9818L94.3169 46.808L93.7536 47.6342C94.3509 48.0415 95.1281 48.168 95.9249 48.168V47.168ZM94.3169 46.808L94.8982 45.9943C94.8558 45.964 94.8302 45.9407 94.8162 45.9262C94.8024 45.912 94.8018 45.9084 94.8069 45.917C94.8124 45.9263 94.8214 45.9449 94.8281 45.9715C94.8348 45.9983 94.8366 46.0239 94.8356 46.0446L93.8369 45.992L92.8383 45.9394C92.7983 46.7006 93.2317 47.2618 93.7357 47.6217L94.3169 46.808ZM93.8369 45.992V46.992H94.1729V45.992V44.992H93.8369V45.992ZM94.1729 45.992L93.3592 45.4108C93.3715 45.3936 93.3621 45.41 93.3042 45.465C93.2509 45.5156 93.174 45.5825 93.0682 45.6671L93.6929 46.448L94.3176 47.2289C94.5634 47.0323 94.8197 46.807 94.9867 46.5732L94.1729 45.992ZM93.6929 46.448L93.0751 45.6617C92.9468 45.7625 92.7314 45.8893 92.3963 46.0289L92.7809 46.952L93.1656 47.8751C93.5985 47.6947 93.9911 47.4855 94.3108 47.2343L93.6929 46.448ZM92.7809 46.952L92.4298 46.0157C92.1909 46.1053 91.8459 46.168 91.3649 46.168V47.168V48.168C92.004 48.168 92.603 48.0867 93.1321 47.8883L92.7809 46.952ZM91.3649 47.168V46.168C90.7988 46.168 90.2492 46.0434 89.7069 45.7851L89.2769 46.688L88.847 47.5909C89.6486 47.9726 90.4911 48.168 91.3649 48.168V47.168ZM89.2769 46.688L89.7328 45.798C89.1888 45.5193 88.6907 45.138 88.2381 44.6443L87.5009 45.32L86.7638 45.9957C87.3672 46.654 88.0531 47.1847 88.8211 47.578L89.2769 46.688ZM87.5009 45.32L88.2483 44.6556C87.81 44.1625 87.4603 43.6078 87.1982 42.987L86.2769 43.376L85.3557 43.765C85.7016 44.5842 86.1679 45.3255 86.7535 45.9844L87.5009 45.32ZM86.2769 43.376L87.2012 42.9942C86.9474 42.3799 86.8209 41.7416 86.8209 41.072H85.8209H84.8209C84.8209 42.0024 84.9984 42.9001 85.3527 43.7578L86.2769 43.376ZM85.8209 41.072H86.8209C86.8209 40.4212 86.9463 39.8015 87.1982 39.205L86.2769 38.816L85.3557 38.427C84.9995 39.2705 84.8209 40.1548 84.8209 41.072H85.8209ZM86.2769 38.816L87.1982 39.205C87.4566 38.593 87.8075 38.054 88.2525 37.582L87.5249 36.896L86.7973 36.21C86.1863 36.858 85.7053 37.599 85.3557 38.427L86.2769 38.816ZM87.5249 36.896L88.2621 37.5717C88.7114 37.0816 89.2038 36.712 89.7394 36.4508L89.3009 35.552L88.8625 34.6532C88.0861 35.032 87.3945 35.5584 86.7878 36.2203L87.5249 36.896ZM89.3009 35.552L89.7568 36.442C90.2752 36.1765 90.8073 36.048 91.3649 36.048V35.048V34.048C90.4826 34.048 89.6387 34.2555 88.8451 34.662L89.3009 35.552ZM91.3649 35.048V36.048C91.8177 36.048 92.1283 36.1155 92.3342 36.2051L92.7329 35.288L93.1317 34.3709C92.6016 34.1405 92.0002 34.048 91.3649 34.048V35.048ZM92.7329 35.288L92.3483 36.2111C92.6719 36.3459 92.875 36.4731 92.9941 36.5753L93.6449 35.816L94.2957 35.0567C93.9669 34.7749 93.5619 34.5501 93.1176 34.3649L92.7329 35.288ZM93.6449 35.816L93.0202 36.5969C93.1209 36.6774 93.1913 36.7405 93.2378 36.7871C93.288 36.8373 93.2916 36.8495 93.2769 36.826L94.1249 36.296L94.9729 35.766C94.7987 35.4872 94.5259 35.2402 94.2696 35.0351L93.6449 35.816ZM94.1249 36.296V35.296H93.8609V36.296V37.296H94.1249V36.296ZM93.8609 36.296L94.8601 36.256C94.859 36.2279 94.8615 36.2139 94.8621 36.2107C94.8626 36.2083 94.862 36.2119 94.8588 36.2183C94.8555 36.2247 94.8532 36.2266 94.8559 36.2237C94.8591 36.2203 94.8704 36.2089 94.8956 36.1921L94.3409 35.36L93.7862 34.528C93.1633 34.9432 92.8317 35.584 92.8617 36.336L93.8609 36.296ZM94.3409 35.36L94.8778 36.2037C94.9908 36.1317 95.2975 36.024 95.9489 36.024V35.024V34.024C95.1604 34.024 94.395 34.1403 93.8041 34.5163L94.3409 35.36ZM95.9489 35.024V36.024C96.2622 36.024 96.491 36.0488 96.65 36.0842C96.8134 36.1205 96.858 36.1579 96.847 36.1494L97.4609 35.36L98.0749 34.5706C97.5074 34.1293 96.7083 34.024 95.9489 34.024V35.024ZM97.4609 35.36L96.8963 36.1853C97.0007 36.2568 97.0201 36.3079 97.0306 36.3631L98.0129 36.176L98.9953 35.9889C98.8778 35.3721 98.5292 34.8792 98.0256 34.5347L97.4609 35.36ZM98.0129 36.176L97.0306 36.3631C97.0825 36.6357 97.1089 36.917 97.1089 37.208H98.1089H99.1089C99.1089 36.795 99.0714 36.3883 98.9953 35.9889L98.0129 36.176ZM98.1089 37.208H97.1089V45.008H98.1089H99.1089V37.208H98.1089ZM98.1089 45.008H97.1089C97.1089 45.299 97.0825 45.5803 97.0306 45.8529L98.0129 46.04L98.9953 46.2271C99.0714 45.8277 99.1089 45.421 99.1089 45.008H98.1089ZM98.0129 46.04L97.0306 45.8529C97.0201 45.9081 97.0007 45.9592 96.8963 46.0307L97.4609 46.856L98.0256 47.6813C98.5292 47.3368 98.8778 46.8439 98.9953 46.2271L98.0129 46.04ZM97.4609 46.856L96.8754 46.0453C96.8878 46.0364 96.8386 46.0741 96.6619 46.11C96.4919 46.1445 96.2509 46.168 95.9249 46.168V47.168V48.168C96.6867 48.168 97.4828 48.0737 98.0464 47.6667L97.4609 46.856ZM91.9649 42.824V43.824C92.4551 43.824 92.9223 43.6916 93.3356 43.416L92.7809 42.584L92.2262 41.7519C92.1596 41.7964 92.0827 41.824 91.9649 41.824V42.824ZM92.7809 42.584L93.3109 43.432C93.7048 43.1858 94.0241 42.8564 94.2525 42.4503L93.3809 41.96L92.5094 41.4697C92.4498 41.5756 92.369 41.6622 92.2509 41.736L92.7809 42.584ZM93.3809 41.96L94.2429 42.467C94.4897 42.0475 94.6209 41.5853 94.6209 41.096H93.6209H92.6209C92.6209 41.2147 92.5922 41.3285 92.519 41.453L93.3809 41.96ZM93.6209 41.096H94.6209C94.6209 40.6003 94.4943 40.1266 94.2289 39.702L93.3809 40.232L92.5329 40.762C92.5876 40.8494 92.6209 40.9517 92.6209 41.096H93.6209ZM93.3809 40.232L94.2525 39.7417C94.0241 39.3356 93.7048 39.0062 93.3109 38.76L92.7809 39.608L92.2509 40.456C92.369 40.5298 92.4498 40.6164 92.5094 40.7223L93.3809 40.232ZM92.7809 39.608L93.3109 38.76C92.8863 38.4946 92.4126 38.368 91.9169 38.368V39.368V40.368C92.0613 40.368 92.1636 40.4014 92.2509 40.456L92.7809 39.608ZM91.9169 39.368V38.368C91.4213 38.368 90.9498 38.4943 90.5219 38.7461L91.0289 39.608L91.536 40.4699C91.652 40.4017 91.7726 40.368 91.9169 40.368V39.368ZM91.0289 39.608L90.4989 38.76C90.1002 39.0092 89.7808 39.3448 89.543 39.749L90.4049 40.256L91.2669 40.763C91.3491 40.6232 91.4457 40.5268 91.5589 40.456L91.0289 39.608ZM90.4049 40.256L89.5569 39.726C89.2916 40.1506 89.1649 40.6243 89.1649 41.12H90.1649H91.1649C91.1649 40.9757 91.1983 40.8734 91.2529 40.786L90.4049 40.256ZM90.1649 41.12H89.1649C89.1649 41.61 89.2969 42.0739 89.5569 42.49L90.4049 41.96L91.2529 41.43C91.193 41.3341 91.1649 41.238 91.1649 41.12H90.1649ZM90.4049 41.96L89.5809 42.5265C89.841 42.9049 90.174 43.213 90.5699 43.4459L91.0769 42.584L91.584 41.7221C91.4359 41.635 91.3208 41.5271 91.229 41.3935L90.4049 41.96ZM91.0769 42.584L90.5699 43.4459C90.9978 43.6977 91.4693 43.824 91.9649 43.824V42.824V41.824C91.8206 41.824 91.7 41.7903 91.584 41.7221L91.0769 42.584ZM104.3 46.04L103.593 46.7471L103.6 46.754L103.607 46.7608L104.3 46.04ZM103.388 44.528L102.435 44.8291L102.438 44.8405L102.442 44.8517L103.388 44.528ZM103.196 32.072L104.175 32.278L104.177 32.2681L103.196 32.072ZM103.748 31.304L104.282 32.1495L104.298 32.1397L104.313 32.1293L103.748 31.304ZM106.796 31.328L106.203 32.1331L106.217 32.1434L106.232 32.1533L106.796 31.328ZM107.348 32.144L106.366 32.3311V32.3311L107.348 32.144ZM107.468 42.632L106.476 42.756L106.486 42.8326L106.507 42.9067L107.468 42.632ZM107.588 42.896L106.788 43.496L106.788 43.496L107.588 42.896ZM109.196 43.184L109 44.1646L109.009 44.1663L109.196 43.184ZM109.964 43.688L109.125 44.2313L109.136 44.2482L109.147 44.2647L109.964 43.688ZM109.916 46.592L110.721 47.1852L109.916 46.592ZM109.076 47.12L108.935 46.1301L108.912 46.1333L108.889 46.1377L109.076 47.12ZM105.404 35.168V36.168H105.422L105.441 36.1673L105.404 35.168ZM108.716 35.048V34.048H108.698L108.68 34.0487L108.716 35.048ZM109.724 35.144L109.528 36.1246L109.537 36.1263L109.724 35.144ZM110.54 35.696L109.715 36.2607L109.725 36.2751L109.735 36.2892L110.54 35.696ZM110.54 38.72L109.735 38.1268L109.725 38.1409L109.715 38.1553L110.54 38.72ZM109.724 39.296L109.493 38.3231L109.482 38.3259L109.724 39.296ZM108.692 39.416L108.669 40.4157L108.681 40.416H108.692V39.416ZM105.644 39.344L105.668 38.3443L105.656 38.344H105.644V39.344ZM102.5 39.344L102.442 40.3423L102.471 40.344H102.5V39.344ZM101.372 38.816L102.211 38.271V38.271L101.372 38.816ZM101.444 35.696L102.24 36.302L102.246 36.2932L102.253 36.2842L101.444 35.696ZM108.068 47.216V46.216C107.292 46.216 106.66 46.1277 106.154 45.9722L105.86 46.928L105.566 47.8838C106.309 48.1123 107.149 48.216 108.068 48.216V47.216ZM105.86 46.928L106.154 45.9722C105.66 45.8201 105.283 45.5972 104.993 45.3192L104.3 46.04L103.607 46.7608C104.15 47.2828 104.812 47.6519 105.566 47.8838L105.86 46.928ZM104.3 46.04L105.007 45.3329C104.729 45.0546 104.5 44.6877 104.334 44.2043L103.388 44.528L102.442 44.8517C102.693 45.5843 103.071 46.2254 103.593 46.7471L104.3 46.04ZM103.388 44.528L104.342 44.2269C104.188 43.7391 104.1 43.1329 104.1 42.392H103.1H102.1C102.1 43.2831 102.205 44.1009 102.435 44.8291L103.388 44.528ZM103.1 42.392H104.1V33.08H103.1H102.1V42.392H103.1ZM103.1 33.08H104.1C104.1 32.7689 104.127 32.5032 104.175 32.278L103.196 32.072L102.218 31.866C102.137 32.2488 102.1 32.6551 102.1 33.08H103.1ZM103.196 32.072L104.177 32.2681C104.181 32.2454 104.184 32.2118 104.282 32.1495L103.748 31.304L103.214 30.4585C102.705 30.7802 102.339 31.2586 102.216 31.8759L103.196 32.072ZM103.748 31.304L104.313 32.1293C104.355 32.1009 104.605 31.992 105.284 31.992V30.992V29.992C104.524 29.992 103.75 30.0911 103.184 30.4787L103.748 31.304ZM105.284 30.992V31.992C105.934 31.992 106.166 32.1055 106.203 32.1331L106.796 31.328L107.39 30.5229C106.819 30.1025 106.042 29.992 105.284 29.992V30.992ZM106.796 31.328L106.232 32.1533C106.336 32.2248 106.355 32.2759 106.366 32.3311L107.348 32.144L108.331 31.9569C108.213 31.3401 107.865 30.8472 107.361 30.5027L106.796 31.328ZM107.348 32.144L106.366 32.3311C106.418 32.6037 106.444 32.885 106.444 33.176H107.444H108.444C108.444 32.763 108.407 32.3563 108.331 31.9569L107.348 32.144ZM107.444 33.176H106.444V42.176H107.444H108.444V33.176H107.444ZM107.444 42.176H106.444C106.444 42.3797 106.453 42.5751 106.476 42.756L107.468 42.632L108.461 42.508C108.451 42.4328 108.444 42.3243 108.444 42.176H107.444ZM107.468 42.632L106.507 42.9067C106.558 43.0873 106.642 43.3006 106.788 43.496L107.588 42.896L108.388 42.296C108.416 42.3324 108.429 42.3595 108.433 42.3682C108.437 42.3772 108.435 42.375 108.43 42.3573L107.468 42.632ZM107.588 42.896L106.788 43.496C106.955 43.718 107.172 43.8738 107.409 43.9685L107.78 43.04L108.152 42.1115C108.228 42.1422 108.318 42.202 108.388 42.296L107.588 42.896ZM107.78 43.04L107.409 43.9685C107.65 44.0648 107.893 44.088 108.092 44.088V43.088V42.088C108.069 42.088 108.063 42.0864 108.07 42.0876C108.078 42.0887 108.108 42.0939 108.152 42.1115L107.78 43.04ZM108.092 43.088V44.088C108.459 44.088 108.76 44.1164 109 44.1646L109.196 43.184L109.392 42.2034C108.993 42.1236 108.557 42.088 108.092 42.088V43.088ZM109.196 43.184L109.009 44.1663C109.063 44.1767 109.086 44.19 109.092 44.194C109.097 44.1974 109.108 44.2051 109.125 44.2313L109.964 43.688L110.804 43.1447C110.47 42.6295 109.971 42.3136 109.383 42.2017L109.196 43.184ZM109.964 43.688L109.147 44.2647C109.14 44.2544 109.171 44.2957 109.202 44.44C109.231 44.5805 109.252 44.7815 109.252 45.056H110.252H111.252C111.252 44.3709 111.16 43.648 110.781 43.1113L109.964 43.688ZM110.252 45.056H109.252C109.252 45.7279 109.137 45.964 109.111 45.9988L109.916 46.592L110.721 47.1852C111.144 46.612 111.252 45.8241 111.252 45.056H110.252ZM109.916 46.592L109.111 45.9988C109.027 46.1136 108.974 46.1244 108.935 46.1301L109.076 47.12L109.218 48.11C109.85 48.0196 110.358 47.6784 110.721 47.1852L109.916 46.592ZM109.076 47.12L108.889 46.1377C108.614 46.1901 108.34 46.216 108.068 46.216V47.216V48.216C108.468 48.216 108.867 48.1779 109.263 48.1023L109.076 47.12ZM102.596 35.168V36.168H105.404V35.168V34.168H102.596V35.168ZM105.404 35.168L105.441 36.1673L108.753 36.0473L108.716 35.048L108.68 34.0487L105.368 34.1687L105.404 35.168ZM108.716 35.048V36.048C109.008 36.048 109.278 36.0745 109.528 36.1246L109.724 35.144L109.92 34.1634C109.531 34.0855 109.129 34.048 108.716 34.048V35.048ZM109.724 35.144L109.537 36.1263C109.592 36.1369 109.644 36.1562 109.715 36.2607L110.54 35.696L111.366 35.1313C111.021 34.6278 110.528 34.2791 109.911 34.1617L109.724 35.144ZM110.54 35.696L109.735 36.2892C109.734 36.288 109.745 36.3025 109.761 36.3421C109.778 36.3818 109.797 36.441 109.815 36.5246C109.851 36.6947 109.876 36.934 109.876 37.256H110.876H111.876C111.876 36.4778 111.77 35.6784 111.345 35.1028L110.54 35.696ZM110.876 37.256H109.876C109.876 37.8614 109.767 38.0838 109.735 38.1268L110.54 38.72L111.345 39.3132C111.762 38.7481 111.876 37.9946 111.876 37.256H110.876ZM110.54 38.72L109.715 38.1553C109.637 38.2691 109.57 38.3048 109.493 38.3232L109.724 39.296L109.956 40.2688C110.551 40.1272 111.027 39.7789 111.366 39.2847L110.54 38.72ZM109.724 39.296L109.482 38.3259C109.25 38.3839 108.988 38.416 108.692 38.416V39.416V40.416C109.133 40.416 109.559 40.3681 109.967 40.2661L109.724 39.296ZM108.692 39.416L108.716 38.4163L105.668 38.3443L105.644 39.344L105.621 40.3437L108.669 40.4157L108.692 39.416ZM105.644 39.344V38.344H102.5V39.344V40.344H105.644V39.344ZM102.5 39.344L102.559 38.3457C102.376 38.335 102.278 38.3027 102.234 38.2823C102.2 38.2663 102.204 38.2608 102.211 38.271L101.372 38.816L100.534 39.361C100.981 40.0487 101.724 40.3001 102.442 40.3423L102.5 39.344ZM101.372 38.816L102.211 38.271C102.168 38.2051 102.06 37.9252 102.06 37.232H101.06H100.06C100.06 38.0108 100.161 38.7869 100.534 39.361L101.372 38.816ZM101.06 37.232H102.06C102.06 36.6362 102.177 36.3845 102.24 36.302L101.444 35.696L100.649 35.09C100.2 35.6795 100.06 36.4518 100.06 37.232H101.06ZM101.444 35.696L102.253 36.2842C102.286 36.2388 102.34 36.168 102.596 36.168V35.168V34.168C101.829 34.168 101.115 34.4492 100.636 35.1078L101.444 35.696ZM118.213 46.88L117.628 47.6907V47.6907L118.213 46.88ZM117.589 46.208L116.695 46.6552L116.701 46.667L116.707 46.6786L117.589 46.208ZM117.349 45.704L116.405 46.0334L116.412 46.0546L116.421 46.0754L117.349 45.704ZM113.029 33.32L112.071 33.6073L112.078 33.6285L112.085 33.6494L113.029 33.32ZM112.909 31.544L111.994 31.1413L111.99 31.1503L111.986 31.1594L112.909 31.544ZM114.421 30.536L114.113 29.5845L114.11 29.5855L114.421 30.536ZM115.741 30.296L115.789 29.2971L115.741 30.296ZM116.581 30.704L115.829 31.3625V31.3625L116.581 30.704ZM117.181 31.904L116.23 32.2118L116.232 32.2198L116.235 32.2277L117.181 31.904ZM119.677 39.2L118.731 39.5237L119.782 42.5971L120.642 39.4645L119.677 39.2ZM121.645 32.024L120.687 31.7367L120.684 31.748L120.681 31.7595L121.645 32.024ZM121.885 31.4L120.991 30.9528L120.979 30.9757L120.969 30.9992L121.885 31.4ZM122.509 30.728L123.064 31.56L123.079 31.5497L123.095 31.5387L122.509 30.728ZM125.101 30.752L124.487 31.5414L124.497 31.5493L124.508 31.5571L125.101 30.752ZM125.725 31.472L126.641 31.0712L126.641 31.0712L125.725 31.472ZM125.965 32.048L126.93 31.7843L126.918 31.74L126.901 31.6969L125.965 32.048ZM127.933 39.248L126.969 39.5117L127.829 42.661L128.88 39.5698L127.933 39.248ZM130.429 31.904L131.376 32.2258L131.378 32.2202L130.429 31.904ZM131.005 30.728L130.233 30.0923L130.229 30.0974L131.005 30.728ZM131.869 30.272L131.96 31.2679H131.96L131.869 30.272ZM133.213 30.512L133.553 29.5714L133.546 29.569L133.213 30.512ZM134.437 31.184L133.73 31.8911L133.742 31.9033L133.755 31.9151L134.437 31.184ZM134.797 32.024H133.797V32.0478L133.798 32.0716L134.797 32.024ZM134.581 33.32L135.526 33.6477L135.532 33.629L135.538 33.61L134.581 33.32ZM130.285 45.704L129.34 45.3762L129.336 45.3878L130.285 45.704ZM130.045 46.208L129.163 45.7374L129.15 45.7609L129.139 45.7851L130.045 46.208ZM129.445 46.88L128.86 46.0693V46.0693L129.445 46.88ZM126.925 46.832L126.281 47.5969L126.293 47.6071L126.305 47.6169L126.925 46.832ZM126.277 46.064L125.372 46.4898L125.377 46.5006L125.383 46.5112L126.277 46.064ZM126.061 45.584L125.105 45.8759L125.108 45.8881L125.112 45.9002L126.061 45.584ZM123.805 38.192L124.762 37.9001L123.807 34.7713L122.849 37.8992L123.805 38.192ZM121.549 45.56L120.593 45.2672L120.578 45.3149L120.569 45.3639L121.549 45.56ZM121.333 46.088L122.228 46.5352L122.233 46.5246L122.238 46.5138L121.333 46.088ZM120.685 46.832L120.065 46.0471L120.055 46.0553L120.045 46.0638L120.685 46.832ZM119.413 47.192V46.192C119.022 46.192 118.856 46.1107 118.799 46.0693L118.213 46.88L117.628 47.6907C118.146 48.0653 118.78 48.192 119.413 48.192V47.192ZM118.213 46.88L118.799 46.0693C118.598 45.9243 118.509 45.8082 118.471 45.7374L117.589 46.208L116.707 46.6786C116.925 47.0878 117.252 47.4197 117.628 47.6907L118.213 46.88ZM117.589 46.208L118.484 45.7608C118.421 45.6358 118.372 45.5361 118.336 45.4601C118.318 45.4221 118.304 45.392 118.293 45.3689C118.288 45.3575 118.284 45.3486 118.282 45.342C118.279 45.3353 118.278 45.3324 118.278 45.3326L117.349 45.704L116.421 46.0754C116.471 46.2014 116.571 46.4082 116.695 46.6552L117.589 46.208ZM117.349 45.704L118.293 45.3746L113.973 32.9906L113.029 33.32L112.085 33.6494L116.405 46.0334L117.349 45.704ZM113.029 33.32L113.987 33.0326C113.88 32.6777 113.83 32.4067 113.817 32.2086C113.81 32.1113 113.813 32.0409 113.819 31.993C113.825 31.9454 113.833 31.927 113.832 31.9286L112.909 31.544L111.986 31.1594C111.683 31.886 111.821 32.7742 112.071 33.6073L113.029 33.32ZM112.909 31.544L113.824 31.9467C113.811 31.9765 113.822 31.9256 113.974 31.824C114.125 31.7233 114.367 31.6056 114.732 31.4865L114.421 30.536L114.11 29.5855C113.247 29.8678 112.357 30.3165 111.994 31.1413L112.909 31.544ZM114.421 30.536L114.729 31.4874C115.227 31.3263 115.534 31.2872 115.694 31.2949L115.741 30.296L115.789 29.2971C115.277 29.2728 114.703 29.3937 114.113 29.5846L114.421 30.536ZM115.741 30.296L115.694 31.2949C115.737 31.297 115.757 31.3053 115.766 31.3095C115.775 31.3139 115.796 31.3257 115.829 31.3625L116.581 30.704L117.334 30.0455C116.933 29.5875 116.4 29.3262 115.789 29.2971L115.741 30.296ZM116.581 30.704L115.829 31.3625C115.922 31.4696 116.071 31.7208 116.23 32.2118L117.181 31.904L118.133 31.5962C117.939 30.9992 117.688 30.4504 117.334 30.0455L116.581 30.704ZM117.181 31.904L116.235 32.2277L118.731 39.5237L119.677 39.2L120.623 38.8763L118.127 31.5803L117.181 31.904ZM119.677 39.2L120.642 39.4645L122.61 32.2885L121.645 32.024L120.681 31.7595L118.713 38.9355L119.677 39.2ZM121.645 32.024L122.603 32.3113C122.634 32.207 122.696 32.0409 122.801 31.8008L121.885 31.4L120.969 30.9992C120.85 31.2711 120.752 31.521 120.687 31.7367L121.645 32.024ZM121.885 31.4L122.78 31.8472C122.815 31.7764 122.89 31.6757 123.064 31.56L122.509 30.728L121.954 29.8959C121.552 30.1643 121.211 30.5116 120.991 30.9528L121.885 31.4ZM122.509 30.728L123.095 31.5387C123.143 31.5035 123.319 31.416 123.757 31.416V30.416V29.416C123.108 29.416 122.451 29.5365 121.924 29.9173L122.509 30.728ZM123.757 30.416V31.416C124.278 31.416 124.458 31.5186 124.487 31.5414L125.101 30.752L125.715 29.9626C125.168 29.5374 124.452 29.416 123.757 29.416V30.416ZM125.101 30.752L124.508 31.5571C124.718 31.7122 124.788 31.8244 124.809 31.8728L125.725 31.472L126.641 31.0712C126.438 30.6076 126.092 30.2398 125.694 29.9469L125.101 30.752ZM125.725 31.472L124.809 31.8728C124.92 32.1256 124.991 32.2974 125.029 32.3991L125.965 32.048L126.901 31.6969C126.844 31.5426 126.755 31.3304 126.641 31.0712L125.725 31.472ZM125.965 32.048L125.001 32.3117L126.969 39.5117L127.933 39.248L128.898 38.9843L126.93 31.7843L125.965 32.048ZM127.933 39.248L128.88 39.5698L131.376 32.2258L130.429 31.904L129.482 31.5822L126.986 38.9262L127.933 39.248ZM130.429 31.904L131.378 32.2202C131.538 31.739 131.684 31.4783 131.781 31.3586L131.005 30.728L130.229 30.0974C129.91 30.4897 129.672 31.013 129.48 31.5878L130.429 31.904ZM131.005 30.728L131.777 31.3637C131.831 31.2987 131.873 31.2758 131.96 31.2679L131.869 30.272L131.779 29.2761C131.161 29.3322 130.628 29.6133 130.233 30.0923L131.005 30.728ZM131.869 30.272L131.96 31.2679C132.106 31.2546 132.396 31.2842 132.88 31.455L133.213 30.512L133.546 29.569C132.942 29.3558 132.337 29.2254 131.779 29.2761L131.869 30.272ZM133.213 30.512L132.873 31.4526C133.405 31.6445 133.647 31.8078 133.73 31.8911L134.437 31.184L135.144 30.4769C134.748 30.0802 134.173 29.7955 133.553 29.5714L133.213 30.512ZM134.437 31.184L133.755 31.9151C133.781 31.9398 133.787 31.9532 133.788 31.9559C133.789 31.9592 133.797 31.9774 133.797 32.024H134.797H135.797C135.797 31.4182 135.567 30.871 135.119 30.4529L134.437 31.184ZM134.797 32.024L133.798 32.0716C133.806 32.2438 133.769 32.5506 133.624 33.03L134.581 33.32L135.538 33.61C135.713 33.0334 135.82 32.4762 135.796 31.9764L134.797 32.024ZM134.581 33.32L133.636 32.9923L129.34 45.3763L130.285 45.704L131.23 46.0317L135.526 33.6477L134.581 33.32ZM130.285 45.704L129.336 45.3878C129.34 45.3774 129.333 45.3999 129.298 45.4721C129.267 45.5377 129.223 45.6253 129.163 45.7374L130.045 46.208L130.927 46.6786C131.052 46.445 131.171 46.2072 131.234 46.0202L130.285 45.704ZM130.045 46.208L129.139 45.7851C129.119 45.8268 129.055 45.9284 128.86 46.0693L129.445 46.88L130.031 47.6907C130.411 47.4156 130.747 47.0692 130.951 46.6309L130.045 46.208ZM129.445 46.88L128.86 46.0693C128.811 46.1045 128.636 46.192 128.197 46.192V47.192V48.192C128.847 48.192 129.503 48.0715 130.031 47.6907L129.445 46.88ZM128.197 47.192V46.192C127.789 46.192 127.613 46.1011 127.545 46.0471L126.925 46.832L126.305 47.6169C126.845 48.0429 127.517 48.192 128.197 48.192V47.192ZM126.925 46.832L127.569 46.0671C127.332 45.867 127.22 45.7134 127.172 45.6168L126.277 46.064L125.383 46.5112C125.59 46.9266 125.911 47.285 126.281 47.5969L126.925 46.832ZM126.277 46.064L127.182 45.6382C127.119 45.5043 127.072 45.4021 127.039 45.3296C127.023 45.2932 127.012 45.2677 127.005 45.2514C126.995 45.2276 127 45.2396 127.01 45.2678L126.061 45.584L125.112 45.9002C125.152 46.0199 125.26 46.2511 125.372 46.4898L126.277 46.064ZM126.061 45.584L127.018 45.2921L124.762 37.9001L123.805 38.192L122.849 38.4839L125.105 45.8759L126.061 45.584ZM123.805 38.192L122.849 37.8992L120.593 45.2672L121.549 45.56L122.505 45.8528L124.761 38.4848L123.805 38.192ZM121.549 45.56L120.569 45.3639C120.577 45.3211 120.586 45.2995 120.581 45.3129C120.578 45.3213 120.571 45.3406 120.558 45.3734C120.531 45.4391 120.489 45.534 120.428 45.6622L121.333 46.088L122.238 46.5138C122.306 46.37 122.364 46.2409 122.409 46.1306C122.446 46.0405 122.501 45.8988 122.53 45.7561L121.549 45.56ZM121.333 46.088L120.439 45.6408C120.395 45.7276 120.293 45.8677 120.065 46.0471L120.685 46.832L121.305 47.6169C121.685 47.3163 122.015 46.9604 122.228 46.5352L121.333 46.088ZM120.685 46.832L120.045 46.0638C120.007 46.0955 119.851 46.192 119.413 46.192V47.192V48.192C120.096 48.192 120.787 48.0485 121.325 47.6002L120.685 46.832ZM137.925 46.904L137.332 47.7091L137.346 47.7194L137.36 47.7293L137.925 46.904ZM137.373 46.064L136.383 46.2054L136.386 46.2284L136.391 46.2511L137.373 46.064ZM137.397 36.2L138.378 36.3961L138.379 36.3871L137.397 36.2ZM137.949 35.384L138.514 36.2093L138.528 36.1994L138.542 36.1891L137.949 35.384ZM140.997 35.384L140.383 36.1734L140.407 36.1921L140.432 36.2093L140.997 35.384ZM141.549 36.2L142.531 36.0129V36.0129L141.549 36.2ZM141.549 46.088L142.531 46.2751V46.2751L141.549 46.088ZM140.997 46.904L140.432 46.0787L140.422 46.0859L140.411 46.0933L140.997 46.904ZM137.925 33.56L137.332 34.3651L137.346 34.3754L137.36 34.3853L137.925 33.56ZM137.373 32.72L136.383 32.8614L136.386 32.8844L136.391 32.9071L137.373 32.72ZM137.397 30.656L138.378 30.8521L138.379 30.8431L137.397 30.656ZM137.949 29.84L138.514 30.6653V30.6653L137.949 29.84ZM140.997 29.864L140.383 30.6534L140.407 30.6721L140.432 30.6893L140.997 29.864ZM141.549 30.68L142.531 30.4929V30.4929L141.549 30.68ZM141.549 32.744L142.531 32.9311V32.9311L141.549 32.744ZM140.997 33.56L140.432 32.7347L140.422 32.7419L140.411 32.7493L140.997 33.56ZM139.461 47.216V46.216C138.781 46.216 138.531 46.1071 138.49 46.0787L137.925 46.904L137.36 47.7293C137.927 48.1169 138.701 48.216 139.461 48.216V47.216ZM137.925 46.904L138.518 46.0989C138.394 46.0076 138.367 45.9386 138.355 45.8769L137.373 46.064L136.391 46.2511C136.507 46.8614 136.848 47.3524 137.332 47.7091L137.925 46.904ZM137.373 46.064L138.363 45.9226C138.322 45.6351 138.301 45.3384 138.301 45.032H137.301H136.301C136.301 45.4296 136.328 45.8209 136.383 46.2054L137.373 46.064ZM137.301 45.032H138.301V37.208H137.301H136.301V45.032H137.301ZM137.301 37.208H138.301C138.301 36.9167 138.327 36.6467 138.378 36.3961L137.397 36.2L136.416 36.0039C136.338 36.3933 136.301 36.7953 136.301 37.208H137.301ZM137.397 36.2L138.379 36.3871C138.39 36.3319 138.409 36.2808 138.514 36.2093L137.949 35.384L137.384 34.5587C136.881 34.9032 136.532 35.3961 136.415 36.0129L137.397 36.2ZM137.949 35.384L138.542 36.1891C138.577 36.1634 138.813 36.048 139.485 36.048V35.048V34.048C138.717 34.048 137.929 34.1566 137.356 34.5789L137.949 35.384ZM139.485 35.048V36.048C139.798 36.048 140.027 36.0728 140.186 36.1082C140.349 36.1445 140.394 36.1819 140.383 36.1734L140.997 35.384L141.611 34.5946C141.043 34.1533 140.244 34.048 139.485 34.048V35.048ZM140.997 35.384L140.432 36.2093C140.537 36.2808 140.556 36.3319 140.567 36.3871L141.549 36.2L142.531 36.0129C142.414 35.3961 142.065 34.9032 141.562 34.5587L140.997 35.384ZM141.549 36.2L140.567 36.3871C140.618 36.657 140.645 36.9461 140.645 37.256H141.645H142.645C142.645 36.8299 142.608 36.415 142.531 36.0129L141.549 36.2ZM141.645 37.256H140.645V45.056H141.645H142.645V37.256H141.645ZM141.645 45.056H140.645C140.645 45.347 140.619 45.6283 140.567 45.9009L141.549 46.088L142.531 46.2751C142.607 45.8757 142.645 45.469 142.645 45.056H141.645ZM141.549 46.088L140.567 45.9009C140.556 45.9561 140.537 46.0072 140.432 46.0787L140.997 46.904L141.562 47.7293C142.065 47.3848 142.414 46.8919 142.531 46.2751L141.549 46.088ZM140.997 46.904L140.411 46.0933C140.424 46.0844 140.375 46.1221 140.198 46.158C140.028 46.1925 139.787 46.216 139.461 46.216V47.216V48.216C140.223 48.216 141.019 48.1217 141.582 47.7147L140.997 46.904ZM139.461 33.872V32.872C138.781 32.872 138.531 32.7631 138.49 32.7347L137.925 33.56L137.36 34.3853C137.927 34.7729 138.701 34.872 139.461 34.872V33.872ZM137.925 33.56L138.518 32.7549C138.394 32.6636 138.367 32.5946 138.355 32.5329L137.373 32.72L136.391 32.9071C136.507 33.5174 136.848 34.0084 137.332 34.3651L137.925 33.56ZM137.373 32.72L138.363 32.5786C138.322 32.2911 138.301 31.9944 138.301 31.688H137.301H136.301C136.301 32.0856 136.328 32.4769 136.383 32.8614L137.373 32.72ZM137.301 31.688H138.301C138.301 31.3777 138.328 31.1 138.378 30.8521L137.397 30.656L136.416 30.4599C136.338 30.852 136.301 31.2623 136.301 31.688H137.301ZM137.397 30.656L138.379 30.8431C138.39 30.7879 138.409 30.7368 138.514 30.6653L137.949 29.84L137.384 29.0147C136.881 29.3592 136.532 29.8521 136.415 30.4689L137.397 30.656ZM137.949 29.84L138.514 30.6653C138.555 30.6369 138.805 30.528 139.485 30.528V29.528V28.528C138.725 28.528 137.951 28.6271 137.384 29.0147L137.949 29.84ZM139.485 29.528V30.528C139.798 30.528 140.027 30.5528 140.186 30.5882C140.349 30.6245 140.394 30.6619 140.383 30.6534L140.997 29.864L141.611 29.0746C141.043 28.6333 140.244 28.528 139.485 28.528V29.528ZM140.997 29.864L140.432 30.6893C140.537 30.7608 140.556 30.8119 140.567 30.8671L141.549 30.68L142.531 30.4929C142.414 29.8761 142.065 29.3832 141.562 29.0387L140.997 29.864ZM141.549 30.68L140.567 30.8671C140.619 31.1397 140.645 31.421 140.645 31.712H141.645H142.645C142.645 31.299 142.607 30.8923 142.531 30.4929L141.549 30.68ZM141.645 31.712H140.645C140.645 32.003 140.619 32.2843 140.567 32.5569L141.549 32.744L142.531 32.9311C142.607 32.5317 142.645 32.125 142.645 31.712H141.645ZM141.549 32.744L140.567 32.5569C140.556 32.6121 140.537 32.6632 140.432 32.7347L140.997 33.56L141.562 34.3853C142.065 34.0408 142.414 33.5479 142.531 32.9311L141.549 32.744ZM140.997 33.56L140.411 32.7493C140.424 32.7404 140.375 32.7781 140.198 32.814C140.028 32.8485 139.787 32.872 139.461 32.872V33.872V34.872C140.223 34.872 141.019 34.7777 141.582 34.3707L140.997 33.56ZM148.228 47.264L148.424 46.2834L148.413 46.2812L148.402 46.2792L148.228 47.264ZM146.62 46.832L146.244 47.7585L146.261 47.7654L146.279 47.7718L146.62 46.832ZM145.348 46.112L144.719 46.8892V46.8892L145.348 46.112ZM144.94 44.648L144.007 44.289L143.999 44.3102L143.992 44.3318L144.94 44.648ZM145.252 43.976L146.135 44.4466V44.4466L145.252 43.976ZM145.732 43.208L146.549 43.7847L146.552 43.7815L145.732 43.208ZM146.116 42.848L145.669 41.9536L145.65 41.9633L145.631 41.9738L146.116 42.848ZM147.508 42.92L147.083 43.8248L147.105 43.8353L147.128 43.8447L147.508 42.92ZM148.324 43.328L147.817 44.1899L147.837 44.2013L147.856 44.2118L148.324 43.328ZM149.164 43.736L148.758 44.6498L148.788 44.6631L148.819 44.6743L149.164 43.736ZM150.796 43.808L150.425 42.8795L150.407 42.8865L150.39 42.8942L150.796 43.808ZM150.868 43.208L150.228 43.9762L150.257 44.0001L150.287 44.0217L150.868 43.208ZM150.436 43.016L150.095 43.9558L150.143 43.9735L150.194 43.9861L150.436 43.016ZM149.044 42.68L148.815 43.6534V43.6534L149.044 42.68ZM148.204 42.44L148.521 41.4913L148.508 41.4872L148.496 41.4833L148.204 42.44ZM147.124 42.008L146.646 42.8859L146.661 42.8944L146.677 42.9024L147.124 42.008ZM146.164 41.264L145.419 41.9308L145.429 41.9414L145.438 41.9517L146.164 41.264ZM145.492 40.16L144.555 40.5073L144.56 40.5224L144.566 40.5373L145.492 40.16ZM145.828 36.488L145.004 35.9225V35.9225L145.828 36.488ZM147.532 35.216L147.175 34.2821V34.2821L147.532 35.216ZM151.132 34.832L151.249 33.8388H151.249L151.132 34.832ZM151.948 34.976L151.719 35.9495L151.731 35.9522L151.948 34.976ZM152.788 35.24L152.408 36.1647L152.439 36.1778L152.472 36.1887L152.788 35.24ZM153.652 35.576L153.246 36.4899L153.255 36.4939L153.652 35.576ZM154.564 36.656L153.565 36.6905L153.565 36.6917L154.564 36.656ZM154.06 38.072L153.245 37.4933L153.229 37.5152L153.215 37.538L154.06 38.072ZM153.46 38.768L154.06 39.5681L154.07 39.5606L153.46 38.768ZM151.06 38.336L151.454 37.4169V37.4169L151.06 38.336ZM149.548 38.192L149.791 39.1621L149.828 39.1528L149.865 39.1407L149.548 38.192ZM149.26 38.36L149.967 39.0671L150.007 39.0279L150.041 38.9847L149.26 38.36ZM149.332 39.032L148.625 39.7391L148.676 39.7894L148.732 39.832L149.332 39.032ZM149.812 39.272L149.496 40.2207L149.507 40.2244L149.518 40.2278L149.812 39.272ZM150.508 39.44L150.324 40.4229L150.335 40.4248L150.508 39.44ZM151.372 39.584L151.216 40.5718L151.22 40.5724L151.372 39.584ZM152.644 39.896L152.328 40.8447L152.349 40.8516L152.37 40.8575L152.644 39.896ZM154.756 41.528L155.651 41.0808V41.0808L154.756 41.528ZM153.724 46.376L153.113 45.5844L153.107 45.5897L153.724 46.376ZM149.74 47.432V46.432C149.373 46.432 148.937 46.3858 148.424 46.2834L148.228 47.264L148.032 48.2446C148.64 48.3662 149.211 48.432 149.74 48.432V47.432ZM148.228 47.264L148.402 46.2792C147.916 46.1935 147.436 46.0647 146.962 45.8922L146.62 46.832L146.279 47.7718C146.86 47.9833 147.452 48.1425 148.055 48.2488L148.228 47.264ZM146.62 46.832L146.997 45.9055C146.552 45.7248 146.219 45.5304 145.978 45.3348L145.348 46.112L144.719 46.8892C145.149 47.2376 145.665 47.5232 146.244 47.7585L146.62 46.832ZM145.348 46.112L145.978 45.3348C145.891 45.2643 145.86 45.2166 145.851 45.1999C145.845 45.1886 145.844 45.1854 145.844 45.176H144.844H143.844C143.844 45.8981 144.208 46.475 144.719 46.8892L145.348 46.112ZM144.844 45.176H145.844C145.844 45.1476 145.85 45.08 145.889 44.9642L144.94 44.648L143.992 44.3318C143.902 44.6 143.844 44.8844 143.844 45.176H144.844ZM144.94 44.648L145.874 45.007C145.936 44.8444 146.022 44.658 146.135 44.4466L145.252 43.976L144.37 43.5054C144.227 43.774 144.105 44.0356 144.007 44.289L144.94 44.648ZM145.252 43.976L146.135 44.4466C146.239 44.2503 146.376 44.0299 146.549 43.7847L145.732 43.208L144.915 42.6313C144.705 42.9301 144.521 43.2217 144.37 43.5054L145.252 43.976ZM145.732 43.208L146.552 43.7815C146.593 43.7228 146.613 43.7161 146.602 43.7222L146.116 42.848L145.631 41.9738C145.332 42.1399 145.096 42.3732 144.913 42.6345L145.732 43.208ZM146.116 42.848L146.564 43.7424C146.564 43.7423 146.59 43.728 146.668 43.728V42.728V41.728C146.33 41.728 145.989 41.7937 145.669 41.9536L146.116 42.848ZM146.668 42.728V43.728C146.803 43.728 146.938 43.7567 147.083 43.8248L147.508 42.92L147.934 42.0152C147.535 41.8273 147.11 41.728 146.668 41.728V42.728ZM147.508 42.92L147.128 43.8447C147.353 43.9375 147.583 44.0521 147.817 44.1899L148.324 43.328L148.831 42.4661C148.522 42.2839 148.208 42.1265 147.889 41.9953L147.508 42.92ZM148.324 43.328L147.856 44.2118C148.149 44.3668 148.45 44.5127 148.758 44.6498L149.164 43.736L149.571 42.8222C149.303 42.7033 149.044 42.5772 148.792 42.4442L148.324 43.328ZM149.164 43.736L148.819 44.6743C149.237 44.8286 149.675 44.904 150.124 44.904V43.904V42.904C149.902 42.904 149.699 42.8674 149.51 42.7977L149.164 43.736ZM150.124 43.904V44.904C150.462 44.904 150.86 44.8739 151.203 44.7218L150.796 43.808L150.39 42.8942C150.43 42.8763 150.436 42.8819 150.379 42.89C150.327 42.8975 150.244 42.904 150.124 42.904V43.904ZM150.796 43.808L151.168 44.7365C151.346 44.665 151.566 44.5429 151.745 44.3282C151.938 44.0958 152.036 43.8117 152.036 43.52H151.036H150.036C150.036 43.3563 150.094 43.1842 150.208 43.0478C150.307 42.9291 150.406 42.887 150.425 42.8795L150.796 43.808ZM151.036 43.52H152.036C152.036 43.0416 151.801 42.6454 151.45 42.3943L150.868 43.208L150.287 44.0217C150.239 43.9875 150.169 43.9232 150.114 43.8201C150.057 43.7144 150.036 43.6073 150.036 43.52H151.036ZM150.868 43.208L151.509 42.4398C151.249 42.2233 150.941 42.1113 150.679 42.0459L150.436 43.016L150.194 43.9861C150.22 43.9926 150.24 43.9986 150.255 44.0037C150.27 44.0087 150.279 44.0124 150.282 44.0138C150.286 44.0153 150.282 44.0139 150.273 44.0085C150.264 44.0031 150.248 43.9928 150.228 43.9762L150.868 43.208ZM150.436 43.016L150.778 42.0762C150.543 41.9907 150.284 41.9225 150.008 41.8674L149.812 42.848L149.616 43.8286C149.821 43.8695 149.978 43.9133 150.095 43.9558L150.436 43.016ZM149.812 42.848L150.008 41.8674C149.781 41.8219 149.536 41.7684 149.273 41.7066L149.044 42.68L148.815 43.6534C149.097 43.7196 149.364 43.7781 149.616 43.8286L149.812 42.848ZM149.044 42.68L149.273 41.7066C149.033 41.6501 148.782 41.5786 148.521 41.4913L148.204 42.44L147.888 43.3887C148.202 43.4934 148.512 43.5819 148.815 43.6534L149.044 42.68ZM148.204 42.44L148.496 41.4833C148.182 41.388 147.875 41.2651 147.572 41.1136L147.124 42.008L146.677 42.9024C147.078 43.1029 147.49 43.268 147.913 43.3967L148.204 42.44ZM147.124 42.008L147.603 41.1301C147.347 40.9904 147.11 40.8077 146.89 40.5763L146.164 41.264L145.438 41.9517C145.795 42.3283 146.198 42.6416 146.646 42.8859L147.124 42.008ZM146.164 41.264L146.91 40.5972C146.724 40.3899 146.557 40.1236 146.418 39.7827L145.492 40.16L144.566 40.5373C144.779 41.0604 145.061 41.5301 145.419 41.9308L146.164 41.264ZM145.492 40.16L146.43 39.8127C146.323 39.5235 146.252 39.1208 146.252 38.576H145.252H144.252C144.252 39.2793 144.342 39.9325 144.555 40.5073L145.492 40.16ZM145.252 38.576H146.252C146.252 37.8999 146.407 37.4128 146.653 37.0535L145.828 36.488L145.004 35.9225C144.482 36.6832 144.252 37.5881 144.252 38.576H145.252ZM145.828 36.488L146.653 37.0535C146.902 36.69 147.291 36.3791 147.89 36.1499L147.532 35.216L147.175 34.2821C146.269 34.6289 145.522 35.1659 145.004 35.9225L145.828 36.488ZM147.532 35.216L147.89 36.1499C148.494 35.9185 149.292 35.784 150.316 35.784V34.784V33.784C149.132 33.784 148.075 33.9375 147.175 34.2821L147.532 35.216ZM150.316 34.784V35.784C150.549 35.784 150.782 35.7977 151.016 35.8251L151.132 34.832L151.249 33.8388C150.939 33.8023 150.628 33.784 150.316 33.784V34.784ZM151.132 34.832L151.016 35.8251C151.249 35.8526 151.484 35.8939 151.719 35.9494L151.948 34.976L152.177 34.0026C151.869 33.9301 151.56 33.8754 151.249 33.8388L151.132 34.832ZM151.948 34.976L151.731 35.9522C151.964 36.0038 152.189 36.0746 152.408 36.1647L152.788 35.24L153.169 34.3153C152.844 34.1814 152.509 34.0762 152.165 33.9998L151.948 34.976ZM152.788 35.24L152.472 36.1887C152.729 36.2741 152.987 36.3744 153.246 36.4898L153.652 35.576L154.059 34.6622C153.742 34.5216 153.424 34.3979 153.105 34.2913L152.788 35.24ZM153.652 35.576L153.255 36.4939C153.459 36.582 153.538 36.6565 153.56 36.6832C153.57 36.6943 153.569 36.6962 153.566 36.6895C153.564 36.6827 153.565 36.6809 153.565 36.6905L154.564 36.656L155.564 36.6215C155.529 35.6229 154.835 34.9981 154.049 34.6581L153.652 35.576ZM154.564 36.656L153.565 36.6917C153.571 36.8537 153.515 37.1131 153.245 37.4933L154.06 38.072L154.876 38.6507C155.31 38.0389 155.59 37.3543 155.564 36.6203L154.564 36.656ZM154.06 38.072L153.215 37.538C153.064 37.7769 152.938 37.9082 152.851 37.9754L153.46 38.768L154.07 39.5606C154.399 39.3078 154.673 38.9751 154.906 38.606L154.06 38.072ZM153.46 38.768L152.86 37.968C152.834 37.9879 152.823 37.9908 152.828 37.9891C152.83 37.9883 152.835 37.9869 152.841 37.9857C152.848 37.9846 152.854 37.984 152.86 37.984V38.984V39.984C153.317 39.984 153.723 39.821 154.06 39.568L153.46 38.768ZM152.86 38.984V37.984C152.791 37.984 152.659 37.9639 152.448 37.8643L152.02 38.768L151.592 39.6717C151.99 39.8601 152.417 39.984 152.86 39.984V38.984ZM152.02 38.768L152.448 37.8643C152.132 37.7145 151.801 37.5654 151.454 37.4169L151.06 38.336L150.666 39.2551C150.992 39.3946 151.3 39.5335 151.592 39.6717L152.02 38.768ZM151.06 38.336L151.454 37.4169C151.005 37.2242 150.535 37.12 150.052 37.12V38.12V39.12C150.241 39.12 150.444 39.1598 150.666 39.2551L151.06 38.336ZM150.052 38.12V37.12C149.78 37.12 149.501 37.1537 149.232 37.2433L149.548 38.192L149.865 39.1407C149.884 39.1343 149.941 39.12 150.052 39.12V38.12ZM149.548 38.192L149.306 37.2219C149.027 37.2916 148.715 37.4406 148.48 37.7353L149.26 38.36L150.041 38.9847C149.934 39.1194 149.814 39.1564 149.791 39.1621L149.548 38.192ZM149.26 38.36L148.553 37.6529C148.289 37.9167 148.164 38.2566 148.164 38.6H149.164H150.164C150.164 38.6647 150.153 38.7485 150.117 38.8394C150.08 38.9314 150.026 39.0083 149.967 39.0671L149.26 38.36ZM149.164 38.6H148.164C148.164 39.0089 148.304 39.4179 148.625 39.7391L149.332 39.032L150.039 38.3249C150.079 38.3644 150.115 38.417 150.138 38.4776C150.161 38.536 150.164 38.5811 150.164 38.6H149.164ZM149.332 39.032L148.732 39.832C148.966 40.007 149.228 40.1313 149.496 40.2207L149.812 39.272L150.129 38.3233C150.013 38.2847 149.955 38.249 149.932 38.232L149.332 39.032ZM149.812 39.272L149.518 40.2278C149.769 40.3048 150.038 40.3692 150.324 40.4229L150.508 39.44L150.693 38.4571C150.467 38.4148 150.272 38.3672 150.106 38.3162L149.812 39.272ZM150.508 39.44L150.335 40.4248C150.613 40.4739 150.907 40.5229 151.216 40.5718L151.372 39.584L151.528 38.5962C151.23 38.5491 150.948 38.5021 150.682 38.4552L150.508 39.44ZM151.372 39.584L151.22 40.5724C151.576 40.6271 151.945 40.7171 152.328 40.8447L152.644 39.896L152.961 38.9473C152.479 38.7869 152.001 38.6689 151.524 38.5956L151.372 39.584ZM152.644 39.896L152.37 40.8575C152.716 40.9565 153.023 41.1022 153.297 41.2929L153.868 40.472L154.439 39.6511C153.978 39.3298 153.469 39.0915 152.919 38.9345L152.644 39.896ZM153.868 40.472L153.297 41.2929C153.512 41.4426 153.704 41.659 153.862 41.9752L154.756 41.528L155.651 41.0808C155.361 40.501 154.96 40.0134 154.439 39.6511L153.868 40.472ZM154.756 41.528L153.862 41.9752C153.993 42.2371 154.092 42.6521 154.092 43.28H155.092H156.092C156.092 42.4679 155.968 41.7149 155.651 41.0808L154.756 41.528ZM155.092 43.28H154.092C154.092 44.393 153.734 45.1051 153.113 45.5844L153.724 46.376L154.335 47.1676C155.539 46.2389 156.092 44.887 156.092 43.28H155.092ZM153.724 46.376L153.107 45.5897C152.46 46.0978 151.392 46.432 149.74 46.432V47.432V48.432C151.609 48.432 153.197 48.0622 154.342 47.1623L153.724 46.376ZM161.317 46.904L160.884 47.8053L160.891 47.8087L160.898 47.812L161.317 46.904ZM159.301 45.368L158.52 45.9927L158.528 46.0023L159.301 45.368ZM158.173 43.304L159.124 42.994V42.994L158.173 43.304ZM160.981 35.576L161.462 36.4528V36.4528L160.981 35.576ZM166.933 35.24L166.519 36.1504H166.519L166.933 35.24ZM168.637 36.464L167.883 37.1208L167.889 37.1276L167.895 37.1343L168.637 36.464ZM169.261 41.696L168.53 41.0137V41.0137L169.261 41.696ZM162.421 42.416V41.416H161.14L161.451 42.6585L162.421 42.416ZM162.805 43.088L162.098 43.7951L162.127 43.8245L162.159 43.8514L162.805 43.088ZM163.573 43.52L163.227 44.4583L163.25 44.4665L163.272 44.4736L163.573 43.52ZM165.493 43.616L165.61 44.6091L165.639 44.6058L165.667 44.6008L165.493 43.616ZM166.189 43.448L165.895 42.4922L165.884 42.4956L165.873 42.4993L166.189 43.448ZM166.741 43.256L166.399 42.3162L166.384 42.3216L166.37 42.3275L166.741 43.256ZM167.197 43.112L167.44 44.0821L167.477 44.0728L167.513 44.0607L167.197 43.112ZM168.397 43.328L169.022 42.5471V42.5471L168.397 43.328ZM169.045 44.192L168.151 44.6392L168.157 44.6528L168.165 44.6661L169.045 44.192ZM169.285 44.792L168.315 45.0345L168.318 45.0449L168.32 45.0551L169.285 44.792ZM168.757 46.496L168.132 45.7151L168.125 45.7214L168.117 45.7278L168.757 46.496ZM167.077 47.216L166.865 46.2388L166.855 46.241L166.845 46.2434L167.077 47.216ZM162.421 40.16L161.423 40.0976L161.357 41.16H162.421V40.16ZM165.589 40.016L164.938 39.2567L164.909 39.2817L164.882 39.3089L165.589 40.016ZM165.565 39.056L164.776 39.6699L164.796 39.6958L164.818 39.7204L165.565 39.056ZM165.085 38.744L164.726 39.6773L164.758 39.6897L164.791 39.6998L165.085 38.744ZM163.333 38.864L163.78 39.7584L163.8 39.7487L163.819 39.7382L163.333 38.864ZM162.661 39.44L161.829 38.8853L161.824 38.8922L161.82 38.8992L162.661 39.44ZM164.365 47.48V46.48C163.267 46.48 162.403 46.3037 161.736 45.996L161.317 46.904L160.898 47.812C161.895 48.2723 163.063 48.48 164.365 48.48V47.48ZM161.317 46.904L161.75 46.0027C161.031 45.6568 160.481 45.2299 160.074 44.7337L159.301 45.368L158.528 46.0023C159.145 46.7541 159.939 47.3512 160.884 47.8053L161.317 46.904ZM159.301 45.368L160.082 44.7433C159.641 44.1916 159.324 43.6091 159.124 42.994L158.173 43.304L157.222 43.614C157.502 44.4708 157.938 45.2644 158.52 45.9927L159.301 45.368ZM158.173 43.304L159.124 42.994C158.912 42.3457 158.813 41.7384 158.813 41.168H157.813H156.813C156.813 41.9736 156.954 42.7903 157.222 43.614L158.173 43.304ZM157.813 41.168H158.813C158.813 40.0563 159.058 39.1229 159.517 38.3359L158.653 37.832L157.789 37.3281C157.128 38.4611 156.813 39.7517 156.813 41.168H157.813ZM158.653 37.832L159.517 38.3359C159.984 37.5356 160.626 36.9112 161.462 36.4528L160.981 35.576L160.5 34.6992C159.352 35.3288 158.443 36.2084 157.789 37.3281L158.653 37.832ZM160.981 35.576L161.462 36.4528C162.288 35.9998 163.255 35.76 164.389 35.76V34.76V33.76C162.963 33.76 161.658 34.0642 160.5 34.6992L160.981 35.576ZM164.389 34.76V35.76C165.277 35.76 165.977 35.9036 166.519 36.1504L166.933 35.24L167.347 34.3296C166.482 33.9364 165.485 33.76 164.389 33.76V34.76ZM166.933 35.24L166.519 36.1504C167.116 36.4215 167.56 36.75 167.883 37.1208L168.637 36.464L169.391 35.8072C168.85 35.186 168.159 34.6985 167.347 34.3296L166.933 35.24ZM168.637 36.464L167.895 37.1343C168.268 37.5474 168.525 37.9683 168.684 38.3962L169.621 38.048L170.559 37.6998C170.301 37.0077 169.902 36.3726 169.379 35.7937L168.637 36.464ZM169.621 38.048L168.684 38.3962C168.86 38.871 168.933 39.2719 168.933 39.608H169.933H170.933C170.933 38.9841 170.798 38.345 170.559 37.6998L169.621 38.048ZM169.933 39.608H168.933C168.933 40.366 168.748 40.7805 168.53 41.0137L169.261 41.696L169.992 42.3783C170.671 41.6515 170.933 40.674 170.933 39.608H169.933ZM169.261 41.696L168.53 41.0137C168.286 41.2752 167.982 41.416 167.533 41.416V42.416V43.416C168.492 43.416 169.34 43.0768 169.992 42.3783L169.261 41.696ZM167.533 42.416V41.416H162.421V42.416V43.416H167.533V42.416ZM162.421 42.416L161.451 42.6585C161.56 43.0956 161.782 43.4788 162.098 43.7951L162.805 43.088L163.512 42.3809C163.444 42.3132 163.41 42.2484 163.391 42.1735L162.421 42.416ZM162.805 43.088L162.159 43.8514C162.471 44.1155 162.834 44.3134 163.227 44.4583L163.573 43.52L163.919 42.5817C163.704 42.5026 163.555 42.4125 163.451 42.3246L162.805 43.088ZM163.573 43.52L163.272 44.4736C163.683 44.6034 164.114 44.664 164.557 44.664V43.664V42.664C164.297 42.664 164.071 42.6286 163.874 42.5664L163.573 43.52ZM164.557 43.664V44.664C164.938 44.664 165.29 44.6468 165.61 44.6091L165.493 43.616L165.376 42.6228C165.152 42.6492 164.88 42.664 164.557 42.664V43.664ZM165.493 43.616L165.667 44.6008C165.971 44.5471 166.254 44.4806 166.505 44.3967L166.189 43.448L165.873 42.4993C165.741 42.5434 165.559 42.5889 165.319 42.6312L165.493 43.616ZM166.189 43.448L166.483 44.4038C166.711 44.3337 166.922 44.2609 167.113 44.1845L166.741 43.256L166.37 42.3275C166.241 42.3791 166.083 42.4343 165.895 42.4922L166.189 43.448ZM166.741 43.256L167.083 44.1958C167.239 44.1392 167.356 44.1031 167.44 44.0821L167.197 43.112L166.955 42.1419C166.782 42.1849 166.596 42.2448 166.399 42.3162L166.741 43.256ZM167.197 43.112L167.513 44.0607C167.574 44.0405 167.602 44.04 167.605 44.04V43.04V42.04C167.352 42.04 167.108 42.0875 166.881 42.1633L167.197 43.112ZM167.605 43.04V44.04C167.65 44.04 167.697 44.0485 167.772 44.1089L168.397 43.328L169.022 42.5471C168.617 42.2235 168.136 42.04 167.605 42.04V43.04ZM168.397 43.328L167.772 44.1089C167.864 44.182 167.999 44.3366 168.151 44.6392L169.045 44.192L169.94 43.7448C169.707 43.2794 169.41 42.858 169.022 42.5471L168.397 43.328ZM169.045 44.192L168.165 44.6661C168.245 44.8146 168.291 44.9369 168.315 45.0345L169.285 44.792L170.255 44.5495C170.184 44.2631 170.07 43.9854 169.926 43.7179L169.045 44.192ZM169.285 44.792L168.32 45.0551C168.348 45.1571 168.357 45.2363 168.357 45.296H169.357H170.357C170.357 45.0357 170.318 44.7789 170.25 44.5289L169.285 44.792ZM169.357 45.296H168.357C168.357 45.4495 168.314 45.5702 168.132 45.7151L168.757 46.496L169.382 47.2769C170.001 46.7818 170.357 46.1025 170.357 45.296H169.357ZM168.757 46.496L168.117 45.7278C167.904 45.9056 167.516 46.0971 166.865 46.2388L167.077 47.216L167.29 48.1932C168.11 48.0149 168.843 47.7264 169.397 47.2642L168.757 46.496ZM167.077 47.216L166.845 46.2434C166.209 46.3954 165.388 46.48 164.365 46.48V47.48V48.48C165.486 48.48 166.473 48.3886 167.31 48.1886L167.077 47.216ZM162.421 40.16V41.16H165.109V40.16V39.16H162.421V40.16ZM165.109 40.16V41.16C165.435 41.16 165.922 41.0972 166.296 40.7231L165.589 40.016L164.882 39.3089C164.975 39.2159 165.067 39.1789 165.11 39.1662C165.149 39.1545 165.155 39.16 165.109 39.16V40.16ZM165.589 40.016L166.24 40.7753C166.636 40.4356 166.757 39.9739 166.757 39.584H165.757H164.757C164.757 39.5837 164.757 39.5733 164.76 39.5546C164.763 39.5357 164.77 39.5077 164.783 39.4736C164.812 39.3997 164.863 39.321 164.938 39.2567L165.589 40.016ZM165.757 39.584H166.757C166.757 39.1522 166.617 38.7339 166.313 38.3916L165.565 39.056L164.818 39.7204C164.8 39.7007 164.782 39.6719 164.769 39.6377C164.757 39.6048 164.757 39.5837 164.757 39.584H165.757ZM165.565 39.056L166.354 38.4421C166.094 38.1067 165.745 37.9007 165.379 37.7882L165.085 38.744L164.791 39.6998C164.819 39.7082 164.824 39.7135 164.816 39.7084C164.812 39.7059 164.806 39.7014 164.798 39.6945C164.791 39.6875 164.783 39.6792 164.776 39.6699L165.565 39.056ZM165.085 38.744L165.444 37.8107C165.093 37.6758 164.718 37.624 164.341 37.624V38.624V39.624C164.541 39.624 164.661 39.6522 164.726 39.6773L165.085 38.744ZM164.341 38.624V37.624C163.816 37.624 163.307 37.7346 162.847 37.9898L163.333 38.864L163.819 39.7382C163.935 39.6734 164.099 39.624 164.341 39.624V38.624ZM163.333 38.864L162.886 37.9696C162.461 38.1821 162.096 38.4842 161.829 38.8853L162.661 39.44L163.493 39.9947C163.546 39.9158 163.629 39.8339 163.78 39.7584L163.333 38.864ZM162.661 39.44L161.82 38.8992C161.587 39.261 161.45 39.6648 161.423 40.0976L162.421 40.16L163.419 40.2224C163.424 40.1432 163.447 40.067 163.502 39.9808L162.661 39.44Z" fill="#3E9300" mask="url(#path-2-outside-1_2680_1653)"/>
<path d="M76.0254 63H75.1123V59.2993H70.9873V63H70.0742V55.1475H70.9873V58.4937H75.1123V55.1475H76.0254V63ZM84.9951 59.063C84.9951 59.6681 84.9181 60.2196 84.7642 60.7173C84.6102 61.2114 84.381 61.6375 84.0767 61.9956C83.7759 62.3501 83.4017 62.624 82.9541 62.8174C82.5065 63.0107 81.9873 63.1074 81.3965 63.1074C80.7878 63.1074 80.256 63.0107 79.8013 62.8174C79.3501 62.624 78.9741 62.3483 78.6733 61.9902C78.3761 61.6322 78.1523 61.2043 78.002 60.7065C77.8551 60.2088 77.7817 59.6574 77.7817 59.0522C77.7817 58.2502 77.9142 57.5465 78.1792 56.9414C78.4442 56.3363 78.8452 55.8654 79.3823 55.5288C79.923 55.1922 80.5998 55.0239 81.4126 55.0239C82.1896 55.0239 82.8431 55.1904 83.373 55.5234C83.9066 55.8564 84.3094 56.3255 84.5815 56.9307C84.8573 57.5322 84.9951 58.243 84.9951 59.063ZM78.7432 59.063C78.7432 59.729 78.8381 60.3055 79.0278 60.7925C79.2176 61.2795 79.5076 61.6554 79.8979 61.9204C80.2918 62.1854 80.7913 62.3179 81.3965 62.3179C82.0052 62.3179 82.5029 62.1854 82.8896 61.9204C83.2799 61.6554 83.5682 61.2795 83.7544 60.7925C83.9406 60.3055 84.0337 59.729 84.0337 59.063C84.0337 58.0496 83.8206 57.2583 83.3945 56.689C82.972 56.116 82.3114 55.8296 81.4126 55.8296C80.8039 55.8296 80.3026 55.9603 79.9087 56.2217C79.5148 56.4831 79.2212 56.8555 79.0278 57.3389C78.8381 57.8187 78.7432 58.3934 78.7432 59.063ZM90.1997 63L87.5625 56.0498H87.5195C87.5339 56.1966 87.5464 56.3757 87.5571 56.5869C87.5679 56.7982 87.5768 57.0291 87.584 57.2798C87.5911 57.5269 87.5947 57.7793 87.5947 58.0371V63H86.7461V55.1475H88.0996L90.5864 61.6787H90.624L93.1484 55.1475H94.4912V63H93.5889V57.9727C93.5889 57.7399 93.5924 57.5072 93.5996 57.2744C93.6068 57.0381 93.6157 56.8161 93.6265 56.6084C93.6372 56.3971 93.6479 56.2145 93.6587 56.0605H93.6157L90.9463 63H90.1997ZM101.012 63H96.6396V55.1475H101.012V55.9531H97.5527V58.4937H100.813V59.2886H97.5527V62.1943H101.012V63ZM106.206 63L103.568 56.0498H103.525C103.54 56.1966 103.552 56.3757 103.563 56.5869C103.574 56.7982 103.583 57.0291 103.59 57.2798C103.597 57.5269 103.601 57.7793 103.601 58.0371V63H102.752V55.1475H104.105L106.592 61.6787H106.63L109.154 55.1475H110.497V63H109.595V57.9727C109.595 57.7399 109.598 57.5072 109.605 57.2744C109.613 57.0381 109.622 56.8161 109.632 56.6084C109.643 56.3971 109.654 56.2145 109.665 56.0605H109.622L106.952 63H106.206ZM117.571 63L116.604 60.5078H113.457L112.495 63H111.571L114.644 55.1152H115.465L118.516 63H117.571ZM116.33 59.6968L115.412 57.2207C115.39 57.1562 115.354 57.0506 115.304 56.9038C115.258 56.757 115.209 56.6048 115.159 56.4473C115.109 56.2897 115.068 56.1626 115.036 56.0659C115 56.2127 114.96 56.3595 114.917 56.5063C114.878 56.6496 114.839 56.7839 114.799 56.9092C114.76 57.0309 114.726 57.1348 114.697 57.2207L113.763 59.6968H116.33ZM125.842 58.9985C125.842 59.883 125.681 60.6224 125.359 61.2168C125.037 61.8076 124.569 62.2534 123.957 62.5542C123.348 62.8514 122.609 63 121.739 63H119.606V55.1475H121.975C122.774 55.1475 123.461 55.2943 124.038 55.5879C124.614 55.8779 125.058 56.3094 125.37 56.8823C125.685 57.4517 125.842 58.1571 125.842 58.9985ZM124.881 59.0308C124.881 58.3254 124.763 57.7435 124.526 57.2852C124.294 56.8268 123.95 56.4867 123.495 56.2646C123.044 56.0391 122.491 55.9263 121.835 55.9263H120.52V62.2158H121.631C122.713 62.2158 123.524 61.9491 124.064 61.4155C124.609 60.882 124.881 60.0871 124.881 59.0308ZM131.96 63H127.588V55.1475H131.96V55.9531H128.501V58.4937H131.761V59.2886H128.501V62.1943H131.96V63ZM137.471 63H136.558V55.1475H140.93V55.9531H137.471V58.832H140.72V59.6323H137.471V63ZM149.051 59.063C149.051 59.6681 148.974 60.2196 148.82 60.7173C148.666 61.2114 148.437 61.6375 148.132 61.9956C147.832 62.3501 147.457 62.624 147.01 62.8174C146.562 63.0107 146.043 63.1074 145.452 63.1074C144.843 63.1074 144.312 63.0107 143.857 62.8174C143.406 62.624 143.03 62.3483 142.729 61.9902C142.432 61.6322 142.208 61.2043 142.058 60.7065C141.911 60.2088 141.837 59.6574 141.837 59.0522C141.837 58.2502 141.97 57.5465 142.235 56.9414C142.5 56.3363 142.901 55.8654 143.438 55.5288C143.979 55.1922 144.655 55.0239 145.468 55.0239C146.245 55.0239 146.899 55.1904 147.429 55.5234C147.962 55.8564 148.365 56.3255 148.637 56.9307C148.913 57.5322 149.051 58.243 149.051 59.063ZM142.799 59.063C142.799 59.729 142.894 60.3055 143.083 60.7925C143.273 61.2795 143.563 61.6554 143.954 61.9204C144.347 62.1854 144.847 62.3179 145.452 62.3179C146.061 62.3179 146.559 62.1854 146.945 61.9204C147.336 61.6554 147.624 61.2795 147.81 60.7925C147.996 60.3055 148.089 59.729 148.089 59.063C148.089 58.0496 147.876 57.2583 147.45 56.689C147.028 56.116 146.367 55.8296 145.468 55.8296C144.86 55.8296 144.358 55.9603 143.964 56.2217C143.57 56.4831 143.277 56.8555 143.083 57.3389C142.894 57.8187 142.799 58.3934 142.799 59.063ZM157.612 59.063C157.612 59.6681 157.535 60.2196 157.381 60.7173C157.227 61.2114 156.998 61.6375 156.694 61.9956C156.393 62.3501 156.019 62.624 155.571 62.8174C155.124 63.0107 154.604 63.1074 154.014 63.1074C153.405 63.1074 152.873 63.0107 152.418 62.8174C151.967 62.624 151.591 62.3483 151.291 61.9902C150.993 61.6322 150.77 61.2043 150.619 60.7065C150.472 60.2088 150.399 59.6574 150.399 59.0522C150.399 58.2502 150.531 57.5465 150.796 56.9414C151.061 56.3363 151.462 55.8654 152 55.5288C152.54 55.1922 153.217 55.0239 154.03 55.0239C154.807 55.0239 155.46 55.1904 155.99 55.5234C156.524 55.8564 156.927 56.3255 157.199 56.9307C157.474 57.5322 157.612 58.243 157.612 59.063ZM151.36 59.063C151.36 59.729 151.455 60.3055 151.645 60.7925C151.835 61.2795 152.125 61.6554 152.515 61.9204C152.909 62.1854 153.409 62.3179 154.014 62.3179C154.622 62.3179 155.12 62.1854 155.507 61.9204C155.897 61.6554 156.185 61.2795 156.372 60.7925C156.558 60.3055 156.651 59.729 156.651 59.063C156.651 58.0496 156.438 57.2583 156.012 56.689C155.589 56.116 154.929 55.8296 154.03 55.8296C153.421 55.8296 152.92 55.9603 152.526 56.2217C152.132 56.4831 151.838 56.8555 151.645 57.3389C151.455 57.8187 151.36 58.3934 151.36 59.063ZM165.599 58.9985C165.599 59.883 165.438 60.6224 165.116 61.2168C164.793 61.8076 164.326 62.2534 163.714 62.5542C163.105 62.8514 162.366 63 161.496 63H159.363V55.1475H161.732C162.53 55.1475 163.218 55.2943 163.794 55.5879C164.371 55.8779 164.815 56.3094 165.126 56.8823C165.442 57.4517 165.599 58.1571 165.599 58.9985ZM164.638 59.0308C164.638 58.3254 164.52 57.7435 164.283 57.2852C164.05 56.8268 163.707 56.4867 163.252 56.2646C162.801 56.0391 162.248 55.9263 161.592 55.9263H160.276V62.2158H161.388C162.47 62.2158 163.281 61.9491 163.821 61.4155C164.366 60.882 164.638 60.0871 164.638 59.0308Z" fill="#3E9300"/>
</svg>
