<svg width="22" height="21" viewBox="0 0 22 21" fill="none" xmlns="http://www.w3.org/2000/svg">
<g clip-path="url(#clip0_3379_2945)">
<path d="M4.125 11.6875C4.48967 11.6875 4.83941 11.5426 5.09727 11.2848C5.35513 11.0269 5.5 10.6772 5.5 10.3125C5.5 9.94783 5.35513 9.59809 5.09727 9.34023C4.83941 9.08237 4.48967 8.9375 4.125 8.9375C3.76033 8.9375 3.41059 9.08237 3.15273 9.34023C2.89487 9.59809 2.75 9.94783 2.75 10.3125C2.75 10.6772 2.89487 11.0269 3.15273 11.2848C3.41059 11.5426 3.76033 11.6875 4.125 11.6875Z" fill="#3E9300"/>
<path fill-rule="evenodd" clip-rule="evenodd" d="M6.18768 4.125C8.33268 4.125 10.2302 5.21675 11.3439 6.875H18.5764C18.7926 6.87493 19.0057 6.92581 19.1985 7.02352C19.3913 7.12123 19.5583 7.26302 19.6861 7.43737L21.7348 10.2424C21.9 10.4658 21.993 10.7344 22.0011 11.0121C22.0092 11.2899 21.9321 11.5635 21.7802 11.7961L20.0477 14.4774C19.9477 14.6324 19.8175 14.7656 19.6648 14.8691C19.5121 14.9726 19.3401 15.0442 19.159 15.0796C18.978 15.115 18.7917 15.1136 18.6113 15.0753C18.4308 15.037 18.26 14.9627 18.1089 14.8569L16.5277 13.75L14.8914 14.8665C14.6626 15.0232 14.3918 15.107 14.1146 15.107C13.8373 15.107 13.5665 15.0232 13.3377 14.8665L11.7014 13.75H11.3467C10.2357 15.4138 8.34918 16.5 6.19043 16.5C4.5494 16.5 2.97559 15.8481 1.81521 14.6877C0.654825 13.5273 0.00292969 11.9535 0.00292969 10.3125C0.00292969 8.67147 0.654825 7.09766 1.81521 5.93728C2.97559 4.7769 4.5494 4.125 6.19043 4.125H6.18768ZM11.3439 12.375C11.1177 12.3748 10.895 12.4304 10.6954 12.5369C10.4959 12.6434 10.3257 12.7975 10.1999 12.9855C9.33368 14.278 7.86243 15.1305 6.19868 15.1305C3.54493 15.1305 1.38618 12.9718 1.38618 10.318C1.38618 7.66425 3.54493 5.5055 6.19868 5.5055C7.86243 5.5055 9.33368 6.3525 10.1999 7.6505C10.4557 8.03138 10.8847 8.261 11.3439 8.261H18.5764L20.6252 11.066L18.8927 13.7473L17.3114 12.6404C17.082 12.4797 16.8089 12.3929 16.5288 12.3917C16.2486 12.3905 15.9748 12.4748 15.7439 12.6335L14.1077 13.75L12.4714 12.6335C12.2423 12.4765 11.9709 12.3926 11.6932 12.3929H11.3384L11.3439 12.375Z" fill="#3E9300"/>
</g>
<defs>
<clipPath id="clip0_3379_2945">
<rect width="22" height="22" fill="white"/>
</clipPath>
</defs>
</svg>
