<svg width="39" height="39" viewBox="0 0 39 39" fill="none" xmlns="http://www.w3.org/2000/svg">
<path d="M34.4965 31.9377C36.4982 29.5313 37.8904 26.6785 38.5554 23.6208C39.2203 20.563 39.1384 17.3902 38.3166 14.3708C37.4947 11.3514 35.9572 8.57412 33.8339 6.27401C31.7106 3.9739 29.0642 2.21858 26.1184 1.15655C23.1726 0.0945243 20.0141 -0.242975 16.9102 0.172606C13.8062 0.588187 10.8481 1.74462 8.28606 3.54408C5.72402 5.34355 3.63342 7.7331 2.19113 10.5106C0.74883 13.2881 -0.00273557 16.3718 7.48171e-06 19.5009C0.00117923 24.0497 1.60547 28.4528 4.53142 31.9377L4.50355 31.9614C4.60112 32.0784 4.71262 32.1786 4.81298 32.2942C4.93843 32.4377 5.07363 32.5728 5.20326 32.712C5.59168 33.1364 5.9959 33.5402 6.41591 33.9237C6.546 34.0388 6.6761 34.1512 6.80619 34.2607C7.25222 34.646 7.71219 35.0091 8.1861 35.3498C8.24743 35.3916 8.30319 35.4459 8.36452 35.4891V35.4724C11.629 37.768 15.5234 39 19.5153 39C23.5072 39 27.4017 37.768 30.6662 35.4724V35.4891C30.7275 35.4459 30.7819 35.3916 30.8446 35.3498C31.3185 35.0081 31.7785 34.6451 32.2245 34.2607C32.3546 34.1502 32.4847 34.0379 32.6148 33.9237C33.0339 33.5402 33.4381 33.1364 33.8274 32.712C33.957 32.5728 34.0909 32.4377 34.2177 32.2942C34.3167 32.1786 34.4296 32.0784 34.5271 31.96L34.4965 31.9377ZM19.5139 8.35933C20.7545 8.35933 21.9672 8.72689 22.9987 9.41553C24.0302 10.1042 24.8341 11.083 25.3088 12.2281C25.7836 13.3733 25.9078 14.6334 25.6658 15.8491C25.4237 17.0648 24.8264 18.1815 23.9492 19.058C23.072 19.9345 21.9543 20.5314 20.7376 20.7732C19.5209 21.015 18.2597 20.8909 17.1136 20.4166C15.9675 19.9422 14.9879 19.1389 14.2987 18.1083C13.6095 17.0777 13.2416 15.866 13.2416 14.6265C13.2416 12.9643 13.9024 11.3703 15.0787 10.1949C16.255 9.01962 17.8504 8.35933 19.5139 8.35933ZM8.37288 31.9377C8.39706 30.1091 9.14082 28.3634 10.4433 27.0785C11.7457 25.7936 13.5021 25.0726 15.3324 25.0717H23.6955C25.5258 25.0726 27.2822 25.7936 28.5846 27.0785C29.8871 28.3634 30.6308 30.1091 30.655 31.9377C27.5981 34.6901 23.629 36.2134 19.5139 36.2134C15.3989 36.2134 11.4298 34.6901 8.37288 31.9377Z" fill="#3E9300"/>
</svg>
